<svg width="30" height="30" viewBox="0 0 30 30" fill="none" xmlns="http://www.w3.org/2000/svg">
<path d="M3.62206 5.22531C10.5951 -2.88915 23.5251 -1.288 28.3569 8.19136C24.9538 8.19324 19.627 8.18949 16.7414 8.19136C14.6489 8.19136 13.297 8.14449 11.8345 8.91506C10.1151 9.82063 8.81578 11.4986 8.36391 13.471L3.62206 5.22531Z" fill="#F44336"/>
<path d="M10.0101 14.9991C10.0101 17.7496 12.247 19.9863 14.9957 19.9863C17.7445 19.9863 19.9813 17.7496 19.9813 14.9991C19.9813 12.2487 17.7445 10.012 14.9957 10.012C12.2451 10.0101 10.0101 12.2487 10.0101 14.9991Z" fill="#2196F3"/>
<path d="M16.9289 21.5275C14.1314 22.358 10.8558 21.4375 9.06333 18.3402C7.69458 15.9778 4.07585 9.67638 2.43336 6.80969C-3.32661 15.6366 1.63649 27.6639 12.0914 29.7169L16.9289 21.5275Z" fill="#4CAF50"/>
<path d="M19.6252 10.0099C21.9558 12.1773 22.4639 15.6871 20.8852 18.4075C19.6964 20.4586 15.8996 26.8651 14.0602 29.9661C24.832 30.6298 32.6845 20.0743 29.137 10.0081L19.6252 10.0099Z" fill="#FFC107"/>
</svg>
