<svg width="30" height="30" viewBox="0 0 30 30" fill="none" xmlns="http://www.w3.org/2000/svg">
<g clip-path="url(#clip0_1_930)">
<path d="M12.4775 5.97392C12.3217 4.78944 11.9079 3.71617 11.1799 2.92996C10.4034 2.19289 9.34341 1.77392 8.17355 1.61617C7.05733 1.46617 6.29615 1.50237 6.29615 1.50237C6.29615 1.50237 5.53498 1.46617 4.41876 1.61617C3.2489 1.77392 2.18887 2.19289 1.41493 2.92996C0.684402 3.71617 0.270609 4.78944 0.114798 5.97392C-0.0333502 7.1041 0.00240975 7.87479 0.00240975 7.87479C0.00240975 7.87479 -0.0333502 8.64548 0.114798 9.77565C0.270609 10.9601 0.684402 12.0334 1.41237 12.8196C2.18887 13.5593 3.2489 13.9782 4.4162 14.136C5.53242 14.286 6.2936 14.2498 6.2936 14.2498C6.2936 14.2498 7.05477 14.286 8.17099 14.136C9.34085 13.9782 10.4009 13.5593 11.1748 12.8196C11.9053 12.0334 12.3191 10.9601 12.4724 9.77565C12.6205 8.64548 12.5848 7.87479 12.5848 7.87479C12.5848 7.87479 12.6257 7.1041 12.4775 5.97392Z" fill="#7882FF"/>
<path d="M9.51979 6.93114C10.0179 8.74149 8.97062 10.6191 7.18263 11.1234C5.39463 11.6277 3.54022 10.5673 3.04214 8.757C2.54406 6.94666 3.59131 5.06907 5.37931 4.56476C7.1673 4.06045 9.02171 5.1208 9.51979 6.93114Z" fill="white"/>
<path d="M9.5198 6.93115C9.70626 7.61132 9.67561 8.29926 9.47126 8.91995C9.45594 8.96908 9.43806 9.02081 9.41763 9.06995" fill="white"/>
<path d="M9.46616 6.93115C9.59642 7.40701 9.62197 7.88805 9.553 8.34581Z" fill="white"/>
<path d="M8.52873 10.2337C7.67816 10.2337 6.64367 10.0139 5.61175 9.61821C4.57982 9.22252 3.66283 8.68977 3.02682 8.11821C1.99489 7.18977 2.05874 6.4708 2.18901 6.12425C2.31928 5.7777 2.74329 5.1958 4.1226 5.1958C4.97318 5.1958 6.00766 5.41563 7.03959 5.81132C8.07152 6.20701 8.9885 6.73977 9.62452 7.31132C10.6564 8.23977 10.5926 8.95873 10.4623 9.30528C10.3346 9.65183 9.9106 10.2337 8.52873 10.2337ZM4.12516 6.27425C3.48659 6.27425 3.21328 6.43459 3.18518 6.50701C3.15708 6.57942 3.25926 6.88459 3.73691 7.3139C4.27075 7.79235 5.09323 8.26821 5.99233 8.61218C6.89144 8.95873 7.81864 9.15787 8.53129 9.15787C9.16986 9.15787 9.44316 8.99753 9.47126 8.92511C9.49936 8.8527 9.39719 8.54752 8.92209 8.11821C8.38825 7.63977 7.56577 7.1639 6.66666 6.81994C5.76245 6.47339 4.8378 6.27425 4.12516 6.27425Z" fill="#4D5CC1"/>
<path d="M3.18518 6.51735L9.46615 8.93287C9.6756 8.307 9.70881 7.6139 9.51979 6.93114C9.02171 5.1208 7.16986 4.06045 5.37931 4.56476C4.35249 4.85442 3.57088 5.59666 3.18518 6.51735Z" fill="white"/>
</g>
<g clip-path="url(#clip1_1_930)">
<path fill-rule="evenodd" clip-rule="evenodd" d="M29.051 7.20703C29.051 11.1873 25.8641 14.4141 21.9329 14.4141C18.0017 14.4141 14.8149 11.1873 14.8149 7.20703C14.8149 3.2267 18.0017 0 21.9329 0C25.8641 0 29.051 3.2267 29.051 7.20703Z" fill="url(#paint0_linear_1_930)"/>
<path fill-rule="evenodd" clip-rule="evenodd" d="M28.7062 7.20706C28.7062 10.9946 25.6737 14.065 21.9329 14.065C18.1921 14.065 15.1597 10.9946 15.1597 7.20706C15.1597 3.41952 18.1921 0.349121 21.9329 0.349121C25.6737 0.349121 28.7062 3.41952 28.7062 7.20706Z" fill="white"/>
<path fill-rule="evenodd" clip-rule="evenodd" d="M26.5152 4.23409L22.7059 8.00652V12.6967C22.7059 12.7812 22.3444 12.8487 21.9329 12.8544C21.5381 12.8487 21.16 12.7812 21.16 12.6967V8.00652L17.3507 4.23409C17.2895 4.17215 17.4841 3.87936 17.7844 3.57532C18.0847 3.27127 18.3795 3.0742 18.4351 3.13614L21.9274 6.58763L25.4197 3.13614C25.4808 3.0742 25.77 3.27127 26.0703 3.57532C26.3706 3.87936 26.5708 4.17215 26.5152 4.23409Z" fill="#EC1C24"/>
</g>
<g clip-path="url(#clip2_1_930)">
<path d="M4.34721 27.0047C3.68981 26.2219 3.26851 25.0641 3.24073 23.7656V23.4844C3.26851 22.1859 3.69444 21.0281 4.34721 20.2453C5.19906 19.1297 6.44906 18.6281 7.8611 18.6281C8.73147 18.6281 9.55092 18.6891 10.2454 19.1578C9.20369 18.2063 7.82869 17.6297 6.31944 17.625H6.29629C3.02314 17.625 0.370361 20.3109 0.370361 23.625C0.370361 26.8406 2.87036 29.4703 6.01388 29.6203C6.10647 29.625 6.20369 29.625 6.29629 29.625C7.81481 29.625 9.19906 29.0484 10.2454 28.0969C9.55092 28.5656 8.77777 28.5844 7.9074 28.5844C6.49999 28.5891 5.19444 28.125 4.34721 27.0047Z" fill="url(#paint1_linear_1_930)"/>
<path d="M4.34721 20.2454C4.88888 19.5938 5.59258 19.2047 6.3611 19.2047C8.08795 19.2047 9.4861 21.1829 9.4861 23.6297C9.4861 26.0766 8.08795 28.0547 6.3611 28.0547C5.59258 28.0547 4.89351 27.661 4.34721 27.0141C5.19907 28.1297 6.46295 28.8422 7.87036 28.8422C8.7361 28.8422 9.55092 28.5751 10.2454 28.1063C11.4583 27.0001 12.2222 25.4016 12.2222 23.625C12.2222 21.8485 11.4583 20.25 10.2454 19.1532C9.55092 18.6844 8.74073 18.4172 7.87036 18.4172C6.45832 18.4172 5.19444 19.125 4.34721 20.2454Z" fill="url(#paint2_linear_1_930)"/>
</g>
<g clip-path="url(#clip3_1_930)">
<path d="M27.3677 27.2466C24.6482 30.8224 21.0045 29.8943 19.5735 29.0822C17.3888 27.8447 15.8584 24.9649 16.7675 22.0877C17.0348 21.2395 17.4422 20.5125 17.9489 19.9118C18.4455 19.9505 19.0337 19.9505 19.7313 19.8989C23.8945 19.5998 25.0811 23.2092 24.7857 24.1116C24.633 24.573 24.0957 24.72 23.6068 24.7535C23.6552 24.6865 23.7138 24.5911 23.7978 24.4467C24.0575 23.9827 24.0881 23.0958 23.2834 22.5595C22.5068 22.0491 21.6691 22.3636 21.2388 22.9437C20.8084 23.5212 20.9765 24.39 21.1293 24.7767C21.7837 26.437 22.9906 26.8676 23.8105 27.1176C24.6304 27.3677 25.8501 27.3316 26.4994 27.0609C27.1462 26.7876 27.332 26.6304 27.4568 26.7696C27.5816 26.9062 27.4925 27.0661 27.3677 27.2466Z" fill="#1E88E5"/>
<path d="M27.3804 27.2466C26.3466 28.6079 25.1779 29.3143 24.0499 29.6262C24.0397 29.6288 24.032 29.6288 24.0269 29.6314C23.3725 29.7577 22.8531 29.6546 22.2878 29.5437C21.3686 29.3632 20.1031 28.3372 19.7975 26.4809C19.5353 24.8825 20.2813 23.529 21.4577 22.7091C21.3813 22.7813 21.3126 22.8586 21.2489 22.9437C20.8186 23.5212 20.9867 24.39 21.1394 24.7768C21.7938 26.4371 23.0008 26.8676 23.8207 27.1177C24.6406 27.3678 25.8603 27.3317 26.5096 27.061C27.1563 26.7877 27.3422 26.6304 27.467 26.7697C27.5943 26.9063 27.5052 27.0661 27.3804 27.2466Z" fill="#0D47A1"/>
<path d="M23.2809 17.8674C23.286 17.9447 23.2911 18.0298 23.2911 18.1123C23.2911 19.2493 22.7716 20.2599 21.9594 20.9173C21.6563 20.7601 21.3024 20.6337 20.8746 20.5512C19.6651 20.3166 17.7147 20.8812 16.9228 22.2863C16.6605 22.7452 16.551 23.217 16.5026 23.6553C16.5154 23.1397 16.6019 22.6137 16.7675 22.0878C17.7452 18.9992 20.5818 17.5065 23.2809 17.8674Z" fill="#00E5FF"/>
<path d="M27.579 24.9804C26.7591 25.8157 25.7151 25.8415 25.0022 25.8028C24.2867 25.7667 23.9353 25.5553 23.6094 25.3517C23.2783 25.1428 23.4668 24.9392 23.4999 24.8953C23.533 24.8489 23.6119 24.7716 23.7978 24.4467C23.8844 24.292 23.9455 24.091 23.9582 23.8718C25.3306 22.8406 26.3237 21.3169 26.6802 19.556C27.5485 20.4429 27.9584 21.4252 28.1036 21.8454C28.3633 22.6034 28.5619 23.9801 27.579 24.9804Z" fill="#00E676"/>
<path d="M26.6776 19.5534V19.556C26.3212 21.3168 25.3281 22.8379 23.9556 23.8718C23.9658 23.7454 23.9556 23.6088 23.9251 23.4747C23.9251 23.4696 23.9225 23.4618 23.9225 23.4593C23.8487 23.0158 23.6272 22.4564 23.2631 22.0232C22.9015 21.5901 22.5144 21.2008 21.9594 20.9172C22.7716 20.2624 23.2911 19.2492 23.2911 18.1122C23.2911 18.0297 23.2885 17.9472 23.2809 17.8673C23.4006 17.8828 23.5151 17.9008 23.6348 17.924C25.0047 18.1922 25.985 18.8444 26.6776 19.5534Z" fill="#1DE9B6"/>
</g>
<defs>
<linearGradient id="paint0_linear_1_930" x1="21.9329" y1="6.78418e-10" x2="21.9329" y2="14.4141" gradientUnits="userSpaceOnUse">
<stop offset="1e-07" stop-color="#F5F5F6"/>
<stop offset="1" stop-color="#EDEDEE"/>
</linearGradient>
<linearGradient id="paint1_linear_1_930" x1="494.146" y1="37.1897" x2="494.146" y2="1200.16" gradientUnits="userSpaceOnUse">
<stop offset="0.3" stop-color="#FF1B2D"/>
<stop offset="0.4381" stop-color="#FA1A2C"/>
<stop offset="0.5939" stop-color="#ED1528"/>
<stop offset="0.7581" stop-color="#D60E21"/>
<stop offset="0.9272" stop-color="#B70519"/>
<stop offset="1" stop-color="#A70014"/>
</linearGradient>
<linearGradient id="paint2_linear_1_930" x1="398.021" y1="27.3094" x2="398.021" y2="1055.9" gradientUnits="userSpaceOnUse">
<stop stop-color="#9C0000"/>
<stop offset="0.7" stop-color="#FF4B4B"/>
</linearGradient>
<clipPath id="clip0_1_930">
<rect width="12.5926" height="12.75" fill="white" transform="translate(0 1.50012)"/>
</clipPath>
<clipPath id="clip1_1_930">
<rect width="15.1852" height="15.375" fill="white" transform="translate(14.8149)"/>
</clipPath>
<clipPath id="clip2_1_930">
<rect width="11.8519" height="12" fill="white" transform="translate(0.370361 17.625)"/>
</clipPath>
<clipPath id="clip3_1_930">
<rect width="12.2222" height="12.375" fill="white" transform="translate(16.2964 17.625)"/>
</clipPath>
</defs>
</svg>
