<svg width="112" height="47" viewBox="0 0 112 47" fill="none" xmlns="http://www.w3.org/2000/svg">
<path d="M64.8047 27.8389C64.8047 27.6104 64.7695 27.4053 64.6992 27.2236C64.6348 27.0361 64.5117 26.8662 64.3301 26.7139C64.1484 26.5557 63.8936 26.4004 63.5654 26.248C63.2373 26.0957 62.8125 25.9375 62.291 25.7734C61.7109 25.5859 61.1602 25.375 60.6387 25.1406C60.123 24.9062 59.666 24.6338 59.2676 24.3232C58.875 24.0068 58.5645 23.6406 58.3359 23.2246C58.1133 22.8086 58.002 22.3252 58.002 21.7744C58.002 21.2412 58.1191 20.7578 58.3535 20.3242C58.5879 19.8848 58.916 19.5098 59.3379 19.1992C59.7598 18.8828 60.2578 18.6396 60.832 18.4697C61.4121 18.2998 62.0479 18.2148 62.7393 18.2148C63.6826 18.2148 64.5059 18.3848 65.209 18.7246C65.9121 19.0645 66.457 19.5303 66.8438 20.1221C67.2363 20.7139 67.4326 21.3906 67.4326 22.1523H64.8135C64.8135 21.7773 64.7344 21.4492 64.5762 21.168C64.4238 20.8809 64.1895 20.6553 63.873 20.4912C63.5625 20.3271 63.1699 20.2451 62.6953 20.2451C62.2383 20.2451 61.8574 20.3154 61.5527 20.4561C61.248 20.5908 61.0195 20.7754 60.8672 21.0098C60.7148 21.2383 60.6387 21.4961 60.6387 21.7832C60.6387 22 60.6914 22.1963 60.7969 22.3721C60.9082 22.5479 61.0723 22.7119 61.2891 22.8643C61.5059 23.0166 61.7725 23.1602 62.0889 23.2949C62.4053 23.4297 62.7715 23.5615 63.1875 23.6904C63.8848 23.9014 64.4971 24.1387 65.0244 24.4023C65.5576 24.666 66.0029 24.9619 66.3604 25.29C66.7178 25.6182 66.9873 25.9902 67.1689 26.4062C67.3506 26.8223 67.4414 27.2939 67.4414 27.8213C67.4414 28.3779 67.333 28.876 67.1162 29.3154C66.8994 29.7549 66.5859 30.127 66.1758 30.4316C65.7656 30.7363 65.2764 30.9678 64.708 31.126C64.1396 31.2842 63.5039 31.3633 62.8008 31.3633C62.168 31.3633 61.5439 31.2812 60.9287 31.1172C60.3135 30.9473 59.7539 30.6924 59.25 30.3525C58.752 30.0127 58.3535 29.5791 58.0547 29.0518C57.7559 28.5244 57.6064 27.9004 57.6064 27.1797H60.252C60.252 27.5781 60.3135 27.915 60.4365 28.1904C60.5596 28.4658 60.7324 28.6885 60.9551 28.8584C61.1836 29.0283 61.4531 29.1514 61.7637 29.2275C62.0801 29.3037 62.4258 29.3418 62.8008 29.3418C63.2578 29.3418 63.6328 29.2773 63.9258 29.1484C64.2246 29.0195 64.4443 28.8408 64.585 28.6123C64.7314 28.3838 64.8047 28.126 64.8047 27.8389ZM74.209 29.043V24.8066C74.209 24.502 74.1592 24.2412 74.0596 24.0244C73.96 23.8018 73.8047 23.6289 73.5938 23.5059C73.3887 23.3828 73.1221 23.3213 72.7939 23.3213C72.5127 23.3213 72.2695 23.3711 72.0645 23.4707C71.8594 23.5645 71.7012 23.7021 71.5898 23.8838C71.4785 24.0596 71.4229 24.2676 71.4229 24.5078H68.8916C68.8916 24.1035 68.9854 23.7197 69.1729 23.3564C69.3604 22.9932 69.6328 22.6738 69.9902 22.3984C70.3477 22.1172 70.7725 21.8975 71.2646 21.7393C71.7627 21.5811 72.3193 21.502 72.9346 21.502C73.6729 21.502 74.3291 21.625 74.9033 21.8711C75.4775 22.1172 75.9287 22.4863 76.2568 22.9785C76.5908 23.4707 76.7578 24.0859 76.7578 24.8242V28.8936C76.7578 29.415 76.79 29.8428 76.8545 30.1768C76.9189 30.5049 77.0127 30.792 77.1357 31.0381V31.1875H74.5781C74.4551 30.9297 74.3613 30.6074 74.2969 30.2207C74.2383 29.8281 74.209 29.4355 74.209 29.043ZM74.543 25.3955L74.5605 26.8281H73.1455C72.8115 26.8281 72.5215 26.8662 72.2754 26.9424C72.0293 27.0186 71.8271 27.127 71.6689 27.2676C71.5107 27.4023 71.3936 27.5605 71.3174 27.7422C71.2471 27.9238 71.2119 28.123 71.2119 28.3398C71.2119 28.5566 71.2617 28.7529 71.3613 28.9287C71.4609 29.0986 71.6045 29.2334 71.792 29.333C71.9795 29.4268 72.1992 29.4736 72.4512 29.4736C72.832 29.4736 73.1631 29.3975 73.4443 29.2451C73.7256 29.0928 73.9424 28.9053 74.0947 28.6826C74.2529 28.46 74.335 28.249 74.3408 28.0498L75.0088 29.1221C74.915 29.3623 74.7861 29.6113 74.6221 29.8691C74.4639 30.127 74.2617 30.3701 74.0156 30.5986C73.7695 30.8213 73.4736 31.0059 73.1279 31.1523C72.7822 31.293 72.3721 31.3633 71.8975 31.3633C71.2939 31.3633 70.7461 31.2432 70.2539 31.0029C69.7676 30.7568 69.3809 30.4199 69.0938 29.9922C68.8125 29.5586 68.6719 29.0664 68.6719 28.5156C68.6719 28.0176 68.7656 27.5752 68.9531 27.1885C69.1406 26.8018 69.416 26.4766 69.7793 26.2129C70.1484 25.9434 70.6084 25.7412 71.1592 25.6064C71.71 25.4658 72.3486 25.3955 73.0752 25.3955H74.543ZM81.9346 31.1875H79.3857V20.834C79.3857 20.1133 79.5264 19.5068 79.8076 19.0146C80.0947 18.5166 80.4961 18.1416 81.0117 17.8896C81.5332 17.6318 82.1514 17.5029 82.8662 17.5029C83.1006 17.5029 83.3262 17.5205 83.543 17.5557C83.7598 17.585 83.9707 17.623 84.1758 17.6699L84.1494 19.5771C84.0381 19.5479 83.9209 19.5273 83.7979 19.5156C83.6748 19.5039 83.5312 19.498 83.3672 19.498C83.0625 19.498 82.8018 19.5508 82.585 19.6562C82.374 19.7559 82.2129 19.9053 82.1016 20.1045C81.9902 20.3037 81.9346 20.5469 81.9346 20.834V31.1875ZM83.833 21.6777V23.4707H77.9707V21.6777H83.833ZM90.293 29.043V24.8066C90.293 24.502 90.2432 24.2412 90.1436 24.0244C90.0439 23.8018 89.8887 23.6289 89.6777 23.5059C89.4727 23.3828 89.2061 23.3213 88.8779 23.3213C88.5967 23.3213 88.3535 23.3711 88.1484 23.4707C87.9434 23.5645 87.7852 23.7021 87.6738 23.8838C87.5625 24.0596 87.5068 24.2676 87.5068 24.5078H84.9756C84.9756 24.1035 85.0693 23.7197 85.2568 23.3564C85.4443 22.9932 85.7168 22.6738 86.0742 22.3984C86.4316 22.1172 86.8564 21.8975 87.3486 21.7393C87.8467 21.5811 88.4033 21.502 89.0186 21.502C89.7568 21.502 90.4131 21.625 90.9873 21.8711C91.5615 22.1172 92.0127 22.4863 92.3408 22.9785C92.6748 23.4707 92.8418 24.0859 92.8418 24.8242V28.8936C92.8418 29.415 92.874 29.8428 92.9385 30.1768C93.0029 30.5049 93.0967 30.792 93.2197 31.0381V31.1875H90.6621C90.5391 30.9297 90.4453 30.6074 90.3809 30.2207C90.3223 29.8281 90.293 29.4355 90.293 29.043ZM90.627 25.3955L90.6445 26.8281H89.2295C88.8955 26.8281 88.6055 26.8662 88.3594 26.9424C88.1133 27.0186 87.9111 27.127 87.7529 27.2676C87.5947 27.4023 87.4775 27.5605 87.4014 27.7422C87.3311 27.9238 87.2959 28.123 87.2959 28.3398C87.2959 28.5566 87.3457 28.7529 87.4453 28.9287C87.5449 29.0986 87.6885 29.2334 87.876 29.333C88.0635 29.4268 88.2832 29.4736 88.5352 29.4736C88.916 29.4736 89.2471 29.3975 89.5283 29.2451C89.8096 29.0928 90.0264 28.9053 90.1787 28.6826C90.3369 28.46 90.4189 28.249 90.4248 28.0498L91.0928 29.1221C90.999 29.3623 90.8701 29.6113 90.7061 29.8691C90.5479 30.127 90.3457 30.3701 90.0996 30.5986C89.8535 30.8213 89.5576 31.0059 89.2119 31.1523C88.8662 31.293 88.4561 31.3633 87.9814 31.3633C87.3779 31.3633 86.8301 31.2432 86.3379 31.0029C85.8516 30.7568 85.4648 30.4199 85.1777 29.9922C84.8965 29.5586 84.7559 29.0664 84.7559 28.5156C84.7559 28.0176 84.8496 27.5752 85.0371 27.1885C85.2246 26.8018 85.5 26.4766 85.8633 26.2129C86.2324 25.9434 86.6924 25.7412 87.2432 25.6064C87.7939 25.4658 88.4326 25.3955 89.1592 25.3955H90.627ZM97.3242 23.752V31.1875H94.793V21.6777H97.1748L97.3242 23.752ZM100.189 21.6162L100.146 23.9629C100.022 23.9453 99.873 23.9307 99.6973 23.9189C99.5273 23.9014 99.3721 23.8926 99.2314 23.8926C98.874 23.8926 98.5635 23.9395 98.2998 24.0332C98.042 24.1211 97.8252 24.2529 97.6494 24.4287C97.4795 24.6045 97.3506 24.8184 97.2627 25.0703C97.1807 25.3223 97.1338 25.6094 97.1221 25.9316L96.6123 25.7734C96.6123 25.1582 96.6738 24.5928 96.7969 24.0771C96.9199 23.5557 97.0986 23.1016 97.333 22.7148C97.5732 22.3281 97.8662 22.0293 98.2119 21.8184C98.5576 21.6074 98.9531 21.502 99.3984 21.502C99.5391 21.502 99.6826 21.5137 99.8291 21.5371C99.9756 21.5547 100.096 21.5811 100.189 21.6162ZM104.057 21.6777V31.1875H101.517V21.6777H104.057ZM101.358 19.1992C101.358 18.8301 101.487 18.5254 101.745 18.2852C102.003 18.0449 102.349 17.9248 102.782 17.9248C103.21 17.9248 103.553 18.0449 103.811 18.2852C104.074 18.5254 104.206 18.8301 104.206 19.1992C104.206 19.5684 104.074 19.873 103.811 20.1133C103.553 20.3535 103.21 20.4736 102.782 20.4736C102.349 20.4736 102.003 20.3535 101.745 20.1133C101.487 19.873 101.358 19.5684 101.358 19.1992Z" fill="#333333"/>
<path d="M25 46.9375C38.8071 46.9375 50 36.4442 50 23.5C50 10.5558 38.8071 0.0625 25 0.0625C11.1929 0.0625 0 10.5558 0 23.5C0 36.4442 11.1929 46.9375 25 46.9375Z" fill="#2196F3"/>
<path d="M22.0835 20.3749L9.5835 37.953L28.3335 26.2343L22.0835 20.3749Z" fill="#FAFAFA"/>
<path d="M21.6667 20.7657L27.9167 26.6251L40.4167 9.047L21.6667 20.7657Z" fill="#F44336"/>
</svg>
