<svg width="106" height="108" viewBox="0 0 106 108" fill="none" xmlns="http://www.w3.org/2000/svg">
<g clip-path="url(#clip0_1_317)">
<path d="M44.9642 0.00872171C30.5914 0.248014 8.35387 5.39691 1.953 18.6284C-0.282484 23.2496 -0.131002 30.0433 0.171587 43.6308C0.260452 47.6246 0.408184 53.4455 1.44419 60.6679C3.59643 75.6714 5.06138 85.885 10.6062 91.8326C24.4998 106.735 74.6877 106.304 96.1194 79.4755C107.811 64.8403 109.609 44.021 98.9188 26.8151C87.1493 7.87146 64.2058 -0.311453 44.9642 0.00872171Z" fill="#F4F7FA"/>
<path d="M70.9949 57.125C71.0335 74.5009 61.7425 88.6807 45.1957 89.1473C44.94 89.1544 40.7172 89.1466 40.4596 89.1473C23.5566 89.1883 9.82197 74.9176 9.7826 57.2733C9.74323 39.629 23.4145 25.292 40.3175 25.2513C40.7127 25.2502 44.4233 25.2867 44.8147 25.3013C61.1722 25.9092 70.9559 39.8933 70.9941 57.1253L70.9949 57.125Z" fill="#3B5998"/>
<path d="M46.1109 89.4332C63.0142 89.4332 76.7171 75.1295 76.7171 57.485C76.7171 39.8405 63.0142 25.5368 46.1109 25.5368C29.2076 25.5368 15.5048 39.8405 15.5048 57.485C15.5048 75.1295 29.2076 89.4332 46.1109 89.4332Z" fill="#E7B134"/>
<path style="mix-blend-mode:multiply" opacity="0.3" d="M46.111 88.6281C62.5883 88.6281 75.9458 74.6849 75.9458 57.485C75.9458 40.2852 62.5883 26.3419 46.111 26.3419C29.6336 26.3419 16.2761 40.2852 16.2761 57.485C16.2761 74.6849 29.6336 88.6281 46.111 88.6281Z" fill="#ECA72B"/>
<path d="M46.1109 87.6881C62.0909 87.6881 75.0451 74.1657 75.0451 57.485C75.0451 40.8044 62.0909 27.282 46.1109 27.282C30.131 27.282 17.1767 40.8044 17.1767 57.485C17.1767 74.1657 30.131 87.6881 46.1109 87.6881Z" fill="#E7B134"/>
<path d="M45.4923 87.0425C61.1305 87.0425 73.8078 73.8092 73.8078 57.485C73.8078 41.1609 61.1305 27.9276 45.4923 27.9276C29.854 27.9276 17.1767 41.1609 17.1767 57.485C17.1767 73.8092 29.854 87.0425 45.4923 87.0425Z" fill="url(#paint0_linear_1_317)"/>
<path d="M48.4818 56.6386L70.0511 64.9531C70.7534 62.6041 71.1321 60.1061 71.1321 57.5156C71.1321 44.1775 61.0998 33.2852 48.4822 32.6128V56.6386H48.4818Z" fill="#E7B134"/>
<g style="mix-blend-mode:multiply" opacity="0.54">
<path d="M38.3827 56.8141C36.1435 49.6048 44.2395 44.4022 42.9628 35.9994C42.3996 32.2915 40.2076 29.2534 37.5121 26.8161C24.7688 30.7025 15.4726 43.0045 15.5048 57.5585C15.5442 75.2028 29.2784 89.4735 46.1818 89.4325C50.3262 89.4224 54.2756 88.551 57.8771 86.984C57.3551 76.7869 54.2085 71.0271 50.8624 67.5566C45.7052 62.2083 40.0899 62.3108 38.3827 56.8134V56.8141Z" fill="#D8DEE8"/>
</g>
<path d="M45.4128 59.8269C46.407 59.8269 47.2129 58.9855 47.2129 57.9476C47.2129 56.9097 46.407 56.0683 45.4128 56.0683C44.4186 56.0683 43.6126 56.9097 43.6126 57.9476C43.6126 58.9855 44.4186 59.8269 45.4128 59.8269Z" fill="#42B72A"/>
<path d="M45.4128 42.9713C44.7844 42.9713 44.2752 43.5032 44.2752 44.1588V56.8268C44.2752 57.4828 44.7847 58.0143 45.4128 58.0143C46.0408 58.0143 46.5504 57.4824 46.5504 56.8268V44.1588C46.5504 43.5028 46.0408 42.9713 45.4128 42.9713Z" fill="#42B72A"/>
<path d="M45.7067 57.7702L25.3226 51.8128C24.9634 51.7036 24.5686 51.9019 24.4407 52.2552C24.3133 52.6086 24.5007 52.9836 24.8603 53.0924L45.2444 59.0497C45.6036 59.1589 45.9985 58.9607 46.1263 58.6073C46.2538 58.254 46.0663 57.879 45.7067 57.7702Z" fill="#42B72A"/>
<path d="M99.9257 52.8714L97.388 35.8406L91.7153 36.4079C91.2369 36.3195 90.3269 36.8145 90.1116 37.3136L82.6624 54.5691C82.4318 55.1044 82.7857 55.7186 83.3219 55.7149L85.449 55.6262V95.8475C85.449 96.5642 85.9729 97.0786 86.6167 96.997L91.7161 98.1237C92.3261 98.0455 98.0363 94.9872 98.0363 94.2962V53.9776L99.3258 53.9709C99.8147 53.9683 100.136 53.3798 99.9268 52.8717L99.9257 52.8714Z" fill="#3B5998"/>
<path style="mix-blend-mode:multiply" opacity="0.3" d="M91.0753 55.4451L85.4487 55.6262V95.8475C85.4487 96.5643 85.9725 97.0786 86.6163 96.997L91.7157 98.1238C91.9665 98.0917 93.0854 97.5527 94.3126 96.8826L91.0753 55.4454V55.4451Z" fill="#3B5998"/>
<path d="M105.416 54.262L98.0434 36.2759C97.7948 35.6695 97.0479 35.6315 96.7978 36.2148L89.0393 54.3142C88.8109 54.8464 89.1611 55.4574 89.6917 55.454L91.0753 55.4451V97.0507C91.0753 97.7637 91.5938 98.2755 92.2316 98.1934L102.46 96.8785C103.059 96.8013 103.543 96.1818 103.543 95.4938V55.3653L104.821 55.3571C105.305 55.3541 105.624 54.7678 105.416 54.262H105.416Z" fill="#42B72A"/>
<path d="M75.3657 100.331L70.0384 99.101C69.3679 99.186 68.8228 98.6776 68.8228 97.965V65.1103C68.8228 64.3977 69.3679 63.8039 70.0384 63.7841L81.4618 63.4502C82.0891 63.4319 87.4022 63.7308 87.4022 63.7308L82.5964 96.2649C82.5964 96.9511 75.3661 100.332 75.3661 100.332L75.3657 100.331Z" fill="#3B5998"/>
<path d="M87.1262 98.8495L75.8123 100.304C75.1483 100.389 74.6083 99.8838 74.6083 99.1745V65.356C74.6083 64.6466 75.1483 64.0555 75.8123 64.0361L87.1262 63.7014C87.7475 63.6831 88.25 64.2217 88.25 64.905V97.4689C88.25 98.1517 87.7479 98.7701 87.1262 98.8498V98.8495Z" fill="#42B72A"/>
<path d="M57.5149 102.635L51.8965 101.403C51.1586 101.497 50.5583 100.967 50.5583 100.219L50.7282 77.1976C50.7282 76.4499 51.3285 75.808 52.066 75.7644L64.6161 75.0201C65.3042 74.9794 71.0778 75.7696 71.0778 75.7696L65.6949 98.3507C65.6949 99.0693 58.2115 102.546 57.5149 102.635Z" fill="#3B5998"/>
<path d="M70.278 101.015L57.8467 102.613C57.1159 102.707 56.5216 102.18 56.5216 101.436V77.6806C56.5216 76.9363 57.1159 76.2974 57.8467 76.2534L70.278 75.5076C70.9596 75.4666 71.5104 76.0134 71.5104 76.7287V99.561C71.5104 100.276 70.9596 100.927 70.278 101.015V101.015Z" fill="#42B72A"/>
<path d="M37.1398 104.984L31.8814 103.944C31.0651 104.047 30.401 103.494 30.401 102.707V90.7448C30.401 89.9584 31.0651 89.261 31.8814 89.1879L45.7412 87.9475C46.4998 87.8797 51.7514 88.4906 51.7514 88.4906L47.1128 100.644C47.1128 101.399 37.9088 104.885 37.1394 104.984H37.1398Z" fill="#3B5998"/>
<path d="M51.7518 103.397L38.0288 105.161C37.2207 105.265 36.5631 104.715 36.5631 103.932V91.2808C36.5631 90.4981 37.2204 89.8041 38.0288 89.731L51.7518 88.4906C52.5032 88.4227 53.1099 88.9766 53.1099 89.7273V101.863C53.1099 102.613 52.5028 103.3 51.7518 103.397Z" fill="#42B72A"/>
<path d="M25.0692 95.0972L9.68736 96.6757C9.03081 96.7432 8.46426 97.1543 8.20029 97.6903C8.09942 97.8949 8.04131 98.1174 8.04131 98.3466V104.92C8.04131 105.75 8.74772 106.429 9.68736 106.76L15.1227 107.834C15.9765 107.725 26.5881 103.972 26.5881 103.178L29.1371 100.129L31.7171 95.7864C31.7171 95.7864 25.9091 95.0103 25.0688 95.0968L25.0692 95.0972Z" fill="#3B5998"/>
<path d="M31.2841 106.028L16.0571 107.985C15.1587 108.101 14.4276 107.526 14.4276 106.7V99.0753C14.4276 98.2501 15.1587 97.505 16.0571 97.4118L31.2841 95.8322C32.1161 95.7457 32.788 96.3168 32.788 97.1066V104.404C32.788 105.194 32.1161 105.921 31.2841 106.028Z" fill="#42B72A"/>
</g>
<defs>
<linearGradient id="paint0_linear_1_317" x1="10.2753" y1="151.84" x2="64.89" y2="3.76122" gradientUnits="userSpaceOnUse">
<stop stop-color="#EBEFF2"/>
<stop offset="1" stop-color="white"/>
</linearGradient>
<clipPath id="clip0_1_317">
<rect width="106" height="108" fill="white"/>
</clipPath>
</defs>
</svg>
