<svg width="39" height="41" viewBox="0 0 39 41" fill="none" xmlns="http://www.w3.org/2000/svg">
<path d="M37.7146 6.08024C37.6666 6.0482 37.6188 6.0163 37.5709 5.98426C37.6723 5.89095 37.7742 5.79803 37.8766 5.70578C37.9466 5.64277 38.071 5.47301 37.947 5.39778C37.1335 4.90447 36.3202 4.41104 35.5067 3.91773C34.2112 3.13198 32.9156 2.34623 31.6201 1.56048C31.3241 1.38089 31.028 1.2013 30.732 1.02171C30.6152 0.950862 30.4084 1.06917 30.3312 1.15066C28.6262 2.9484 27.2424 5.04897 25.9665 7.17279C24.4495 9.6982 23.0932 12.3221 21.8125 14.9778C21.3625 15.9108 20.9226 16.8488 20.4913 17.7907C19.2959 20.0318 18.1458 22.2977 17.0423 24.5868C16.1259 26.4877 15.2419 28.4047 14.3899 30.3361C13.3074 28.2337 12.0238 26.229 10.6104 24.3464C10.4828 24.1764 10.3544 24.0067 10.2216 23.8408C10.1531 23.7553 10.0099 23.798 9.92948 23.8387C9.8218 23.8932 9.71412 23.9478 9.60645 24.0023C9.60199 23.9968 9.59754 23.9913 9.59295 23.9858C9.49916 23.8718 9.34642 23.7625 9.19919 23.7384C9.15321 23.7308 9.11627 23.7358 9.09426 23.7511C9.07893 23.753 9.06544 23.7576 9.05418 23.7651C8.03583 24.4533 7.01748 25.1414 5.99914 25.8295C4.6034 26.5366 3.20753 27.2437 1.81179 27.9507C1.71734 27.9005 1.62289 27.8504 1.52819 27.8008C1.32515 27.6943 0.833394 28.1203 1.05713 28.2377C1.15787 28.2905 1.25834 28.3438 1.35881 28.3974C1.37846 28.4585 1.43583 28.4754 1.49793 28.4718C3.49558 29.5449 5.42067 30.7555 7.25563 32.0951C7.5915 32.3402 7.92422 32.5897 8.25393 32.8433C9.73351 34.1497 11.1383 35.5459 12.4846 36.9897C13.3197 37.8853 14.1323 38.8019 14.9302 39.7318C14.9841 39.7948 15.374 40.1126 15.449 39.9591C15.4844 39.8867 15.52 39.8143 15.5555 39.742C15.5896 39.7814 15.6236 39.8206 15.6574 39.8601C15.804 40.0306 16.1113 39.778 16.1882 39.6434C17.3576 37.5943 18.4553 35.5037 19.5488 33.4122C20.7725 31.0713 21.9875 28.7256 23.24 26.4002C23.7651 25.4254 24.2966 24.4543 24.8372 23.4881C25.719 22.1442 26.6214 20.8142 27.5447 19.4994C29.066 17.3332 30.6434 15.2074 32.2762 13.1265C33.8894 11.0706 35.557 9.05828 37.279 7.09529C37.4957 6.84831 37.7133 6.60212 37.9316 6.3566C38.0036 6.27578 37.7473 6.10244 37.7147 6.08077L37.7146 6.08024ZM27.4584 18.2068C27.0248 18.9031 26.5994 19.6044 26.1806 20.31C25.1261 21.8416 24.0993 23.3929 23.101 24.9628C21.6796 27.1982 20.3157 29.4712 19.0122 31.7792C17.7503 34.0134 16.5452 36.2805 15.4002 38.5788C14.0213 37.0502 12.5501 35.6087 10.9973 34.2622C9.14482 32.6559 7.17585 31.1876 5.11139 29.874C4.51236 29.4927 3.90507 29.125 3.29045 28.7704C3.19403 28.7088 3.09736 28.6479 3.00043 28.5873C4.65527 27.4691 6.31012 26.3508 7.96509 25.2326C8.49313 24.9651 9.02117 24.6976 9.5492 24.4302C10.3574 25.4756 11.0838 26.5871 11.7756 27.7136C12.4113 28.7487 13.0173 29.8031 13.5952 30.8725C13.7062 31.0779 13.8169 31.2837 13.924 31.4912C13.9575 31.556 14.2409 31.7976 14.3913 31.8091C14.4594 31.9526 14.5266 32.0965 14.5926 32.241C14.6371 32.3385 14.8241 32.2728 14.8847 32.2432C15.0018 32.1857 15.1011 32.0906 15.1462 31.9659C15.4315 31.1775 15.7304 30.3941 16.031 29.6117C16.7874 27.6435 17.5795 25.6714 18.3967 23.7161C18.7747 22.8115 19.1587 21.9094 19.5493 21.0102C19.7869 20.5453 20.0265 20.0815 20.268 19.6187C22.3325 15.6633 24.5377 11.7836 26.8781 7.98992C28.1634 5.90637 29.4899 3.84914 30.8554 1.81876C31.0429 1.93255 31.2305 2.04634 31.418 2.16C31.9341 2.50455 32.4501 2.84911 32.9662 3.19366C34.2212 4.03152 35.4762 4.86951 36.7312 5.70737C36.8503 5.78686 36.9695 5.86649 37.0886 5.94598C35.3137 7.5995 33.6999 9.42835 32.2041 11.3431C30.4921 13.5342 28.9303 15.8437 27.4587 18.2065L27.4584 18.2068ZM37.3149 5.73701C37.2988 5.75177 37.2828 5.76652 37.2667 5.78128C36.8661 5.51382 36.4654 5.24637 36.0649 4.97891C36.2392 5.08459 36.4134 5.19027 36.5878 5.29608C36.8301 5.44311 37.0726 5.59013 37.3149 5.73715V5.73701ZM29.4635 2.72109C27.6938 5.39857 25.9925 8.12258 24.3621 10.8897C24.8571 9.95582 25.3671 9.03036 25.8955 8.1158C26.9722 6.25265 28.1207 4.40439 29.4635 2.72109ZM16.1953 27.9162C16.0271 28.3422 15.8602 28.7688 15.6946 29.1957C15.4396 29.8536 15.1876 30.5127 14.9399 31.1733C14.9207 31.2243 14.9011 31.2753 14.8813 31.3262C14.844 31.2479 14.8062 31.1698 14.7684 31.0917C15.2343 30.0287 15.7101 28.97 16.1954 27.916L16.1953 27.9162ZM3.63981 27.4238C3.22456 27.7044 2.80917 27.985 2.39392 28.2656C2.32725 28.2291 2.26057 28.1925 2.1939 28.1562C2.67582 27.912 3.15788 27.668 3.63981 27.4238ZM15.0089 39.3705C13.8989 38.0916 12.7578 36.8395 11.5716 35.6329C12.0026 36.0288 12.4269 36.4323 12.8437 36.8436C13.6172 37.6068 14.3656 38.3958 15.0883 39.2086C15.0617 39.2625 15.0354 39.3165 15.0089 39.3704V39.3705ZM19.4789 32.6097C18.3617 34.7508 17.2456 36.8937 16.0656 39.0001C16.028 39.0673 15.9902 39.1343 15.9524 39.2013C15.9247 39.1695 15.8969 39.1376 15.869 39.1058C16.8973 37.0354 17.9739 34.9898 19.0973 32.9708C19.7904 31.7251 20.5012 30.4897 21.2289 29.2645C20.6428 30.378 20.0611 31.494 19.4789 32.6097ZM30.1966 14.7507C30.7794 13.9033 31.3787 13.0679 31.9976 12.247C33.3614 10.4382 34.8199 8.69697 36.4164 7.09503C35.0135 8.70548 33.6466 10.3481 32.3162 12.0208C31.5991 12.9223 30.8927 13.8325 30.1967 14.7507H30.1966Z" fill="#42B72A" stroke="#42B72A"/>
<path d="M9.36247 25.9923C9.35251 25.9757 9.33693 25.9669 9.31558 25.966C9.251 25.9515 9.17856 25.9593 9.11463 25.9714C9.03263 25.987 8.94801 26.0081 8.87308 26.046C8.58934 26.1894 8.30863 26.3394 8.03157 26.4954C7.77221 26.6415 7.51611 26.7936 7.26356 26.9515C7.01192 27.1088 6.76381 27.2717 6.51938 27.4403C6.26172 27.618 6.00824 27.802 5.7587 27.9912C5.52108 28.1713 5.28738 28.3569 5.05801 28.5476C5.02959 28.5713 5.00116 28.5951 4.97287 28.6189C4.95466 28.6302 4.94523 28.6456 4.94457 28.6651C4.93842 28.6805 4.94366 28.693 4.96029 28.7025C4.98073 28.714 5.00247 28.7201 5.02553 28.7205C5.0571 28.7257 5.08893 28.7263 5.12089 28.722C5.20446 28.7143 5.28882 28.6968 5.36755 28.6671C5.43069 28.6433 5.49291 28.6162 5.54531 28.5721C5.79223 28.3643 6.04413 28.1626 6.30088 27.9674C6.36625 27.9176 6.43201 27.8683 6.49803 27.8194C6.79014 27.6042 7.08789 27.397 7.39128 27.1982C7.70134 26.9951 8.01703 26.8008 8.33784 26.6156C8.50669 26.5182 8.67711 26.4234 8.84871 26.331C8.97722 26.2624 9.10638 26.1951 9.23645 26.1295C9.26632 26.1172 9.29383 26.101 9.31885 26.0808C9.33876 26.069 9.35487 26.0529 9.36706 26.0327C9.37688 26.0162 9.37544 26.0028 9.36273 25.9923H9.36247Z" fill="#42B72A" stroke="#42B72A"/>
<path d="M33.8951 7.63898C34.0323 7.47534 34.1651 7.30732 34.284 7.12932C34.4036 6.95013 34.5173 6.75632 34.5728 6.54563C34.5993 6.44447 34.6155 6.34517 34.5797 6.2456C34.5414 6.13899 34.4816 6.04515 34.415 5.95449C34.2315 5.70471 33.9976 5.49216 33.7653 5.2905C33.5202 5.07768 33.2618 4.88015 32.9994 4.68992C32.7375 4.5001 32.4704 4.31772 32.2003 4.14026C31.9972 4.00666 31.7921 3.87612 31.5853 3.74824C31.4783 3.68218 31.371 3.61651 31.2628 3.55244C31.258 3.54951 31.2531 3.54672 31.2483 3.5438C31.2187 3.52638 31.146 3.47507 31.1044 3.48079C31.0666 3.48597 31.0807 3.52173 31.0943 3.54592C31.1267 3.60362 31.1766 3.65413 31.2243 3.69826C31.2859 3.75542 31.3514 3.81272 31.4238 3.85525C31.5256 3.91507 31.6264 3.97675 31.7269 4.0387C31.9716 4.18944 32.2139 4.34404 32.4535 4.50289C32.5252 4.55035 32.5966 4.59833 32.6676 4.64659C32.6849 4.65842 32.7023 4.67025 32.7196 4.68208C32.7198 4.68221 32.72 4.68234 32.7202 4.68248C32.7563 4.70734 32.7923 4.73233 32.8282 4.75745C32.9763 4.86127 33.123 4.96735 33.2675 5.07648C33.3033 5.1036 33.3391 5.13085 33.3746 5.15837C33.3835 5.16528 33.3922 5.17219 33.4011 5.1791C33.4061 5.18309 33.4112 5.18708 33.4162 5.19107C33.4822 5.24371 33.5476 5.29715 33.612 5.35178C33.6393 5.37491 33.6661 5.39831 33.6931 5.42184C33.7066 5.43407 33.7202 5.44629 33.7336 5.45866C33.7607 5.48378 33.7877 5.50904 33.8143 5.53483C33.8235 5.54373 33.8325 5.55264 33.8415 5.56155C33.865 5.58574 33.8881 5.61033 33.9107 5.63532C33.9188 5.64436 33.927 5.65353 33.9349 5.66257C33.953 5.68464 33.9707 5.70697 33.9877 5.72983C33.9942 5.73848 34.0003 5.74712 34.0066 5.75589C34.007 5.75642 34.0074 5.75695 34.0078 5.75762C34.0214 5.77889 34.0344 5.80069 34.0462 5.82302C34.0514 5.83286 34.0564 5.84269 34.0611 5.8528C34.0621 5.85492 34.0631 5.85705 34.064 5.85918C34.0762 5.89374 34.0868 5.92817 34.0894 5.96512C34.091 5.98759 34.089 6.00992 34.0861 6.03212C34.0603 6.19389 33.9911 6.34623 33.9125 6.48807C33.8241 6.64772 33.7195 6.79793 33.6093 6.94269C33.3601 7.26996 33.0853 7.57823 32.8208 7.89274C32.2145 8.61402 31.6081 9.33517 31.0017 10.0564C30.6605 10.4624 30.3191 10.8684 29.9779 11.2742C29.9573 11.2987 30.0114 11.3658 30.0193 11.3763C30.065 11.4372 30.1262 11.4945 30.1846 11.5423C30.2443 11.5913 30.3072 11.6416 30.3769 11.675C30.3997 11.6859 30.4613 11.7231 30.4835 11.6967C30.8646 11.2434 31.2456 10.7902 31.6267 10.3369C32.0061 9.88563 32.3856 9.43433 32.7649 8.98317C33.1416 8.53506 33.5192 8.08749 33.8953 7.63871L33.8951 7.63898ZM33.9947 5.73821C33.9957 5.74007 33.997 5.74193 33.9982 5.74379C33.9966 5.7414 33.9953 5.73941 33.9947 5.73821Z" fill="#42B72A" stroke="#42B72A"/>
</svg>
