<svg width="114" height="114" viewBox="0 0 114 114" fill="none" xmlns="http://www.w3.org/2000/svg">
<path d="M3.5625 96.1875H32.0625" stroke="#C46700" stroke-width="2" stroke-linecap="round" stroke-linejoin="round"/>
<path d="M53.4375 24.9375C53.4375 23.9927 53.0622 23.0865 52.3941 22.4184C51.726 21.7503 50.8198 21.375 49.875 21.375H14.25C13.3052 21.375 12.399 21.7503 11.7309 22.4184C11.0628 23.0865 10.6875 23.9927 10.6875 24.9375V92.625C10.6875 93.5698 11.0628 94.476 11.7309 95.1441C12.399 95.8122 13.3052 96.1875 14.25 96.1875H97.9688C98.9136 96.1875 99.8197 95.8122 100.488 95.1441C101.156 94.476 101.531 93.5698 101.531 92.625V32.0625C101.531 31.1177 101.156 30.2115 100.488 29.5434C99.8197 28.8753 98.9136 28.5 97.9688 28.5H57C56.0552 28.5 55.149 28.1247 54.4809 27.4566C53.8128 26.7885 53.4375 25.8823 53.4375 24.9375Z" fill="#C46700" stroke="#C46700" stroke-width="2" stroke-linecap="round" stroke-linejoin="round"/>
<path d="M94.4062 17.8125H43.3556L30.2812 30.3169V40.9688H94.4062V17.8125Z" fill="white" stroke="#CFD8DC" stroke-width="2" stroke-linecap="round" stroke-linejoin="round"/>
<path d="M30.2812 30.2812H42.75V17.8125L30.2812 30.2812Z" fill="#CFD8DC" stroke="#CFD8DC" stroke-width="2" stroke-linecap="round" stroke-linejoin="round"/>
<path d="M108.656 40.9688H24.9375C23.9927 40.9688 23.0865 41.3441 22.4184 42.0122C21.7503 42.6803 21.375 43.5864 21.375 44.5312L10.6875 92.625C10.6875 93.5698 11.0628 94.476 11.7309 95.1441C12.399 95.8122 13.3052 96.1875 14.25 96.1875H97.9688C98.9136 96.1875 99.8197 95.8122 100.488 95.1441C101.156 94.476 101.531 93.5698 101.531 92.625L112.219 44.5312C112.219 43.5864 111.843 42.6803 111.175 42.0122C110.507 41.3441 109.601 40.9688 108.656 40.9688Z" fill="#FDAD10" stroke="#FDAD10" stroke-width="2" stroke-linecap="round" stroke-linejoin="round"/>
<path opacity="0.1" d="M33.3806 40.9688H24.9375C23.9927 40.9688 23.0865 41.3441 22.4184 42.0122C21.7503 42.6803 21.375 43.5864 21.375 44.5312L10.6875 92.625C10.6875 93.5698 11.0628 94.476 11.7309 95.1441C12.399 95.8122 13.3052 96.1875 14.25 96.1875H23.6194L33.3806 40.9688Z" fill="#3B5998" stroke="#3B5998" stroke-width="2" stroke-miterlimit="10" stroke-linecap="round"/>
<path d="M56.7506 73.1559C57.9663 74.3164 59.404 75.2192 60.9773 75.8099C62.5507 76.4007 64.2272 76.6673 65.9062 76.5938C67.5697 76.6647 69.2306 76.4019 70.7908 75.8206C72.3511 75.2393 73.7791 74.3515 74.9906 73.2094" stroke="#54596E" stroke-width="2" stroke-linecap="round" stroke-linejoin="round"/>
<path d="M80.1562 64.125C82.1238 64.125 83.7188 62.53 83.7188 60.5625C83.7188 58.595 82.1238 57 80.1562 57C78.1887 57 76.5938 58.595 76.5938 60.5625C76.5938 62.53 78.1887 64.125 80.1562 64.125Z" fill="#3B5998"/>
<path d="M53.4375 64.125C55.405 64.125 57 62.53 57 60.5625C57 58.595 55.405 57 53.4375 57C51.47 57 49.875 58.595 49.875 60.5625C49.875 62.53 51.47 64.125 53.4375 64.125Z" fill="#3B5998"/>
<path d="M46.3125 71.25C48.28 71.25 49.875 69.655 49.875 67.6875C49.875 65.72 48.28 64.125 46.3125 64.125C44.345 64.125 42.75 65.72 42.75 67.6875C42.75 69.655 44.345 71.25 46.3125 71.25Z" fill="#42B72A"/>
<path d="M87.2812 71.25C89.2488 71.25 90.8438 69.655 90.8438 67.6875C90.8438 65.72 89.2488 64.125 87.2812 64.125C85.3137 64.125 83.7188 65.72 83.7188 67.6875C83.7188 69.655 85.3137 71.25 87.2812 71.25Z" fill="#42B72A"/>
</svg>
