<svg width="109" height="112" viewBox="0 0 109 112" fill="none" xmlns="http://www.w3.org/2000/svg">
<g clip-path="url(#clip0_1_198)">
<path d="M98.2546 81.4989L64.3879 78.4674C63.0699 78.35 62.0933 77.151 62.2097 75.7909L68.1382 5.24912C68.252 3.88903 69.4139 2.88125 70.732 3.00142L104.599 6.03295C105.917 6.15039 106.893 7.34935 106.777 8.70944L100.848 79.2512C100.734 80.6113 99.5726 81.6191 98.2546 81.4989Z" fill="url(#paint0_linear_1_198)"/>
<path d="M69.2551 56.7443C68.9958 56.6132 68.5485 57.1048 68.5352 57.2741C68.522 57.4434 69.3372 58.5905 69.398 58.6697C69.4589 58.7489 70.2053 58.8254 70.2873 58.7489C70.3694 58.6724 70.7584 56.7661 74.1726 53.1556C74.3526 52.9644 71.608 53.8848 69.8533 57.6892C69.8533 57.6892 69.4483 56.8399 69.2551 56.7443Z" fill="#42B72A"/>
<g style="mix-blend-mode:soft-light">
<path d="M99.1757 55.4506L76.9585 53.4609L76.8157 55.1588L99.0329 57.1484L99.1757 55.4506Z" fill="black"/>
<path d="M90.9966 59.6515L76.5445 58.3573L76.4018 60.0551L90.8538 61.3494L90.9966 59.6515Z" fill="black"/>
</g>
<path d="M72.619 31.222C71.8356 39.2514 78.095 45.5603 85.8761 46.366C93.6573 47.1744 100.599 41.3216 101.383 33.2922C102.166 25.2627 96.5289 17.7276 88.7478 16.9192C80.9666 16.1108 73.4024 23.1925 72.619 31.222Z" fill="#BB5F1B"/>
<path d="M98.1096 36.4215C101.361 29.0825 98.2318 20.413 91.1197 17.0576C84.0077 13.7022 75.6062 16.9315 72.3546 24.2705C69.1029 31.6095 72.2324 40.2791 79.3445 43.6345C86.4565 46.9899 94.858 43.7605 98.1096 36.4215Z" fill="#FFA519"/>
<path opacity="0.87" d="M93.0027 38.3663C97.292 33.9401 97.292 26.7638 93.0027 22.3375C88.7133 17.9113 81.7588 17.9113 77.4695 22.3375C73.1801 26.7638 73.1801 33.9401 77.4695 38.3663C81.7588 42.7926 88.7133 42.7926 93.0027 38.3663Z" fill="#FFE146"/>
<g style="mix-blend-mode:multiply" opacity="0.8">
<path d="M80.7575 30.1567L84.9128 33.6689L89.6794 31.0525L85.4421 28.2395L80.7575 30.1567Z" fill="#FFA519"/>
<path d="M80.3446 30.6703L84.4231 38.6834L89.9652 31.6699L84.7725 35.0947L80.3446 30.6703Z" fill="#FFA519"/>
<path d="M90.0632 30.6702L86.0508 22.0017L80.4426 29.6707L85.5083 27.5513L90.0632 30.6702Z" fill="#FFA519"/>
</g>
<g style="mix-blend-mode:multiply" opacity="0.27">
<path d="M93.1492 18.2356C91.8814 22.9768 90.132 27.6415 86.5643 31.0581C82.7319 34.7315 77.6583 36.5176 72.5079 36.7552C74.5881 41.1469 78.7566 44.3641 83.817 44.8912C91.5982 45.6996 98.5404 39.8469 99.3238 31.8174C99.8637 26.276 97.3282 21.1497 93.1492 18.2356Z" fill="#FFA519"/>
</g>
<g style="mix-blend-mode:soft-light" opacity="0.65">
<path d="M78.6719 19.9097C80.2467 18.7982 82.0808 18.1263 83.9891 18.0007C84.5978 17.9597 84.6031 16.9765 83.9891 17.0175C81.9167 17.154 79.9079 17.8505 78.1929 19.0631C77.69 19.4181 78.1664 20.2702 78.6746 19.9125L78.6719 19.9097Z" fill="#FFCD80"/>
</g>
<g style="mix-blend-mode:soft-light" opacity="0.65">
<path d="M87.84 17.6238C87.8214 17.5064 87.7473 17.4026 87.5938 17.3343C87.0751 17.1049 86.5087 16.9574 85.945 16.9192C85.3495 16.8782 85.3336 17.8614 85.945 17.9024C86.3393 17.9297 88.0041 18.6808 87.8373 17.6266L87.84 17.6238Z" fill="#FFCD80"/>
</g>
<g style="mix-blend-mode:soft-light" opacity="0.77">
<path d="M77.3989 24.5527C76.2714 26.1941 75.6574 28.1768 75.6203 30.1842C75.6045 30.9762 76.7955 30.9762 76.8113 30.1842C76.8457 28.3789 77.4174 26.6447 78.4284 25.1726C78.8625 24.539 77.8462 23.8999 77.3989 24.5527Z" fill="#F5CD00"/>
</g>
<g style="mix-blend-mode:soft-light" opacity="0.77">
<path d="M77.2348 32.97C77.1501 32.6586 76.9675 32.3363 76.9119 32.0769C76.7478 31.3258 75.5939 31.629 75.7633 32.4046C75.8532 32.8197 76.0015 33.2185 76.1841 33.5981C76.5361 34.33 77.4174 33.6391 77.2348 32.97Z" fill="#F5CD00"/>
</g>
<g style="mix-blend-mode:soft-light" opacity="0.44">
<path d="M65.6133 11.853L64.642 22.8976C66.1453 21.9444 89.9441 7.25108 98.1328 2.67101L85.4791 1.44202L65.6133 11.8557V11.853Z" fill="#42B72A"/>
</g>
<g style="mix-blend-mode:soft-light" opacity="0.44">
<path d="M107.55 22.8976L108.817 8.09501C108.899 7.10908 108.685 6.30886 108.201 5.47314L63.7765 33.7401L62.3182 50.744L107.55 22.8949V22.8976Z" fill="#42B72A"/>
</g>
<path d="M47.272 102.687L13.5456 107.087C12.2329 107.259 11.0339 106.3 10.8698 104.946L2.26554 34.696C2.0988 33.3413 3.02778 32.1041 4.34052 31.9348L38.0669 27.535C39.3796 27.3629 40.5786 28.3215 40.7427 29.6762L49.347 99.9257C49.5137 101.28 48.5847 102.518 47.272 102.687Z" fill="#3B5998"/>
<path d="M13.8685 84.7926C13.5879 84.7216 13.2518 85.2979 13.273 85.4672C13.2942 85.6366 14.3264 86.5815 14.4031 86.6443C14.4799 86.7099 15.2236 86.6225 15.2897 86.5296C15.3559 86.4368 15.3453 84.4868 17.947 80.218C18.0846 79.9914 15.5888 81.488 14.6493 85.5874C14.6493 85.5874 14.0802 84.8473 13.8738 84.7926H13.8685Z" fill="#42B72A"/>
<g style="mix-blend-mode:soft-light">
<path d="M42.8519 77.017L20.727 79.9012L20.934 81.592L43.0589 78.7078L42.8519 77.017Z" fill="black"/>
<path d="M35.7146 82.9023L21.3226 84.7784L21.5296 86.4692L35.9215 84.5931L35.7146 82.9023Z" fill="black"/>
</g>
<g style="mix-blend-mode:soft-light" opacity="0.65">
<path d="M25.2068 43.3072C27.2738 43.2935 29.3223 43.7742 31.175 44.7273C31.7229 45.0087 32.2045 44.162 31.6567 43.878C29.6532 42.8456 27.4485 42.3076 25.2068 42.324C24.5928 42.3294 24.5928 43.3126 25.2068 43.3072Z" fill="#FFCD80"/>
</g>
<g style="mix-blend-mode:soft-light" opacity="0.44">
<path d="M43.4899 35.9523L44.9323 46.9423C43.3893 46.0601 18.9871 32.4647 10.6105 28.2588L23.4759 26.5846L43.4899 35.9523Z" fill="#42B72A"/>
</g>
<g style="mix-blend-mode:soft-light" opacity="0.44">
<path d="M2.06704 48.8978L0.166739 34.1689C0.0423462 33.1857 0.222319 32.3773 0.672251 31.5225L46.163 57.6373L48.2512 74.663L2.06704 48.8978Z" fill="#42B72A"/>
</g>
<path d="M51.9279 35.1064C52.2703 35.0627 52.6114 35.1067 52.9537 35.1237C54.189 35.1905 55.5944 35.7423 55.7717 35.9644C55.8342 36.044 55.7668 36.1308 55.6963 36.1197C55.3558 36.0632 54.9472 35.8206 53.7148 35.584C52.5514 35.3604 52.0936 35.4776 51.7446 35.4434C51.6219 35.432 51.5375 35.5025 51.3822 35.4764C51.347 35.4709 51.3072 35.4729 51.2733 35.4833C51.1107 35.5347 49.4359 35.6761 48.1406 36.8569C47.5631 37.3835 47.1645 38.0499 47.052 38.3605C47.0068 38.4826 46.9591 38.555 47.0806 38.5933C47.5276 38.7359 48.4182 38.8804 48.8818 38.9322C49.219 38.9712 49.3004 38.9473 49.34 39.0844C49.3672 39.1782 49.2922 39.2782 49.1952 39.2821C48.8155 39.2955 47.3789 39.091 46.9156 38.859C46.7102 38.7556 46.6048 38.6016 46.6865 38.3778C47.3881 36.4565 49.3088 35.3903 51.3664 35.1496C51.5559 35.1279 51.744 35.1312 51.9317 35.1096L51.9279 35.1064Z" fill="#3B5998"/>
<path d="M49.2465 39.4476C49.2975 39.271 49.4578 39.252 49.4915 39.4634C49.4926 39.4758 49.4971 39.4879 49.4947 39.5006C49.4748 39.6348 49.5101 39.762 49.523 39.893C49.6091 40.7573 50.0442 41.5505 50.4724 41.9187C50.525 41.9637 50.5454 41.9581 50.561 41.8959C50.6194 41.6631 50.7659 40.2418 51.9309 38.887C53.023 37.616 54.5951 37.1142 55.5033 37.2538C55.5527 37.2616 55.6 37.2659 55.644 37.2921C55.7009 37.326 55.7031 37.4134 55.647 37.4492C55.581 37.4913 55.3063 37.5356 55.2547 37.5424C53.0206 37.8326 51.2032 39.7599 50.9207 41.9506C50.909 42.0376 50.8832 42.1223 50.8484 42.2043C50.7874 42.3461 50.6974 42.3923 50.5527 42.349C49.9404 42.1684 49.4602 41.2133 49.2851 40.5293C49.1937 40.1733 49.1446 39.8025 49.2451 39.4513L49.2465 39.4476Z" fill="#3B5998"/>
<path d="M55.5947 39.6435C55.7758 38.7509 56.0547 37.5989 56.1522 37.3359C56.1988 37.2099 56.271 37.0976 56.3973 37.1301C56.5344 37.1669 56.5407 37.3217 56.5078 37.466C56.214 38.7891 56.3713 38.1274 56.0571 39.3543C56.0467 39.3964 56.0366 39.4403 56.0299 39.4838C56.0281 39.5036 56.0437 39.5235 56.0655 39.5143C56.1042 39.4981 56.1423 39.4765 56.1786 39.4534C61.2558 36.2768 61.4538 36.1917 61.5246 36.3278C61.5869 36.4468 61.3656 36.5842 59.9023 37.5359C57.8987 38.8396 57.3993 39.143 56.0809 39.9575C55.9024 40.0676 55.7993 40.1436 55.6852 40.0295C55.6281 39.9725 55.5508 39.8621 55.595 39.6471L55.5947 39.6435Z" fill="#3B5998"/>
<path d="M55.2112 33.3465C55.2635 33.2665 55.3585 33.2788 55.4467 33.3132C56.258 33.6245 59.6796 35.0854 61.3422 35.8919C61.5782 36.0067 61.4946 36.1273 61.4212 36.1237C61.0003 36.1052 55.6333 33.7651 55.6126 33.8081C55.5905 33.8549 55.6534 33.9186 56.062 34.9333C56.117 35.0673 56.3741 35.734 56.4113 35.884C56.4464 36.0307 56.3085 36.1869 56.1756 36.0979C56.0668 36.0262 56.0376 35.9486 55.9637 35.7771C55.6933 35.1581 55.4416 34.5339 55.2115 33.8985C55.0751 33.524 55.1222 33.4855 55.2131 33.3481L55.2112 33.3465Z" fill="#3B5998"/>
<path d="M52.6986 36.0634C52.9667 36.1072 52.9151 36.2567 52.7507 36.2457C52.4462 36.2232 51.7317 36.2866 51.4029 36.3664C50.2596 36.6422 49.4359 37.3191 49.1083 37.8805C49.0932 37.9069 49.0801 37.9367 49.0595 37.9601C48.9357 38.1183 48.7601 37.9568 48.8106 37.8359C49.217 36.8745 50.2885 36.3094 51.2773 36.0983C51.858 35.9747 52.2699 35.9922 52.6969 36.0636L52.6986 36.0634Z" fill="#3B5998"/>
<path d="M56.0798 51.0917C55.7356 51.1024 55.4 51.0255 55.0609 50.9755C53.8378 50.7896 52.4867 50.1013 52.3292 49.8618C52.2739 49.776 52.3483 49.6956 52.4175 49.7134C52.7514 49.8028 53.1371 50.0852 54.3429 50.441C55.4813 50.777 55.9466 50.7037 56.2909 50.7717C56.412 50.7949 56.502 50.7324 56.6542 50.7735C56.6888 50.7824 56.7286 50.7842 56.7632 50.777C56.9293 50.7413 58.6074 50.761 59.9965 49.7027C60.6159 49.2308 61.0691 48.6015 61.2075 48.3012C61.2629 48.1832 61.3165 48.1153 61.1989 48.0653C60.7664 47.8794 59.8927 47.6488 59.436 47.5522C59.1039 47.4807 59.0208 47.4968 58.9931 47.3556C58.9741 47.2591 59.0572 47.1661 59.154 47.1715C59.5329 47.1947 60.9446 47.5379 61.3857 47.815C61.5812 47.9383 61.6729 48.1028 61.5726 48.3191C60.711 50.1764 58.7094 51.0595 56.6421 51.1024C56.4518 51.106 56.265 51.0845 56.0764 51.0881L56.0798 51.0917Z" fill="#3B5998"/>
<path d="M59.1195 47.0196C59.0537 47.1912 58.8928 47.1948 58.8773 46.9803C58.8773 46.9677 58.8738 46.9552 58.8773 46.9427C58.9084 46.8104 58.8842 46.6799 58.8825 46.5477C58.8703 45.6753 58.5053 44.8405 58.1109 44.4312C58.0624 44.3811 58.0417 44.3847 58.0209 44.4455C57.9431 44.6725 57.6767 46.0793 56.4034 47.3217C55.2097 48.4872 53.6043 48.8376 52.7133 48.6105C52.6649 48.598 52.6182 48.5891 52.5767 48.5587C52.523 48.5194 52.5282 48.4318 52.587 48.4014C52.6562 48.3656 52.933 48.3478 52.9849 48.346C55.2305 48.2709 57.2009 46.5191 57.668 44.3561C57.687 44.2703 57.7199 44.188 57.7614 44.1094C57.8341 43.9735 57.9275 43.936 58.0676 43.9932C58.661 44.2327 59.0572 45.2338 59.1731 45.9345C59.2336 46.2992 59.2509 46.6746 59.1212 47.016L59.1195 47.0196Z" fill="#3B5998"/>
<path d="M52.8119 46.2222C52.5559 47.0982 52.1805 48.2243 52.0611 48.4782C52.004 48.5997 51.9227 48.7052 51.7999 48.6605C51.6667 48.6104 51.6736 48.4549 51.7186 48.3137C52.1234 47.0177 51.9106 47.6648 52.3275 46.4671C52.3414 46.426 52.3552 46.3831 52.3656 46.3402C52.369 46.3205 52.3552 46.2991 52.3327 46.3063C52.2929 46.3188 52.2531 46.3366 52.2151 46.3563C46.8954 49.0466 46.6912 49.1128 46.6324 48.9698C46.5805 48.8446 46.8123 48.7284 48.3486 47.9169C50.4522 46.805 50.9747 46.5494 52.3552 45.8611C52.542 45.7682 52.651 45.702 52.7548 45.8272C52.8067 45.8897 52.8742 46.0077 52.8119 46.2187L52.8119 46.2222Z" fill="#3B5998"/>
<path d="M52.6493 52.5432C52.5905 52.6183 52.4971 52.5968 52.4123 52.5539C51.6321 52.1642 48.3538 50.3731 46.7691 49.406C46.5442 49.2683 46.6376 49.1557 46.7103 49.1665C47.1272 49.2254 52.2653 52.0838 52.2895 52.0427C52.3154 51.998 52.2583 51.9283 51.9383 50.8736C51.895 50.7342 51.6961 50.0424 51.6719 49.8886C51.6494 49.7385 51.7999 49.5955 51.9245 49.6974C52.0265 49.7796 52.049 49.86 52.1078 50.0388C52.3241 50.6841 52.5213 51.333 52.696 51.9908C52.7998 52.3787 52.7497 52.4127 52.6476 52.5414L52.6493 52.5432Z" fill="#3B5998"/>
<path d="M55.3948 50.0566C55.1318 49.9869 55.1958 49.8421 55.3584 49.8689C55.6595 49.9208 56.3757 49.9261 56.7096 49.8779C57.8704 49.7116 58.7475 49.1128 59.1212 48.5819C59.1385 48.5568 59.154 48.5282 59.1765 48.5068C59.3132 48.3602 59.4741 48.539 59.4135 48.6551C58.9274 49.5793 57.8133 50.0423 56.8116 50.1585C56.2234 50.2264 55.8152 50.1692 55.3965 50.0566L55.3948 50.0566Z" fill="#3B5998"/>
<path d="M95.2087 42.3022C101.188 37.0431 101.883 27.711 96.7602 21.4583C91.6378 15.2055 82.638 14.4001 76.6587 19.6592C70.6794 24.9183 69.9848 34.2505 75.1072 40.5032C80.2296 46.7559 89.2293 47.5613 95.2087 42.3022Z" fill="#EBB044"/>
<path opacity="0.1" d="M87.0407 14.9799C78.442 14.2717 70.9751 20.86 70.3642 29.6988C69.7535 38.536 76.2277 46.2753 84.8279 46.9837C93.4265 47.6919 100.893 41.1035 101.504 32.2648C102.115 23.4276 95.6409 15.6882 87.0407 14.9799ZM85.0131 44.2947C77.8581 43.7052 72.4709 37.2655 72.9791 29.9136C73.4875 22.5601 79.7005 17.0778 86.854 17.6672C94.009 18.2567 99.3963 24.6963 98.888 32.0483C98.3797 39.4018 92.1667 44.8841 85.0131 44.2947Z" fill="#2D2A27"/>
<path d="M87.1534 13.3384C77.6726 12.5566 69.4399 19.8226 68.7656 29.5664C68.0914 39.3101 75.2314 47.8432 84.7122 48.625C94.1929 49.4068 102.426 42.1408 103.1 32.397C103.774 22.6533 96.6341 14.1202 87.1534 13.3384ZM84.9181 45.6608C77.03 45.011 71.0894 37.912 71.6499 29.8035C72.2103 21.6966 79.0594 15.6511 86.949 16.3012C94.8372 16.951 100.778 24.05 100.217 32.1585C99.6568 40.2654 92.8078 46.3108 84.9181 45.6608Z" fill="#F9CC5D"/>
<path d="M80.9352 35.0153C80.6216 34.3657 80.6267 33.3298 81.6864 33.2943C82.5684 33.2634 83.412 34.0254 84.1754 34.4827C84.8022 34.8593 85.5104 35.0825 86.2969 35.1522C87.139 35.2269 87.8298 35.0762 88.3707 34.7002C88.9101 34.3241 89.2064 33.7925 89.2579 33.1067C89.3095 32.4209 89.1425 31.898 88.7563 31.5677C88.3686 31.2372 87.6791 31.0281 86.6863 30.9401L86.0309 30.882C84.4098 30.7384 83.2006 30.2806 82.4031 29.5102C81.6057 28.7398 81.2567 27.6928 81.3562 26.3692C81.4557 25.0455 81.9447 24.1086 82.8286 23.467C83.7125 22.8253 84.9055 22.5711 86.4076 22.7042C87.0192 22.7584 87.6351 22.9189 88.255 23.1858C89.5434 23.741 91.5557 24.9947 91.0843 26.343C90.3419 28.4714 88.2948 25.4007 87.5082 24.9695C87.048 24.7167 86.4954 24.5618 85.8521 24.5048C85.1048 24.4386 84.4885 24.5881 83.9998 24.9547C83.5127 25.3213 83.2449 25.8181 83.1977 26.4451C83.1506 27.0721 83.3517 27.5247 83.8019 27.8295C84.2506 28.1358 85.2486 28.3769 86.7945 28.5529C88.4435 28.7489 89.6251 29.2105 90.3377 29.9391C91.0504 30.6677 91.3548 31.7232 91.2508 33.1056C91.1469 34.4881 90.65 35.4492 89.7481 36.1687C88.8462 36.8883 87.6805 37.1839 86.2492 37.0571C85.7957 37.0169 85.2964 36.9212 84.7482 36.7682C83.6087 36.4522 81.8723 36.3092 81.1068 35.2954C81.0393 35.2052 80.9825 35.1129 80.9366 35.0169L80.9352 35.0153Z" fill="#F9CC5D"/>
<path d="M85.5001 40.5322L85.4816 40.5306C84.9767 40.4867 84.6052 39.9745 84.6503 39.386L86.0414 21.2222C86.0864 20.6337 86.5324 20.1926 87.0358 20.2364L87.0543 20.238C87.5593 20.2819 87.9307 20.7941 87.8857 21.3826L86.4946 39.5465C86.4495 40.135 86.0035 40.576 85.5001 40.5322Z" fill="#F9CC5D"/>
<path opacity="0.08" d="M39.3151 66.1936C44.868 58.1478 43.1659 47.0473 35.5134 41.3999C27.8608 35.7525 17.1558 37.6968 11.6029 45.7425C6.05004 53.7883 7.75214 64.8888 15.4046 70.5362C23.0572 76.1836 33.7622 74.2393 39.3151 66.1936Z" fill="#2D2A27"/>
<path d="M36.1943 63.6184C40.8346 56.9005 39.4516 47.6651 33.1052 42.9904C26.7588 38.3157 17.8523 39.972 13.212 46.6899C8.57166 53.4077 9.95468 62.6432 16.3011 67.3179C22.6474 71.9926 31.5539 70.3363 36.1943 63.6184Z" fill="#EBB044"/>
<path opacity="0.1" d="M22.2015 39.4468C13.6516 41.0559 7.83928 49.3941 9.22058 58.0687C10.6019 66.7432 18.6514 72.4712 27.2025 70.8603C35.7522 69.2496 41.5648 60.9129 40.1832 52.2369C38.8019 43.5623 30.7524 37.8343 22.2013 39.4452L22.2015 39.4468ZM26.7819 68.2225C19.6677 69.5625 12.9696 64.7965 11.8206 57.5798C10.6714 50.3617 15.5078 43.4246 22.6206 42.0848C29.7348 40.7448 36.4329 45.5108 37.5819 52.7275C38.7311 59.9457 33.8947 66.8827 26.7819 68.2225Z" fill="#2D2A27"/>
<path d="M21.9457 37.8353C12.5188 39.6103 6.11049 48.804 7.63263 58.3686C9.15476 67.9332 18.0317 74.2482 27.4586 72.4732C36.8855 70.6983 43.2938 61.5046 41.7717 51.94C40.2495 42.3753 31.3726 36.0603 21.9457 37.8353ZM26.9964 69.5633C19.1532 71.0407 11.7676 65.7872 10.5004 57.8279C9.2334 49.8702 14.5645 42.2211 22.4092 40.7435C30.2523 39.2661 37.6379 44.5196 38.9052 52.4788C40.1722 60.4366 34.841 68.0856 26.9964 69.5633Z" fill="#F9CC5D"/>
<path d="M30.5262 54.9672C30.0172 54.4786 29.307 54.1565 28.3957 54.001C28.8807 53.5933 29.2191 53.1257 29.4137 52.5963C29.6085 52.0684 29.6543 51.4842 29.5509 50.8438C29.3471 49.5719 28.749 48.6851 27.7578 48.1816C26.7665 47.678 25.4265 47.5843 23.7375 47.9003L23.1284 48.0135C23.0365 47.437 22.9432 46.8622 22.8513 46.2857C22.7666 45.7565 21.8246 45.9329 21.9093 46.4621C22.0013 47.0386 22.0945 47.6134 22.1865 48.1899L21.5744 48.3036C21.4824 47.7271 21.3892 47.1523 21.2972 46.5758C21.2125 46.0466 20.2706 46.223 20.3553 46.7522C20.4473 47.3288 20.5405 47.9035 20.6325 48.48L18.159 48.9425C17.8875 48.9931 17.6936 49.1066 17.5743 49.2835C17.4549 49.4604 17.4178 49.69 17.4631 49.9736C17.5159 50.3062 17.641 50.5174 17.836 50.6108C18.031 50.7043 18.4365 50.6922 19.0486 50.5785L19.443 50.5042L21.1986 61.4507L20.8042 61.5251C20.1428 61.6492 19.7333 61.786 19.5772 61.935C19.4214 62.0855 19.3685 62.3226 19.4199 62.646C19.4664 62.9373 19.5706 63.1429 19.7341 63.2624C19.8961 63.3822 20.1173 63.416 20.3963 63.3641L22.9419 62.8886C23.0338 63.4651 23.1271 64.0398 23.2191 64.6164C23.3037 65.1456 24.2457 64.9692 24.161 64.44C24.069 63.8634 23.9758 63.2887 23.8838 62.7121L24.4959 62.5984C24.5879 63.175 24.6811 63.7497 24.7731 64.3263C24.8578 64.8555 25.7997 64.679 25.715 64.1498C25.623 63.5733 25.5298 62.9986 25.4378 62.422L25.7486 62.3659L26.7759 62.1725C27.6518 62.008 28.3207 61.8322 28.7834 61.6404C29.2448 61.4503 29.6528 61.204 30.0064 60.9048C30.5973 60.3932 31.023 59.8016 31.2847 59.1267C31.5464 58.4517 31.6183 57.7467 31.4998 57.0086C31.3602 56.1331 31.0347 55.4528 30.5257 54.9642L30.5262 54.9672ZM24.2808 49.6021C25.2047 49.4289 25.944 49.4899 26.4998 49.7818C27.0557 50.0737 27.3916 50.5811 27.5072 51.3009C27.6291 52.0619 27.446 52.6755 26.9594 53.1432C26.4727 53.6093 25.6623 53.9487 24.5314 54.1608L24.125 54.2373C23.8861 52.7474 23.6469 51.2559 23.4079 49.766L24.2793 49.6023L24.2808 49.6021ZM22.4657 49.9409C22.7047 51.4308 22.9439 52.9223 23.1829 54.4122L22.5708 54.5259C22.3318 53.036 22.0926 51.5445 21.8536 50.0546L22.4657 49.9409ZM23.6079 61.0029C23.3411 59.3423 23.0758 57.6813 22.8092 56.0222L23.4213 55.9085C23.6881 57.5692 23.9534 59.2301 24.22 60.8892L23.6079 61.0029ZM28.7987 59.4376C28.2477 59.9373 27.2228 60.3264 25.7243 60.6065L25.1632 60.711C24.8964 59.0503 24.6311 57.3894 24.3645 55.7303L25.0454 55.6026C26.5184 55.3271 27.5798 55.3253 28.2265 55.596C28.8732 55.8668 29.2691 56.4528 29.4122 57.3512C29.5557 58.2417 29.3513 58.9377 28.7985 59.4361L28.7987 59.4376Z" fill="#F9CC5D"/>
</g>
<defs>
<linearGradient id="paint0_linear_1_198" x1="93.6706" y1="-5.25745" x2="76.3727" y2="78.838" gradientUnits="userSpaceOnUse">
<stop stop-color="#FF43BB"/>
<stop offset="1" stop-color="#954BFF"/>
</linearGradient>
<clipPath id="clip0_1_198">
<rect width="109" height="112" fill="white"/>
</clipPath>
</defs>
</svg>
