<svg width="30" height="30" viewBox="0 0 30 30" fill="none" xmlns="http://www.w3.org/2000/svg">
<path d="M14.9816 0C22.7533 0 29.0268 6.46305 29.0268 14.4695C29.0268 22.476 22.7532 28.939 14.9816 28.939C7.21001 28.939 0.936378 22.476 0.936378 14.4695C0.936378 6.46305 7.2099 0 14.9816 0Z" fill="#2394BC"/>
<path d="M17.416 29.7107C24.5322 28.4567 29.9631 22.1866 29.9631 14.4695L29.8695 14.6625C30.0568 13.2155 30.0568 11.865 29.7759 10.8039C29.6823 11.672 29.5886 12.1544 29.4013 12.3473C29.4013 12.2509 29.4013 11.3827 29.1204 10.2252C29.0268 9.35703 28.8395 8.48879 28.5586 7.71708C28.6522 8.10288 28.6522 8.39236 28.6522 8.68174C27.5286 5.69133 24.9068 1.92932 18.2588 2.02574C18.2588 2.02574 20.5996 2.31512 21.6296 3.95496C21.6296 3.95496 20.506 3.66558 19.6632 4.14791C20.6932 4.53372 21.6296 5.01605 22.3787 5.49838H22.4723C22.6596 5.5948 22.8468 5.78776 23.0341 5.88418C24.4386 6.94526 25.7495 8.39226 25.6558 10.2251C25.2813 9.6463 24.9067 9.26039 24.3449 9.16397C25.0004 11.7685 25.0004 13.8906 24.5322 15.5306C24.1577 14.3731 23.8767 13.7942 23.5958 13.5048C23.9703 16.9775 23.5022 19.4856 22.0041 21.1254C22.285 20.1607 22.3786 19.2926 22.3786 18.6173C20.5995 21.3182 18.6332 22.7652 16.3859 22.8617C15.5433 22.8617 14.7005 22.7652 13.8578 22.4759C12.7342 22.0901 11.7042 21.4148 10.7679 20.4501C12.1725 20.5465 13.5769 20.3537 14.7006 19.6784L16.5732 18.4244C16.8541 18.3279 17.0414 18.3279 17.3223 18.4244C17.7905 18.3279 17.9778 18.135 17.7905 17.6527C17.6032 17.3633 17.2287 17.0739 16.7605 16.7845C15.8242 16.3022 14.7942 16.3987 13.7642 17.0739C12.7342 17.6527 11.7979 17.6527 10.8615 16.9775C10.2997 16.5917 9.64423 16.0128 9.08244 15.2411L8.89515 14.8553C8.80155 15.7234 8.89515 16.6881 9.26963 18.0386C8.89515 16.7845 8.80145 15.7234 8.89515 14.8553C8.89515 14.18 9.17604 13.6978 9.73782 13.6978H9.55053H9.83142C10.4869 13.7942 11.1423 13.8907 11.9851 14.1801C12.0787 13.4084 11.9851 12.5403 11.4233 11.672C12.1724 10.9003 12.8278 10.418 13.3896 10.1286C13.6705 10.0322 13.7641 9.74283 13.8578 9.45334C14.0451 9.06754 13.9514 8.87459 13.7642 8.68164C13.2024 8.68164 12.7342 8.68164 12.1725 8.58521C11.9852 8.48879 11.7043 8.29583 11.3298 8.00646L10.4871 7.13832L10.2062 6.94537L10.1126 6.84895L10.2062 6.75252C10.2998 6.07724 10.4871 5.49848 10.768 5.01615L10.8616 4.91973C11.1425 4.4374 11.7043 3.95507 12.4533 3.37631C10.9552 3.56927 9.64433 4.24444 8.42706 5.40206C7.49069 5.11268 6.27342 5.20911 4.96256 5.78786C4.11988 5.40206 3.558 4.24444 3.27711 2.31523C2.15364 3.37631 1.68545 5.40206 1.68545 8.19952L1.40456 8.68185L1.31097 8.77827C1.12367 9.06765 0.936477 9.45356 0.655483 9.93578C0.280995 10.7075 0.0936992 11.2862 0.0936992 11.865V12.058C0.0936992 12.1544 0.0936992 12.3473 0.0936992 12.4438L0.936375 11.7685C0.655483 12.6366 0.374591 13.5048 0.280892 14.373V14.7588L0 14.4696C0 17.7494 1.02997 20.8362 2.71542 23.3442L2.80902 23.4406L2.90262 23.5371C4.11988 25.2734 5.71164 26.7203 7.58439 27.8779C8.89525 28.6496 10.2998 29.2284 11.798 29.6143L12.0789 29.7107C12.3598 29.8071 12.7343 29.8071 13.0152 29.9037C13.2961 29.9037 13.4834 30.0001 13.7643 30.0001H14.0452H14.5134H14.9816H15.3561H16.0116C16.386 30.0001 16.7606 29.9037 17.1351 29.9037C17.1351 29.7107 17.416 29.7107 17.416 29.7107Z" fill="#EC8840"/>
</svg>
