<svg width="49" height="51" viewBox="0 0 49 51" fill="none" xmlns="http://www.w3.org/2000/svg">
<path d="M47.6141 26.973C47.6141 37.403 39.1622 46.2446 28.3789 46.7375C17.1797 47.2495 7.77861 38.6239 7.77861 27.4537C7.77861 16.2836 17.1797 7.43108 28.3789 7.6728C39.1622 7.90543 47.6141 16.5429 47.6141 26.973Z" fill="#3B5998"/>
<path d="M48.8662 26.973C48.8662 37.403 40.4142 46.2446 29.6309 46.7375C18.4317 47.2495 9.03064 38.6239 9.03064 27.4537C9.03064 16.2836 18.4317 7.43108 29.6309 7.6728C40.4142 7.90543 48.8662 16.5429 48.8662 26.973Z" fill="url(#paint0_linear_1_1002)"/>
<path d="M47.6759 26.9875C47.6759 36.8149 39.7035 45.1301 29.5519 45.5737C19.0325 46.0335 10.2211 37.9213 10.2211 27.4396C10.2211 16.9578 19.0327 8.63283 29.5519 8.8387C39.7035 9.03743 47.6759 17.1601 47.6759 26.9875Z" fill="#3B5998"/>
<g style="mix-blend-mode:multiply" opacity="0.3">
<path style="mix-blend-mode:multiply" opacity="0.3" d="M20.9511 18.8198C20.2889 16.6613 20.3193 13.3829 23.5488 8.53931C15.2179 10.9393 9.03064 18.4939 9.03064 27.5308C9.03064 38.701 18.4317 47.3264 29.6309 46.8146C33.7604 46.6259 37.5411 45.2164 40.6306 42.9798C40.5348 40.0008 39.8867 36.7399 38.0642 33.7322C33.0527 25.462 23.0291 25.5922 20.9511 18.82V18.8198Z" fill="#3B5998"/>
</g>
<path d="M17.842 24.2768V33.9658H15.9294V26.4815L13.6317 27.212V25.7046L17.6361 24.2768H17.842Z" fill="white"/>
<path d="M27.4979 28.2812V29.9547C27.4979 30.6808 27.4204 31.3072 27.2654 31.8341C27.1105 32.3565 26.8869 32.7859 26.5947 33.1224C26.3069 33.4545 25.9638 33.7002 25.5654 33.8596C25.1669 34.0189 24.7242 34.0986 24.2372 34.0986C23.8476 34.0986 23.4845 34.0499 23.1481 33.9525C22.8116 33.8507 22.5083 33.6935 22.2383 33.481C21.9726 33.2685 21.7424 33.0007 21.5476 32.6775C21.3572 32.3499 21.2111 31.9603 21.1093 31.5087C21.0075 31.0571 20.9566 30.5391 20.9566 29.9547V28.2812C20.9566 27.5551 21.0341 26.9331 21.189 26.4151C21.3484 25.8927 21.572 25.4655 21.8597 25.1334C22.1519 24.8014 22.4973 24.5579 22.8957 24.4029C23.2942 24.2436 23.7369 24.1639 24.2239 24.1639C24.6135 24.1639 24.9743 24.2148 25.3064 24.3166C25.6428 24.414 25.9461 24.5667 26.2162 24.7748C26.4862 24.9829 26.7164 25.2508 26.9068 25.5784C27.0972 25.9016 27.2433 26.289 27.3451 26.7405C27.4469 27.1877 27.4979 27.7012 27.4979 28.2812ZM25.5786 30.2071V28.0222C25.5786 27.6725 25.5587 27.367 25.5189 27.1058C25.4834 26.8446 25.4281 26.6232 25.3528 26.4417C25.2776 26.2557 25.1846 26.1052 25.0739 25.9901C24.9632 25.875 24.8371 25.7909 24.6954 25.7378C24.5537 25.6846 24.3966 25.6581 24.2239 25.6581C24.007 25.6581 23.8144 25.7001 23.6461 25.7842C23.4823 25.8684 23.3429 26.0034 23.2278 26.1893C23.1127 26.3709 23.0241 26.6144 22.9621 26.9198C22.9046 27.2209 22.8758 27.5883 22.8758 28.0222V30.2071C22.8758 30.5568 22.8935 30.8645 22.9289 31.1302C22.9688 31.3958 23.0263 31.6238 23.1016 31.8142C23.1813 32.0001 23.2742 32.1529 23.3805 32.2724C23.4912 32.3875 23.6174 32.4716 23.759 32.5247C23.9051 32.5779 24.0645 32.6044 24.2372 32.6044C24.4497 32.6044 24.6378 32.5624 24.8017 32.4783C24.9699 32.3897 25.1116 32.2525 25.2267 32.0665C25.3462 31.8761 25.4347 31.6282 25.4923 31.3227C25.5499 31.0173 25.5786 30.6454 25.5786 30.2071Z" fill="white"/>
<path d="M35.3075 28.2812V29.9547C35.3075 30.6808 35.2301 31.3072 35.0751 31.8341C34.9201 32.3565 34.6966 32.7859 34.4044 33.1224C34.1166 33.4545 33.7735 33.7002 33.375 33.8596C32.9766 34.0189 32.5339 34.0986 32.0469 34.0986C31.6573 34.0986 31.2942 34.0499 30.9578 33.9525C30.6213 33.8507 30.318 33.6935 30.0479 33.481C29.7823 33.2685 29.5521 33.0007 29.3573 32.6775C29.1669 32.3499 29.0208 31.9603 28.919 31.5087C28.8172 31.0571 28.7663 30.5391 28.7663 29.9547V28.2812C28.7663 27.5551 28.8437 26.9331 28.9987 26.4151C29.1581 25.8927 29.3816 25.4655 29.6694 25.1334C29.9616 24.8014 30.3069 24.5579 30.7054 24.4029C31.1039 24.2436 31.5466 24.1639 32.0336 24.1639C32.4232 24.1639 32.784 24.2148 33.116 24.3166C33.4525 24.414 33.7558 24.5667 34.0258 24.7748C34.2959 24.9829 34.5261 25.2508 34.7165 25.5784C34.9069 25.9016 35.053 26.289 35.1548 26.7405C35.2566 27.1877 35.3075 27.7012 35.3075 28.2812ZM33.3883 30.2071V28.0222C33.3883 27.6725 33.3684 27.367 33.3285 27.1058C33.2931 26.8446 33.2378 26.6232 33.1625 26.4417C33.0873 26.2557 32.9943 26.1052 32.8836 25.9901C32.7729 25.875 32.6467 25.7909 32.5051 25.7378C32.3634 25.6846 32.2062 25.6581 32.0336 25.6581C31.8166 25.6581 31.6241 25.7001 31.4558 25.7842C31.292 25.8684 31.1526 26.0034 31.0374 26.1893C30.9223 26.3709 30.8338 26.6144 30.7718 26.9198C30.7143 27.2209 30.6855 27.5883 30.6855 28.0222V30.2071C30.6855 30.5568 30.7032 30.8645 30.7386 31.1302C30.7784 31.3958 30.836 31.6238 30.9113 31.8142C30.991 32.0001 31.0839 32.1529 31.1902 32.2724C31.3009 32.3875 31.427 32.4716 31.5687 32.5247C31.7148 32.5779 31.8742 32.6044 32.0469 32.6044C32.2594 32.6044 32.4475 32.5624 32.6113 32.4783C32.7796 32.3897 32.9212 32.2525 33.0363 32.0665C33.1559 31.8761 33.2444 31.6282 33.302 31.3227C33.3595 31.0173 33.3883 30.6454 33.3883 30.2071Z" fill="white"/>
<path d="M36.5826 26.6675V26.1561C36.5826 25.7887 36.6623 25.4544 36.8217 25.1534C36.981 24.8523 37.2157 24.611 37.5256 24.4295C37.8355 24.248 38.2162 24.1572 38.6678 24.1572C39.1327 24.1572 39.5201 24.248 39.83 24.4295C40.1443 24.611 40.379 24.8523 40.5339 25.1534C40.6933 25.4544 40.773 25.7887 40.773 26.1561V26.6675C40.773 27.0261 40.6933 27.3559 40.5339 27.657C40.379 27.958 40.1465 28.1993 39.8366 28.3808C39.5267 28.5623 39.1437 28.6531 38.6877 28.6531C38.2273 28.6531 37.8399 28.5623 37.5256 28.3808C37.2157 28.1993 36.981 27.958 36.8217 27.657C36.6623 27.3559 36.5826 27.0261 36.5826 26.6675ZM37.851 26.1561V26.6675C37.851 26.8224 37.8798 26.9707 37.9373 27.1124C37.9993 27.2497 38.0923 27.3626 38.2162 27.4511C38.3446 27.5352 38.4996 27.5773 38.6811 27.5773C38.8715 27.5773 39.0264 27.5352 39.146 27.4511C39.2655 27.3626 39.354 27.2497 39.4116 27.1124C39.4692 26.9707 39.4979 26.8224 39.4979 26.6675V26.1561C39.4979 25.9923 39.4669 25.8418 39.405 25.7046C39.3474 25.5629 39.2566 25.45 39.1327 25.3659C39.0131 25.2773 38.8582 25.233 38.6678 25.233C38.4907 25.233 38.3402 25.2773 38.2162 25.3659C38.0923 25.45 37.9993 25.5629 37.9373 25.7046C37.8798 25.8418 37.851 25.9923 37.851 26.1561ZM41.2046 32.1064V31.595C41.2046 31.232 41.2843 30.8999 41.4437 30.5989C41.6075 30.2978 41.8444 30.0565 42.1543 29.875C42.4686 29.6935 42.8538 29.6028 43.3098 29.6028C43.7702 29.6028 44.1554 29.6935 44.4653 29.875C44.7752 30.0565 45.0099 30.2978 45.1692 30.5989C45.3286 30.8999 45.4083 31.232 45.4083 31.595V32.1064C45.4083 32.4694 45.3286 32.8014 45.1692 33.1025C45.0143 33.4036 44.7819 33.6448 44.472 33.8264C44.162 34.0079 43.7791 34.0986 43.3231 34.0986C42.8626 34.0986 42.4753 34.0079 42.1609 33.8264C41.8466 33.6448 41.6075 33.4036 41.4437 33.1025C41.2843 32.8014 41.2046 32.4694 41.2046 32.1064ZM42.4797 31.595V32.1064C42.4797 32.2657 42.5151 32.4163 42.5859 32.5579C42.6568 32.6996 42.7542 32.8125 42.8781 32.8966C43.0065 32.9807 43.1548 33.0228 43.3231 33.0228C43.5356 33.0228 43.7016 32.9807 43.8211 32.8966C43.9407 32.8125 44.0226 32.6996 44.0669 32.5579C44.1156 32.4163 44.1399 32.2657 44.1399 32.1064V31.595C44.1399 31.4356 44.1089 31.2873 44.0469 31.1501C43.985 31.0084 43.892 30.8955 43.768 30.8114C43.6485 30.7228 43.4957 30.6786 43.3098 30.6786C43.1239 30.6786 42.9689 30.7228 42.8449 30.8114C42.7254 30.8955 42.6346 31.0084 42.5727 31.1501C42.5107 31.2873 42.4797 31.4356 42.4797 31.595ZM43.7813 25.678L39.0596 33.2353L38.1299 32.7439L42.8516 25.1866L43.7813 25.678Z" fill="white"/>
<mask id="mask0_1_1002" style="mask-type:luminance" maskUnits="userSpaceOnUse" x="0" y="0" width="44" height="33">
<path d="M26.2659 0C7.50417 0 5.3811 16.0266 5.3811 16.0266H0V17.483L10.5781 32.0311L23.5035 15.143H18.4125L25.6168 6.69818C25.6168 6.69818 33.8961 8.17761 36.7538 9.13737C40.4467 10.4989 43.351 13.5887 43.351 13.5887C43.351 13.5887 40.4669 0.000356593 26.2658 0.000356593L26.2659 0Z" fill="white"/>
</mask>
<g mask="url(#mask0_1_1002)">
<path d="M42.9548 16.4177V16.4786C42.395 15.7507 41.3922 14.7396 40.7918 14.1539C40.7805 14.128 40.7618 14.1022 40.7505 14.0763C40.4155 13.311 39.9635 12.4827 39.3733 11.6558C38.7871 10.8267 38.0422 10.0105 37.1737 9.25893C37.0697 9.16153 36.9495 9.07536 36.8384 8.98331C36.7816 8.93835 36.7244 8.89197 36.6667 8.84702L36.5825 8.77851C36.5529 8.75568 36.5224 8.73516 36.4928 8.71304C36.3736 8.62706 36.2545 8.54018 36.1344 8.45259L36.0449 8.38711L35.9505 8.32628C35.888 8.28525 35.8258 8.24404 35.7633 8.20372C35.5172 8.03389 35.2515 7.8869 34.9925 7.73169C34.8605 7.65623 34.7222 7.58701 34.5879 7.51548C34.5215 7.47962 34.4536 7.44305 34.3856 7.40808C34.316 7.37526 34.2457 7.3419 34.1769 7.30908C33.0669 6.77532 31.8561 6.38927 30.6143 6.1768C30.4591 6.15236 30.3041 6.1281 30.1473 6.10366C29.9914 6.08315 29.833 6.07012 29.6779 6.05264L29.4428 6.02749L29.207 6.01536L28.9711 6.00162C28.8928 5.99787 28.8152 5.9902 28.736 5.99181C28.5792 5.9911 28.4226 5.98949 28.2651 5.98878C28.2267 5.98878 28.1851 5.98646 28.1491 5.98878L28.0444 5.99413L27.835 6.00483L27.6269 6.01464C27.6086 6.01536 27.5957 6.01536 27.5718 6.01696L27.3583 6.03213L27.0728 6.05121L26.8593 6.06638L26.8233 6.0687L26.8104 6.06941C26.8104 6.06941 26.736 6.06941 26.8609 6.07173L26.3994 6.13649C26.3234 6.1479 26.2467 6.15468 26.1707 6.17074L25.9445 6.21409L25.7181 6.25673L25.6054 6.27813C25.5677 6.28491 25.531 6.29562 25.4942 6.304C25.3463 6.33986 25.1985 6.37482 25.0513 6.41139C24.9769 6.42656 24.905 6.451 24.8329 6.47151L24.6171 6.53627L24.4012 6.59799L24.1902 6.67185C24.0494 6.72216 23.9087 6.76622 23.772 6.81956C23.6361 6.87433 23.4994 6.92927 23.3642 6.98475C22.2887 7.44002 21.3218 8.02872 20.499 8.70091L20.3438 8.82418L20.1966 8.95584C20.099 9.04271 19.9983 9.12567 19.9055 9.21469C19.9016 9.21772 19.8984 9.22236 19.8942 9.22539C19.7135 9.40361 19.5303 9.57112 19.368 9.7554C19.3248 9.80036 19.2824 9.84603 19.2408 9.89169L19.1767 9.95877L19.1175 10.0303C19.0383 10.1233 18.96 10.2169 18.8817 10.309C18.8624 10.3318 18.8417 10.3539 18.8225 10.3775L18.7689 10.449C18.7322 10.497 18.6961 10.545 18.6601 10.5914C18.5898 10.6873 18.5129 10.7756 18.4498 10.8747C17.9157 11.636 17.5086 12.3974 17.2319 13.1239C16.9527 13.8487 16.7873 14.5287 16.6921 15.1294C16.6817 15.2048 16.6712 15.2787 16.6608 15.3516C16.6521 15.4239 16.6369 15.4947 16.6337 15.5655C16.6218 15.7072 16.6096 15.8419 16.5977 15.9707C16.5897 16.1016 16.5897 16.2272 16.5841 16.3453C16.5818 16.4047 16.5777 16.4625 16.577 16.5182C16.5793 16.5753 16.5809 16.6309 16.5818 16.6841C16.5834 16.7915 16.585 16.8926 16.5866 16.9872C16.5859 17.0137 16.5907 17.0275 16.5923 17.0459C16.5947 17.0633 16.5972 17.0808 16.5995 17.0976C16.6027 17.1311 16.6075 17.1265 16.6107 17.157C16.613 17.1829 16.6162 17.195 16.6187 17.195H21.883L18.6844 20.5718L11.2482 28.3154L0.612457 17.195H6.2046C6.21262 17.195 6.22136 17.1037 6.23011 17.0321C6.25169 16.8776 6.27488 16.7267 6.30039 16.5433C6.31484 16.452 6.32751 16.3667 6.34285 16.2684C6.35088 16.2204 6.35802 16.1748 6.36604 16.1244C6.37318 16.075 6.38049 16.0217 6.39084 15.9783C6.43009 15.7941 6.47076 15.6 6.51393 15.3929C6.53712 15.2901 6.5596 15.185 6.58351 15.0769C6.6092 14.9688 6.63952 14.8591 6.66985 14.7465C6.73068 14.5219 6.78973 14.2859 6.86341 14.0429C6.94172 13.8016 7.02343 13.5511 7.10727 13.2906C7.14813 13.1597 7.20164 13.0311 7.25124 12.8978C7.30154 12.7669 7.35364 12.632 7.40644 12.495C7.84065 11.41 8.43328 10.2283 9.22571 9.0404C10.0149 7.85175 11.0202 6.66775 12.2133 5.56991C12.358 5.42897 12.518 5.30035 12.6723 5.16566C12.7506 5.09948 12.8282 5.0324 12.9065 4.96533L13.0257 4.86489L13.1472 4.76891C13.3111 4.64172 13.4767 4.5131 13.6413 4.38447L13.766 4.2885L13.8955 4.19716C13.9828 4.13543 14.0691 4.0746 14.1562 4.01359C14.4976 3.76455 14.8648 3.53995 15.2294 3.30857C15.4133 3.19583 15.6037 3.09075 15.7931 2.98193C15.8866 2.92859 15.9819 2.87525 16.077 2.82049C16.1745 2.77018 16.2721 2.72005 16.3695 2.66974C17.9257 1.85805 19.645 1.24205 21.4299 0.873488C21.653 0.831565 21.8776 0.788928 22.1015 0.747006C22.3254 0.707402 22.5534 0.679929 22.7789 0.647283L23.118 0.601614L23.4595 0.569682L23.8 0.538463C23.9137 0.528651 24.0264 0.516342 24.1408 0.512595C24.3678 0.502784 24.5958 0.476738 24.8236 0.466926C24.8797 0.464607 24.9371 0.444092 24.994 0.444092H25.1651L25.5049 0.462288L25.8448 0.472992C25.9582 0.472992 26.0719 0.487441 26.1846 0.492793L26.8604 0.531684C27.014 0.534003 26.9132 0.53543 26.9523 0.536322L26.9697 0.538641L27.0058 0.542387L27.0761 0.551485L27.2184 0.568254L27.5015 0.601793L27.6439 0.618562L27.7142 0.626946L27.8014 0.638363L28.1596 0.688671L28.5178 0.740405L28.6953 0.766986C28.7537 0.776084 28.8058 0.788393 28.8616 0.798919C29.08 0.84316 29.2981 0.887938 29.5165 0.931466C29.6253 0.951982 29.7324 0.981773 29.8396 1.00835L30.1619 1.08988L30.4818 1.17141L30.7976 1.26667C31.007 1.33143 31.2173 1.39226 31.4228 1.46237C31.6283 1.53551 31.8322 1.60865 32.0361 1.68162C33.654 2.29387 35.13 3.11074 36.3991 4.06176C36.4791 4.12045 36.5583 4.17985 36.6375 4.23837C36.7151 4.2992 36.7911 4.36092 36.8671 4.42336C37.0191 4.54663 37.1718 4.66544 37.3181 4.79193C37.6067 5.05006 37.8946 5.2975 38.1578 5.56545C38.2248 5.63092 38.2905 5.6971 38.3577 5.76186L38.456 5.85926L38.5504 5.96059C38.676 6.09617 38.7998 6.23086 38.9222 6.36412L39.0141 6.46456L39.102 6.56802C39.1587 6.63724 39.2171 6.70592 39.274 6.77443C39.3874 6.91233 39.5068 7.04327 39.609 7.18563C40.1888 7.93096 40.6797 8.68628 41.0859 9.43108C41.2843 9.79269 41.4609 10.1529 41.617 10.5084C42.0992 11.5941 42.4087 12.6274 42.6037 13.5479C42.6253 13.6637 42.6485 13.7771 42.6701 13.889C42.6908 14.0001 42.7156 14.1091 42.7293 14.2179C42.7596 14.4349 42.7901 14.6429 42.8181 14.843C42.8422 15.0441 42.8549 15.2375 42.8726 15.421C42.8797 15.5124 42.8893 15.6016 42.8949 15.6899C42.8981 15.7768 42.9173 15.862 42.9213 15.9457C42.9261 16.1116 42.9541 16.2709 42.9541 16.4177H42.9548Z" fill="url(#paint1_linear_1_1002)"/>
<path style="mix-blend-mode:multiply" opacity="0.4" d="M42.9549 16.4177V16.4785C42.395 15.7507 41.3923 14.7396 40.7918 14.1539C40.7806 14.128 40.7618 14.1022 40.7506 14.0763C40.4156 13.311 39.9635 12.4827 39.3734 11.6558C38.7872 10.8266 38.0422 10.0105 37.1738 9.25891C37.0698 9.16151 36.9496 9.07535 36.8384 8.98329C36.7817 8.93834 36.7244 8.89196 36.6668 8.847L36.5826 8.7785C36.553 8.75566 36.5225 8.73515 36.4929 8.71303C36.3737 8.62704 36.2545 8.54016 36.1345 8.45257L36.0449 8.3871L35.9505 8.32627C35.8881 8.28524 35.8258 8.24403 35.7634 8.20371C35.5172 8.03388 35.2516 7.88688 34.9926 7.73168C34.8606 7.65622 34.7223 7.587 34.588 7.51546C34.5216 7.47961 34.4536 7.44303 34.3857 7.40807C34.3161 7.37524 34.2458 7.34188 34.1769 7.30906C33.067 6.7753 31.8562 6.38926 30.6144 6.17679C30.4592 6.15235 30.3042 6.12809 30.1474 6.10365C29.9914 6.08313 29.833 6.07011 29.678 6.05263L29.4429 6.02747L29.207 6.01534L28.9712 6.00161C28.8929 5.99786 28.8153 5.99019 28.7361 5.99179C28.5793 5.99108 28.4226 5.98947 28.2651 5.98876C28.2268 5.98876 28.1852 5.98644 28.1492 5.98876L28.0444 5.99411L27.835 6.00482L27.627 6.01463C27.6086 6.01534 27.5958 6.01534 27.5719 6.01695L27.3583 6.03211L27.0729 6.0512L26.8594 6.06636L26.8233 6.06868L26.8105 6.0694C26.8105 6.0694 26.7361 6.0694 26.861 6.07172L26.3995 6.13647C26.3235 6.14789 26.2468 6.15467 26.1708 6.17072L25.9446 6.21407L25.7182 6.25671L25.6054 6.27812C25.5678 6.2849 25.531 6.2956 25.4943 6.30399C25.3464 6.33984 25.1985 6.37481 25.0513 6.41138C24.977 6.42654 24.9051 6.45098 24.833 6.4715L24.6171 6.53625L24.4013 6.59798L24.1902 6.67183C24.0495 6.72214 23.9087 6.76621 23.7721 6.81955C23.6361 6.87431 23.4995 6.92926 23.3643 6.98474C22.2887 7.44 21.3218 8.0287 20.4991 8.7009L20.3439 8.82417L20.1967 8.95582C20.0991 9.0427 19.9983 9.12565 19.9055 9.21467C19.9016 9.2177 19.8984 9.22234 19.8943 9.22538C22.2573 6.43939 26.0853 4.62939 30.4051 4.62939C34.725 4.62939 38.741 6.52912 41.0872 9.43089C41.2856 9.79249 41.4622 10.1527 41.6183 10.5082C42.1005 11.5939 42.41 12.6272 42.605 13.5477C42.6266 13.6635 42.6498 13.7769 42.6714 13.8888C42.6921 13.9999 42.7169 14.1089 42.7306 14.2177C42.7609 14.4347 42.7914 14.6427 42.8194 14.8428C42.8435 15.0439 42.8562 15.2373 42.8739 15.4208C42.881 15.5122 42.8906 15.6014 42.8962 15.6897C42.8994 15.7766 42.9186 15.8618 42.9226 15.9455C42.9274 16.1114 42.9554 16.2707 42.9554 16.4175L42.9549 16.4177Z" fill="url(#paint2_linear_1_1002)"/>
</g>
<path d="M3.84288 48.4231V50.0488C3.84288 50.5742 7.12463 51 11.1728 51C15.2209 51 18.5026 50.5742 18.5026 50.0488V48.4231H3.84288Z" fill="url(#paint3_linear_1_1002)"/>
<path d="M18.5025 48.4229C18.5025 48.9483 15.2207 49.3741 11.1726 49.3741C7.12448 49.3741 3.84273 48.9483 3.84273 48.4229C3.84273 47.8975 7.12448 47.4717 11.1726 47.4717C15.2207 47.4717 18.5025 47.8975 18.5025 48.4229Z" fill="#FFDB44"/>
<path d="M11.1728 49.4399C7.58765 49.4399 3.83868 49.0974 3.83868 48.437C3.83868 48.4008 3.85171 48.3369 3.88792 48.3369C3.92414 48.3369 3.90862 48.3869 3.90862 48.4231C3.90862 48.842 6.89191 49.3086 11.1728 49.3086C15.4538 49.3086 18.4371 48.842 18.4371 48.4231C18.4371 48.3869 18.4433 48.3528 18.4795 48.3528C18.5157 48.3528 18.507 48.4011 18.507 48.4375C18.507 49.0979 14.758 49.4399 11.1728 49.4399Z" fill="url(#paint4_linear_1_1002)"/>
<path d="M10.4801 48.476C10.552 48.4262 10.6285 48.3772 10.7104 48.3286C10.7916 48.2803 10.8972 48.2364 11.0253 48.1973C11.1541 48.1583 11.3152 48.1265 11.5084 48.1017C11.7018 48.0771 11.9435 48.0641 12.2321 48.0626C12.5154 48.0612 12.7811 48.0703 13.0299 48.0896C13.2781 48.1088 13.4969 48.1379 13.686 48.1765C13.8743 48.215 14.028 48.2626 14.1467 48.3194C14.2644 48.3763 14.3345 48.4412 14.3572 48.5145L15.1824 48.5229C15.2424 48.5233 15.2953 48.5281 15.3407 48.5375C15.3867 48.547 15.4092 48.5588 15.4092 48.5732L15.4095 48.6412L14.3484 48.631C14.3111 48.7143 14.2164 48.7903 14.0639 48.8594C13.9123 48.9286 13.7183 48.9883 13.4821 49.0388L13.0957 48.9851C13.0611 48.9798 13.0328 48.9732 13.0105 48.965C12.9882 48.9569 12.9775 48.948 12.9773 48.9384C12.9773 48.9254 13.0071 48.9104 13.0668 48.8936C13.1266 48.8768 13.194 48.856 13.2691 48.8313C13.3442 48.8067 13.4179 48.7775 13.4905 48.7438C13.5626 48.7102 13.6108 48.6699 13.6357 48.6232L11.1313 48.5984C11.0654 48.6467 10.9912 48.6943 10.91 48.7411C10.8282 48.7878 10.7201 48.8299 10.5852 48.8672C10.4503 48.9047 10.2823 48.9348 10.0812 48.9582C9.87946 48.9814 9.62685 48.9939 9.32144 48.9953C9.09185 48.9964 8.8685 48.9876 8.64961 48.9692C8.43072 48.9507 8.23627 48.923 8.06643 48.8861C7.8966 48.8492 7.75746 48.8035 7.6481 48.7491C7.53964 48.6947 7.47862 48.6323 7.46596 48.5616L6.78645 48.5547C6.72651 48.5543 6.67353 48.5497 6.6259 48.5406C6.57898 48.5315 6.55508 48.5195 6.55508 48.5044L6.55472 48.4364L7.48362 48.4453C7.52465 48.3738 7.60885 48.3113 7.73765 48.2582C7.86628 48.205 8.02344 48.1577 8.20915 48.1163L8.52027 48.1592C8.61482 48.1724 8.66174 48.1879 8.66174 48.2057C8.66174 48.2154 8.64265 48.2273 8.60358 48.2416C8.5638 48.2558 8.51777 48.273 8.46408 48.2928C8.41127 48.3126 8.35918 48.3359 8.30941 48.3625C8.25892 48.3891 8.22146 48.4194 8.19631 48.4532L10.4796 48.4758L10.4801 48.476ZM8.1881 48.5686C8.20683 48.6132 8.2484 48.6515 8.31155 48.6838C8.3747 48.7161 8.45302 48.7427 8.54757 48.7636C8.64211 48.7844 8.74808 48.7996 8.86564 48.8094C8.98392 48.8192 9.10755 48.8237 9.23653 48.8231C9.38691 48.8224 9.51821 48.8158 9.63024 48.8037C9.74156 48.7914 9.83968 48.7748 9.92477 48.7538C10.0092 48.7327 10.0835 48.7084 10.1463 48.6806C10.2091 48.6528 10.265 48.6226 10.3156 48.5902L8.18828 48.5686H8.1881ZM13.64 48.5077C13.6215 48.4626 13.5758 48.423 13.5052 48.3889C13.4343 48.355 13.3435 48.3263 13.2336 48.3033C13.1237 48.2801 12.9955 48.263 12.8487 48.2516C12.7027 48.2403 12.5415 48.235 12.3649 48.2359C12.2082 48.2366 12.0725 48.2437 11.9595 48.2569C11.8468 48.2703 11.7485 48.288 11.665 48.3104C11.5822 48.3327 11.5109 48.3588 11.4534 48.3886C11.3953 48.4184 11.3409 48.4503 11.2911 48.4842L13.6397 48.5076L13.64 48.5077Z" fill="#FFDB44"/>
<path d="M11.1738 47.5747C7.90565 47.5747 4.5026 47.8623 3.95831 48.4191C3.97954 48.4387 3.99934 48.4595 4.01772 48.4817C4.47655 48.0951 7.28644 47.706 11.1738 47.706C15.0612 47.706 18.016 48.1154 18.3617 48.5115C18.3787 48.4897 18.3969 48.469 18.4165 48.4494C17.9669 47.873 14.5 47.5747 11.1737 47.5747H11.1738Z" fill="#FFDB44"/>
<path d="M1.80519 46.7153V48.341C1.80519 48.8664 5.08694 49.2922 9.13507 49.2922C13.1832 49.2922 16.4649 48.8664 16.4649 48.341V46.7153H1.80519Z" fill="#FFDB44"/>
<path d="M16.4653 46.7154C16.4653 47.2407 13.1835 47.6666 9.13541 47.6666C5.08727 47.6666 1.80553 47.2407 1.80553 46.7154C1.80553 46.19 5.08727 45.7642 9.13541 45.7642C13.1835 45.7642 16.4653 46.19 16.4653 46.7154Z" fill="#FFDB44"/>
<path d="M9.13497 47.7322C5.54978 47.7322 1.80081 47.3896 1.80081 46.7292C1.80081 46.693 1.81383 46.6292 1.85005 46.6292C1.88626 46.6292 1.87074 46.6789 1.87074 46.7153C1.87074 47.1342 4.85404 47.6009 9.13497 47.6009C13.4159 47.6009 16.3992 47.1342 16.3992 46.7153C16.3992 46.6791 16.4054 46.645 16.4417 46.645C16.4779 46.645 16.4691 46.6934 16.4691 46.7298C16.4691 47.3902 12.7202 47.7322 9.13497 47.7322Z" fill="#FFDB44"/>
<path d="M8.4424 46.7685C8.5143 46.7187 8.59083 46.6696 8.67271 46.6211C8.75388 46.5728 8.85949 46.5289 8.98758 46.4898C9.11638 46.4507 9.27747 46.419 9.47085 46.3942C9.66423 46.3696 9.90595 46.3566 10.1946 46.3551C10.4779 46.3537 10.7435 46.3628 10.9924 46.3821C11.2405 46.4013 11.4594 46.4304 11.6485 46.4689C11.8369 46.5075 11.9905 46.5551 12.1091 46.6118C12.2269 46.6687 12.297 46.7337 12.3196 46.807L13.1449 46.8154C13.2048 46.8157 13.2578 46.8206 13.3031 46.83C13.3493 46.8395 13.3716 46.8512 13.3716 46.8657L13.372 46.9337L12.3109 46.9235C12.2736 47.0068 12.1789 47.0828 12.0264 47.1518C11.8747 47.2209 11.6808 47.2806 11.4446 47.3313L11.0582 47.2776C11.0236 47.2723 10.9952 47.2657 10.9729 47.2574C10.9506 47.2494 10.9398 47.2405 10.9398 47.2309C10.9398 47.2178 10.9695 47.2029 11.0293 47.1863C11.0891 47.1695 11.1565 47.1486 11.2316 47.124C11.3067 47.0994 11.3802 47.0701 11.453 47.0364C11.5251 47.0027 11.5732 46.9626 11.5982 46.9158L9.0939 46.891C9.02807 46.9394 8.95386 46.987 8.87269 47.0337C8.79081 47.0805 8.6827 47.1226 8.54784 47.1599C8.41297 47.1972 8.24492 47.2275 8.04387 47.2508C7.84211 47.274 7.5895 47.2865 7.28409 47.288C7.05449 47.289 6.83114 47.2805 6.61225 47.2619C6.39336 47.2434 6.19909 47.2157 6.02908 47.1788C5.85925 47.1418 5.7201 47.0962 5.61075 47.0418C5.50228 46.9874 5.44127 46.9249 5.4286 46.8543L4.7491 46.8473C4.68916 46.847 4.63618 46.8423 4.58854 46.8332C4.54163 46.8241 4.5179 46.8122 4.51772 46.797L4.51736 46.729L5.44627 46.738C5.4873 46.6664 5.5715 46.604 5.7003 46.5508C5.82892 46.4977 5.98609 46.4504 6.1718 46.409L6.48292 46.4516C6.57747 46.4648 6.62438 46.4804 6.62438 46.4982C6.62438 46.5078 6.6053 46.5198 6.56623 46.5341C6.52644 46.5483 6.48042 46.5655 6.42672 46.5853C6.37392 46.6051 6.32183 46.6284 6.27205 46.655C6.22157 46.6816 6.18411 46.7117 6.15895 46.7456L8.44222 46.7683L8.4424 46.7685ZM6.15039 46.8611C6.16912 46.9057 6.21069 46.944 6.27384 46.9763C6.33699 47.0086 6.41531 47.0352 6.50985 47.056C6.6044 47.0769 6.71037 47.0921 6.82793 47.1019C6.94621 47.1115 7.06984 47.1162 7.19881 47.1156C7.3492 47.1149 7.4805 47.1083 7.59253 47.0962C7.70385 47.0839 7.80197 47.0673 7.88706 47.0464C7.97144 47.0254 8.04565 47.0011 8.10863 46.9733C8.17142 46.9454 8.22726 46.9153 8.27792 46.8828L6.15039 46.8614V46.8611ZM11.6023 46.8002C11.5836 46.7551 11.5381 46.7155 11.4674 46.6814C11.3966 46.6475 11.306 46.6188 11.1959 46.5958C11.086 46.5726 10.9578 46.5555 10.8111 46.5442C10.6652 46.533 10.5039 46.5276 10.3273 46.5285C10.1707 46.5292 10.0349 46.5364 9.92201 46.5496C9.80926 46.563 9.71097 46.5806 9.62748 46.6031C9.5447 46.6254 9.47335 46.6514 9.4159 46.6812C9.35775 46.711 9.30334 46.7428 9.25356 46.7769L11.6021 46.8002H11.6023Z" fill="#FFDB44"/>
<path d="M9.13615 45.8672C5.86796 45.8672 2.46491 46.1548 1.92062 46.7115C1.94185 46.7311 1.96165 46.7522 1.98003 46.7741C2.43886 46.3876 5.24875 45.9985 9.13615 45.9985C13.0236 45.9985 15.9783 46.4079 16.324 46.8039C16.341 46.7822 16.3592 46.7615 16.3788 46.7419C15.9292 46.1655 12.4623 45.8672 9.13597 45.8672H9.13615Z" fill="#FFDB44"/>
<path d="M3.56351 45.0127V46.6384C3.56351 47.1638 6.84526 47.5896 10.8934 47.5896C14.9415 47.5896 18.2233 47.1638 18.2233 46.6384V45.0127H3.56351Z" fill="url(#paint5_linear_1_1002)"/>
<path d="M18.2233 45.0127C18.2233 45.5381 14.9416 45.9639 10.8934 45.9639C6.84532 45.9639 3.56357 45.5381 3.56357 45.0127C3.56357 44.4873 6.84532 44.0615 10.8934 44.0615C14.9416 44.0615 18.2233 44.4873 18.2233 45.0127Z" fill="#FFDB44"/>
<path d="M10.8935 46.0293C7.30827 46.0293 3.55931 45.6869 3.55931 45.0263C3.55931 44.9901 3.57233 44.9263 3.60855 44.9263C3.64476 44.9263 3.62924 44.976 3.62924 45.0124C3.62924 45.4313 6.61254 45.898 10.8935 45.898C15.1744 45.898 18.1577 45.4313 18.1577 45.0124C18.1577 44.9762 18.1639 44.9421 18.2002 44.9421C18.2364 44.9421 18.2276 44.9905 18.2276 45.0269C18.2276 45.6873 14.4787 46.0293 10.8935 46.0293Z" fill="#FFDB44"/>
<path d="M10.2006 45.0656C10.2725 45.0158 10.349 44.9668 10.4309 44.9182C10.512 44.8699 10.6176 44.826 10.7457 44.7869C10.8745 44.7479 11.0356 44.7161 11.229 44.6913C11.4224 44.6667 11.6641 44.6537 11.9528 44.6522C12.236 44.6508 12.5017 44.6599 12.7505 44.6792C12.9987 44.6984 13.2176 44.7275 13.4067 44.7661C13.5951 44.8046 13.7487 44.8522 13.8673 44.909C13.985 44.9659 14.0551 45.0308 14.0778 45.1041L14.903 45.1125C14.963 45.1129 15.016 45.1177 15.0613 45.1271C15.1075 45.1366 15.1298 45.1484 15.1298 45.1628L15.1301 45.2308L14.0691 45.2206C14.0318 45.3039 13.937 45.3799 13.7845 45.449C13.6329 45.518 13.439 45.5778 13.2028 45.6284L12.8164 45.5747C12.7818 45.5694 12.7534 45.5628 12.7311 45.5546C12.7088 45.5465 12.6979 45.5376 12.6979 45.528C12.6979 45.515 12.7277 45.5 12.7875 45.4834C12.8472 45.4666 12.9147 45.4457 12.9898 45.4211C13.0649 45.3965 13.1384 45.3672 13.2112 45.3335C13.2832 45.2998 13.3314 45.2597 13.3564 45.2129L10.8519 45.1881C10.7861 45.2365 10.7118 45.2841 10.6307 45.3309C10.5488 45.3776 10.4407 45.4197 10.3058 45.457C10.1709 45.4943 10.0029 45.5246 9.80185 45.548C9.60009 45.5713 9.34748 45.5836 9.04207 45.5851C8.81247 45.5861 8.58912 45.5776 8.37023 45.559C8.15134 45.5405 7.95689 45.5128 7.78706 45.4759C7.61723 45.439 7.47808 45.3933 7.36873 45.3389C7.26026 45.2845 7.19925 45.222 7.18659 45.1514L6.50708 45.1444C6.44714 45.1441 6.39416 45.1394 6.34652 45.1303C6.29961 45.1212 6.2757 45.1093 6.2757 45.0941L6.27534 45.0262L7.20442 45.0351C7.24546 44.9635 7.32966 44.9011 7.45846 44.8479C7.58708 44.7948 7.74425 44.7475 7.92996 44.7061L8.24108 44.7488C8.33562 44.762 8.38254 44.7775 8.38254 44.7953C8.38254 44.805 8.36345 44.8169 8.32439 44.8312C8.2846 44.8454 8.23858 44.8626 8.18488 44.8824C8.13208 44.9022 8.07999 44.9255 8.03021 44.9521C7.97973 44.9787 7.94226 45.009 7.91711 45.0428L10.2004 45.0654L10.2006 45.0656ZM7.90855 45.1582C7.92728 45.2028 7.96884 45.2411 8.032 45.2734C8.09515 45.3057 8.17346 45.3323 8.26801 45.3532C8.36256 45.374 8.46853 45.3892 8.58609 45.399C8.70437 45.4086 8.82799 45.4133 8.95697 45.4127C9.10736 45.412 9.23866 45.4054 9.35069 45.3933C9.46201 45.381 9.56013 45.3644 9.64522 45.3435C9.7296 45.3225 9.80399 45.2982 9.86679 45.2704C9.92958 45.2426 9.98542 45.2124 10.0361 45.1799L7.90873 45.1585L7.90855 45.1582ZM13.3605 45.0973C13.3419 45.0522 13.2964 45.0126 13.2256 44.9785C13.1548 44.9446 13.064 44.9159 12.9541 44.8929C12.8442 44.8697 12.7159 44.8526 12.5693 44.8412C12.4234 44.8299 12.2621 44.8246 12.0855 44.8255C11.9288 44.8262 11.7931 44.8333 11.6802 44.8465C11.5674 44.8599 11.4691 44.8776 11.3856 44.9C11.3029 44.9223 11.2315 44.9484 11.1741 44.9782C11.1159 45.008 11.0615 45.0397 11.0117 45.0738L13.3603 45.0972L13.3605 45.0973Z" fill="#FFDB44"/>
<path d="M10.8943 44.1643C7.62611 44.1643 4.22305 44.4519 3.67877 45.0086C3.7 45.0283 3.7198 45.0493 3.73818 45.0713C4.19701 44.6847 7.0069 44.2956 10.8943 44.2956C14.7817 44.2956 17.7364 44.705 18.0822 45.1011C18.0991 45.0793 18.1173 45.0586 18.1369 45.039C17.6874 44.4626 14.2205 44.1643 10.8941 44.1643H10.8943Z" fill="url(#paint6_linear_1_1002)"/>
<path d="M4.63026 43.3049V44.9306C4.63026 45.456 7.91201 45.8818 11.9601 45.8818C16.0083 45.8818 19.29 45.456 19.29 44.9306V43.3049H4.63026Z" fill="#FFDB44"/>
<path d="M11.9601 44.2562C16.0082 44.2562 19.2899 43.8303 19.2899 43.305C19.2899 42.7796 16.0082 42.3538 11.9601 42.3538C7.91187 42.3538 4.63017 42.7796 4.63017 43.305C4.63017 43.8303 7.91187 44.2562 11.9601 44.2562Z" fill="url(#paint7_linear_1_1002)"/>
<path d="M11.96 44.3218C8.37485 44.3218 4.62589 43.9792 4.62589 43.3188C4.62589 43.2826 4.63891 43.2188 4.67512 43.2188C4.71134 43.2188 4.69582 43.2687 4.69582 43.3049C4.69582 43.7238 7.67911 44.1905 11.96 44.1905C16.241 44.1905 19.2243 43.7238 19.2243 43.3049C19.2243 43.2687 19.2305 43.2346 19.2667 43.2346C19.3029 43.2346 19.2942 43.283 19.2942 43.3194C19.2942 43.9798 15.5452 44.3218 11.96 44.3218Z" fill="url(#paint8_linear_1_1002)"/>
<path d="M11.2675 43.3581C11.3394 43.3083 11.4159 43.2592 11.4978 43.2107C11.5789 43.1624 11.6847 43.1185 11.8126 43.0794C11.9414 43.0403 12.1025 43.0086 12.2959 42.9838C12.4893 42.9592 12.731 42.9462 13.0197 42.9447C13.3029 42.9433 13.5686 42.9524 13.8174 42.9717C14.0656 42.9909 14.2845 43.02 14.4736 43.0585C14.6618 43.0971 14.8156 43.1447 14.9342 43.2014C15.0519 43.2583 15.122 43.3233 15.1447 43.3966L15.9699 43.405C16.0299 43.4053 16.0829 43.4102 16.1282 43.4196C16.1742 43.4291 16.1967 43.4408 16.1967 43.4553L16.197 43.5233L15.1359 43.5131C15.0987 43.5964 15.0039 43.6724 14.8514 43.7414C14.6998 43.8105 14.5059 43.8702 14.2697 43.9209L13.8833 43.8672C13.8487 43.8619 13.8203 43.8553 13.798 43.847C13.7757 43.839 13.765 43.8301 13.7648 43.8205C13.7648 43.8074 13.7946 43.7925 13.8544 43.7759C13.9141 43.7591 13.9816 43.7382 14.0567 43.7136C14.1318 43.689 14.2053 43.6597 14.278 43.626C14.3501 43.5925 14.3983 43.5522 14.4233 43.5054L11.919 43.4806C11.8531 43.529 11.7789 43.5766 11.6977 43.6233C11.6159 43.6701 11.5078 43.7122 11.3729 43.7495C11.238 43.7868 11.07 43.8171 10.8689 43.8404C10.6672 43.8636 10.4146 43.8761 10.1091 43.8776C9.87955 43.8786 9.6562 43.8699 9.43731 43.8515C9.21842 43.833 9.02415 43.8053 8.85414 43.7684C8.68431 43.7314 8.54516 43.6858 8.4358 43.6314C8.32734 43.577 8.26633 43.5145 8.25366 43.4439L7.57416 43.4369C7.51422 43.4366 7.46123 43.4319 7.4136 43.4228C7.36668 43.4137 7.34296 43.4018 7.34278 43.3866L7.34242 43.3186L8.27132 43.3276C8.31235 43.256 8.39656 43.1936 8.52536 43.1404C8.65416 43.0873 8.81115 43.04 8.99685 42.9986L9.30797 43.0412C9.40252 43.0544 9.44944 43.0701 9.44944 43.0878C9.44944 43.0974 9.43035 43.1094 9.39128 43.1237C9.3515 43.1379 9.30548 43.1551 9.25178 43.1749C9.19898 43.1947 9.14688 43.218 9.09711 43.2446C9.04663 43.2712 9.00916 43.3015 8.98401 43.3352L11.2673 43.3581H11.2675ZM8.97545 43.4507C8.99418 43.4953 9.03574 43.5336 9.0989 43.5659C9.16205 43.5984 9.24036 43.6248 9.33491 43.6456C9.42946 43.6665 9.53543 43.6817 9.65299 43.6915C9.77127 43.7013 9.89489 43.7058 10.0239 43.7052C10.1743 43.7045 10.3056 43.6979 10.4176 43.6858C10.5289 43.6735 10.627 43.6569 10.7121 43.6358C10.7965 43.6148 10.8709 43.5905 10.9337 43.5627C10.9965 43.5349 11.0523 43.5047 11.103 43.4722L8.97545 43.4508V43.4507ZM14.4274 43.3898C14.4086 43.3447 14.3631 43.3051 14.2925 43.271C14.2217 43.2371 14.1311 43.2084 14.0212 43.1854C13.9113 43.1622 13.783 43.1451 13.6364 43.1338C13.4904 43.1226 13.3292 43.1172 13.1526 43.1181C12.9959 43.1188 12.8602 43.126 12.7472 43.1392C12.6345 43.1526 12.5362 43.1702 12.4527 43.1927C12.3699 43.215 12.2986 43.241 12.2411 43.2708C12.183 43.3006 12.1286 43.3326 12.0788 43.3665L14.4274 43.3898Z" fill="#FFDB44"/>
<path d="M11.961 42.4568C8.69285 42.4568 5.2898 42.7444 4.74551 43.3011C4.76674 43.3208 4.78654 43.3416 4.8051 43.3637C5.26393 42.9772 8.07382 42.5881 11.9612 42.5881C15.8486 42.5881 18.8034 42.9975 19.1491 43.3935C19.166 43.3718 19.1842 43.3511 19.2039 43.3315C18.7543 42.7551 15.2874 42.4568 11.961 42.4568Z" fill="url(#paint9_linear_1_1002)"/>
<path d="M3.84288 41.4624V43.0881C3.84288 43.6135 7.12463 44.0393 11.1728 44.0393C15.2209 44.0393 18.5026 43.6135 18.5026 43.0881V41.4624H3.84288Z" fill="url(#paint10_linear_1_1002)"/>
<path d="M18.5025 41.4624C18.5025 41.9878 15.2207 42.4136 11.1726 42.4136C7.12448 42.4136 3.84273 41.9878 3.84273 41.4624C3.84273 40.9371 7.12448 40.5112 11.1726 40.5112C15.2207 40.5112 18.5025 40.9371 18.5025 41.4624Z" fill="#FFDB44"/>
<path d="M11.1728 42.4795C7.58765 42.4795 3.83868 42.137 3.83868 41.4765C3.83868 41.4403 3.85171 41.3765 3.88792 41.3765C3.92414 41.3765 3.90862 41.4264 3.90862 41.4626C3.90862 41.8815 6.89191 42.3482 11.1728 42.3482C15.4538 42.3482 18.4371 41.8815 18.4371 41.4626C18.4371 41.4264 18.4433 41.3923 18.4795 41.3923C18.5157 41.3923 18.507 41.4407 18.507 41.4771C18.507 42.1375 14.758 42.4795 11.1728 42.4795Z" fill="#FFDB44"/>
<path d="M10.4801 41.5155C10.552 41.4658 10.6285 41.4167 10.7104 41.3682C10.7916 41.3198 10.8972 41.276 11.0253 41.2369C11.1541 41.1978 11.3152 41.1661 11.5084 41.1413C11.7018 41.1166 11.9435 41.1036 12.2321 41.1022C12.5154 41.1008 12.7811 41.1099 13.0299 41.1291C13.2781 41.1484 13.4969 41.1775 13.686 41.216C13.8743 41.2545 14.028 41.3022 14.1467 41.3589C14.2644 41.4156 14.3345 41.4808 14.3572 41.5541L15.1824 41.5625C15.2424 41.5628 15.2953 41.5676 15.3407 41.5771C15.3867 41.5865 15.4092 41.5983 15.4092 41.6128L15.4095 41.6807L14.3484 41.6706C14.3111 41.7539 14.2164 41.8299 14.0639 41.8989C13.9123 41.9679 13.7183 42.0279 13.4821 42.0784L13.0957 42.0247C13.0611 42.0193 13.0328 42.0127 13.0105 42.0045C12.9882 41.9965 12.9775 41.9876 12.9773 41.9779C12.9773 41.9649 13.0071 41.9499 13.0668 41.9333C13.1266 41.9166 13.194 41.8957 13.2691 41.8711C13.3442 41.8465 13.4179 41.8172 13.4905 41.7835C13.5626 41.7498 13.6108 41.7096 13.6357 41.6629L11.1313 41.6381C11.0654 41.6864 10.9912 41.7341 10.91 41.7808C10.8282 41.8275 10.7201 41.8697 10.5852 41.9069C10.4503 41.9442 10.2823 41.9745 10.0812 41.9979C9.87946 42.0211 9.62685 42.0336 9.32144 42.035C9.09185 42.0361 8.8685 42.0274 8.64961 42.009C8.43072 41.9904 8.23627 41.9628 8.06643 41.9258C7.8966 41.8889 7.75746 41.8432 7.6481 41.7888C7.53964 41.7344 7.47862 41.672 7.46596 41.6013L6.78645 41.5944C6.72651 41.594 6.67353 41.5894 6.6259 41.5803C6.57898 41.5712 6.55508 41.5592 6.55508 41.5441L6.55472 41.4761L7.48362 41.485C7.52465 41.4135 7.60885 41.3511 7.73765 41.2979C7.86628 41.2447 8.02344 41.1975 8.20915 41.1561L8.52027 41.1987C8.61482 41.2121 8.66174 41.2276 8.66174 41.2454C8.66174 41.2551 8.64265 41.267 8.60358 41.2813C8.5638 41.2956 8.51777 41.3127 8.46408 41.3325C8.41127 41.3523 8.35918 41.3757 8.30941 41.4023C8.25892 41.4288 8.22146 41.459 8.19631 41.4929L10.4796 41.5155H10.4801ZM8.1881 41.6081C8.20683 41.6527 8.2484 41.6911 8.31155 41.7234C8.3747 41.7557 8.45302 41.7822 8.54757 41.8031C8.64211 41.824 8.74808 41.8391 8.86564 41.849C8.98392 41.8586 9.10755 41.8632 9.23653 41.8627C9.38691 41.862 9.51821 41.8554 9.63024 41.8432C9.74156 41.8309 9.83968 41.8143 9.92477 41.7933C10.0092 41.7722 10.0835 41.748 10.1463 41.7202C10.2091 41.6923 10.265 41.6622 10.3156 41.6297L8.18828 41.6083L8.1881 41.6081ZM13.64 41.5473C13.6215 41.5022 13.5758 41.4626 13.5052 41.4285C13.4343 41.3946 13.3435 41.3659 13.2336 41.3429C13.1237 41.3197 12.9955 41.3025 12.8487 41.2913C12.7027 41.2801 12.5415 41.2747 12.3649 41.2756C12.2082 41.2763 12.0725 41.2834 11.9595 41.2966C11.8468 41.31 11.7485 41.3277 11.665 41.3502C11.5822 41.3725 11.5109 41.3987 11.4534 41.4283C11.3953 41.4581 11.3409 41.49 11.2911 41.5239L13.6397 41.5473H13.64Z" fill="#FFDB44"/>
<path d="M11.1738 40.6143C7.90565 40.6143 4.5026 40.9018 3.95831 41.4586C3.97954 41.4782 3.99934 41.4993 4.01772 41.5212C4.47655 41.1346 7.28644 40.7456 11.1738 40.7456C15.0612 40.7456 18.016 41.155 18.3617 41.551C18.3787 41.5292 18.3969 41.5085 18.4165 41.4889C17.9669 40.9125 14.5 40.6143 11.1737 40.6143H11.1738Z" fill="#FFDB44"/>
<path d="M1.80519 39.7549V41.3808C1.80519 41.9061 5.08694 42.332 9.13507 42.332C13.1832 42.332 16.4649 41.9061 16.4649 41.3808V39.7549H1.80519Z" fill="url(#paint11_linear_1_1002)"/>
<path d="M9.13541 40.7061C13.1836 40.7061 16.4653 40.2802 16.4653 39.7549C16.4653 39.2296 13.1836 38.8037 9.13541 38.8037C5.08723 38.8037 1.80553 39.2296 1.80553 39.7549C1.80553 40.2802 5.08723 40.7061 9.13541 40.7061Z" fill="#FFDB44"/>
<path d="M9.13497 40.7717C5.54978 40.7717 1.80081 40.4292 1.80081 39.7688C1.80081 39.7326 1.81383 39.6687 1.85005 39.6687C1.88626 39.6687 1.87074 39.7185 1.87074 39.7549C1.87074 40.1737 4.85404 40.6404 9.13497 40.6404C13.4159 40.6404 16.3992 40.1737 16.3992 39.7549C16.3992 39.7186 16.4054 39.6846 16.4417 39.6846C16.4779 39.6846 16.4691 39.7329 16.4691 39.7693C16.4691 40.4297 12.7202 40.7717 9.13497 40.7717Z" fill="#FFDB44"/>
<path d="M8.4424 39.808C8.5143 39.7582 8.59083 39.7092 8.67271 39.6607C8.75388 39.6123 8.85949 39.5684 8.98758 39.5294C9.11638 39.4903 9.27747 39.4585 9.47085 39.4337C9.66423 39.4091 9.90595 39.3961 10.1946 39.3947C10.4779 39.3932 10.7435 39.4023 10.9924 39.4216C11.2405 39.4409 11.4594 39.47 11.6485 39.5085C11.8369 39.547 11.9905 39.5947 12.1091 39.6514C12.2269 39.7081 12.297 39.7732 12.3196 39.8466L13.1449 39.8549C13.2048 39.8553 13.2578 39.8601 13.3031 39.8696C13.3493 39.879 13.3716 39.8908 13.3716 39.9052L13.372 39.9732L12.3109 39.963C12.2736 40.0464 12.1789 40.1223 12.0264 40.1914C11.8747 40.2604 11.6808 40.3204 11.4446 40.3709L11.0582 40.3172C11.0236 40.3118 10.9952 40.3052 10.9729 40.297C10.9506 40.289 10.9398 40.2801 10.9398 40.2704C10.9398 40.2574 10.9695 40.2424 11.0293 40.2256C11.0891 40.2089 11.1565 40.188 11.2316 40.1634C11.3067 40.1388 11.3802 40.1095 11.453 40.0758C11.5251 40.0421 11.5732 40.0019 11.5982 39.9552L9.0939 39.9304C9.02807 39.9787 8.95386 40.0264 8.87269 40.0731C8.79081 40.1199 8.6827 40.162 8.54784 40.1992C8.41297 40.2365 8.24492 40.2668 8.04387 40.2902C7.84211 40.3136 7.5895 40.3259 7.28409 40.3273C7.05449 40.3284 6.83114 40.3198 6.61225 40.3013C6.39336 40.2827 6.19909 40.2551 6.02908 40.2181C5.85925 40.1812 5.7201 40.1355 5.61075 40.0811C5.50228 40.0267 5.44127 39.9643 5.4286 39.8936L4.7491 39.8867C4.68916 39.8863 4.63618 39.8817 4.58854 39.8726C4.54163 39.8635 4.5179 39.8515 4.51772 39.8364L4.51736 39.7684L5.44627 39.7773C5.4873 39.7058 5.5715 39.6434 5.7003 39.5902C5.82892 39.537 5.98609 39.4898 6.1718 39.4484L6.48292 39.491C6.57747 39.5042 6.62438 39.5197 6.62438 39.5376C6.62438 39.5472 6.6053 39.5592 6.56623 39.5734C6.52644 39.5877 6.48042 39.6048 6.42672 39.6246C6.37392 39.6444 6.32183 39.6676 6.27205 39.6944C6.22157 39.721 6.18411 39.7513 6.15895 39.785L8.44222 39.8078L8.4424 39.808ZM6.15039 39.9006C6.16912 39.9452 6.21069 39.9836 6.27384 40.0158C6.33699 40.0481 6.41531 40.0747 6.50985 40.0956C6.6044 40.1165 6.71037 40.1316 6.82793 40.1414C6.94621 40.1513 7.06984 40.1557 7.19881 40.1552C7.3492 40.1545 7.4805 40.1479 7.59253 40.1357C7.70385 40.1234 7.80197 40.1068 7.88706 40.0858C7.97144 40.0647 8.04565 40.0405 8.10863 40.0126C8.17142 39.9848 8.22726 39.9547 8.27792 39.9222L6.15039 39.9008V39.9006ZM11.6023 39.8398C11.5836 39.7946 11.5381 39.755 11.4674 39.721C11.3966 39.6871 11.306 39.6583 11.1959 39.6353C11.086 39.6121 10.9578 39.595 10.8111 39.5836C10.6652 39.5724 10.5039 39.5672 10.3273 39.5679C10.1707 39.5686 10.0349 39.5757 9.92201 39.589C9.80926 39.6023 9.71097 39.62 9.62748 39.6425C9.5447 39.6648 9.47335 39.691 9.4159 39.7206C9.35775 39.7504 9.30334 39.7822 9.25356 39.8162L11.6021 39.8396L11.6023 39.8398Z" fill="#FFDB44"/>
<path d="M9.13615 38.9067C5.86796 38.9067 2.46491 39.1943 1.92062 39.7511C1.94185 39.7707 1.96165 39.7918 1.98003 39.8137C2.43886 39.4271 5.24875 39.038 9.13615 39.038C13.0236 39.038 15.9783 39.4475 16.324 39.8435C16.341 39.8217 16.3592 39.801 16.3788 39.7814C15.9292 39.205 12.4623 38.9067 9.13597 38.9067H9.13615Z" fill="url(#paint12_linear_1_1002)"/>
<path d="M3.56351 38.0522V39.678C3.56351 40.2033 6.84526 40.6292 10.8934 40.6292C14.9415 40.6292 18.2233 40.2033 18.2233 39.678V38.0522H3.56351Z" fill="#FFDB44"/>
<path d="M10.8934 39.0032C14.9416 39.0032 18.2233 38.5774 18.2233 38.052C18.2233 37.5267 14.9416 37.1008 10.8934 37.1008C6.84527 37.1008 3.56357 37.5267 3.56357 38.052C3.56357 38.5774 6.84527 39.0032 10.8934 39.0032Z" fill="url(#paint13_linear_1_1002)"/>
<path d="M10.8935 39.0688C7.30827 39.0688 3.55931 38.7263 3.55931 38.0659C3.55931 38.0297 3.57233 37.9658 3.60855 37.9658C3.64476 37.9658 3.62924 38.0158 3.62924 38.052C3.62924 38.4709 6.61254 38.9375 10.8935 38.9375C15.1744 38.9375 18.1577 38.4709 18.1577 38.052C18.1577 38.0158 18.1639 37.9817 18.2002 37.9817C18.2364 37.9817 18.2276 38.03 18.2276 38.0664C18.2276 38.7269 14.4787 39.0688 10.8935 39.0688Z" fill="#FFDB44"/>
<path d="M10.2006 38.1051C10.2725 38.0554 10.349 38.0063 10.4309 37.9578C10.512 37.9094 10.6176 37.8656 10.7457 37.8265C10.8745 37.7874 11.0356 37.7557 11.229 37.7309C11.4224 37.7062 11.6641 37.6932 11.9528 37.6918C12.236 37.6904 12.5017 37.6995 12.7505 37.7187C12.9987 37.738 13.2176 37.7671 13.4067 37.8056C13.5951 37.8441 13.7487 37.8918 13.8673 37.9485C13.985 38.0052 14.0551 38.0704 14.0778 38.1437L14.903 38.1521C14.963 38.1524 15.016 38.1572 15.0613 38.1667C15.1075 38.1761 15.1298 38.1879 15.1298 38.2024L15.1301 38.2703L14.0691 38.2602C14.0318 38.3435 13.937 38.4195 13.7845 38.4885C13.6329 38.5575 13.439 38.6175 13.2028 38.668L12.8164 38.6143C12.7818 38.6089 12.7534 38.6023 12.7311 38.5941C12.7088 38.5861 12.6979 38.5772 12.6979 38.5675C12.6979 38.5545 12.7277 38.5395 12.7875 38.5228C12.8472 38.506 12.9147 38.4851 12.9898 38.4605C13.0649 38.4359 13.1384 38.4066 13.2112 38.3729C13.2832 38.3392 13.3314 38.299 13.3564 38.2523L10.8519 38.2275C10.7861 38.2759 10.7118 38.3235 10.6307 38.3702C10.5488 38.417 10.4407 38.4591 10.3058 38.4964C10.1709 38.5336 10.0029 38.564 9.80185 38.5873C9.60009 38.6107 9.34748 38.623 9.04207 38.6244C8.81247 38.6255 8.58912 38.6168 8.37023 38.5984C8.15134 38.5798 7.95689 38.5522 7.78706 38.5153C7.61723 38.4783 7.47808 38.4327 7.36873 38.3783C7.26026 38.3238 7.19925 38.2614 7.18659 38.1908L6.50708 38.1838C6.44714 38.1835 6.39416 38.1788 6.34652 38.1697C6.29961 38.1606 6.2757 38.1487 6.2757 38.1335L6.27534 38.0655L7.20442 38.0745C7.24546 38.0029 7.32966 37.9405 7.45846 37.8873C7.58708 37.8342 7.74425 37.7869 7.92996 37.7455L8.24108 37.7881C8.33562 37.8013 8.38254 37.8169 8.38254 37.8349C8.38254 37.8445 8.36345 37.8565 8.32439 37.8707C8.2846 37.885 8.23858 37.9021 8.18488 37.9219C8.13208 37.9417 8.07999 37.9651 8.03021 37.9917C7.97973 38.0183 7.94226 38.0486 7.91711 38.0823L10.2004 38.105L10.2006 38.1051ZM7.90855 38.1977C7.92728 38.2423 7.96884 38.2807 8.032 38.313C8.09515 38.3454 8.17346 38.3718 8.26801 38.3927C8.36256 38.4136 8.46853 38.4287 8.58609 38.4386C8.70437 38.4484 8.82799 38.4528 8.95697 38.4523C9.10736 38.4516 9.23866 38.445 9.35069 38.4328C9.46201 38.4205 9.56013 38.4039 9.64522 38.3829C9.7296 38.3618 9.80399 38.3376 9.86679 38.3098C9.92958 38.2819 9.98542 38.2518 10.0361 38.2193L7.90873 38.1979L7.90855 38.1977ZM13.3605 38.1369C13.3419 38.0918 13.2964 38.0522 13.2256 38.0181C13.1548 37.9842 13.064 37.9555 12.9541 37.9324C12.8442 37.9093 12.7159 37.8921 12.5693 37.8807C12.4234 37.8695 12.2621 37.8643 12.0855 37.865C11.9288 37.8657 11.7931 37.8729 11.6802 37.8861C11.5674 37.8994 11.4691 37.9171 11.3856 37.9396C11.3029 37.9619 11.2315 37.9881 11.1741 38.0177C11.1159 38.0475 11.0615 38.0794 11.0117 38.1133L13.3603 38.1367L13.3605 38.1369Z" fill="#FFDB44"/>
<path d="M10.8943 37.2039C7.62611 37.2039 4.22305 37.4914 3.67877 38.0482C3.7 38.0678 3.7198 38.0889 3.73818 38.1108C4.19701 37.7242 7.0069 37.3352 10.8943 37.3352C14.7817 37.3352 17.7364 37.7446 18.0822 38.1406C18.0991 38.1188 18.1173 38.0982 18.1369 38.0785C17.6874 37.5021 14.2205 37.2039 10.8941 37.2039H10.8943Z" fill="url(#paint14_linear_1_1002)"/>
<path d="M2.64905 36.3442V37.9699C2.64905 38.4953 5.9308 38.9211 9.97893 38.9211C14.0271 38.9211 17.3088 38.4953 17.3088 37.9699V36.3442H2.64905Z" fill="url(#paint15_linear_1_1002)"/>
<path d="M9.97885 37.2955C14.027 37.2955 17.3087 36.8696 17.3087 36.3443C17.3087 35.8189 14.027 35.3931 9.97885 35.3931C5.93067 35.3931 2.64897 35.8189 2.64897 36.3443C2.64897 36.8696 5.93067 37.2955 9.97885 37.2955Z" fill="#FFDB44"/>
<path d="M9.97866 37.3611C6.39346 37.3611 2.6445 37.0186 2.6445 36.3581C2.6445 36.3219 2.65752 36.2581 2.69374 36.2581C2.72995 36.2581 2.71443 36.3078 2.71443 36.3442C2.71443 36.7631 5.69773 37.2298 9.97866 37.2298C14.2596 37.2298 17.2429 36.7631 17.2429 36.3442C17.2429 36.308 17.2491 36.2739 17.2854 36.2739C17.3216 36.2739 17.3128 36.3223 17.3128 36.3587C17.3128 37.0191 13.5639 37.3611 9.97866 37.3611Z" fill="#FFDB44"/>
<path d="M9.28625 36.3974C9.35814 36.3476 9.43467 36.2985 9.51655 36.25C9.59772 36.2017 9.70351 36.1578 9.83142 36.1187C9.96022 36.0797 10.1213 36.0479 10.3147 36.0231C10.5081 35.9985 10.7498 35.9855 11.0384 35.984C11.3217 35.9826 11.5874 35.9917 11.8362 36.011C12.0844 36.0302 12.3033 36.0593 12.4924 36.0978C12.6807 36.1364 12.8343 36.184 12.953 36.2407C13.0707 36.2976 13.1408 36.3626 13.1635 36.4359L13.9887 36.4443C14.0487 36.4446 14.1017 36.4495 14.147 36.4589C14.1932 36.4684 14.2155 36.4801 14.2155 36.4946L14.2158 36.5626L13.1547 36.5524C13.1174 36.6355 13.0227 36.7117 12.8702 36.7807C12.7186 36.8498 12.5246 36.9097 12.2884 36.9602L11.902 36.9065C11.8674 36.9012 11.8391 36.8946 11.8168 36.8863C11.7945 36.8783 11.7836 36.8694 11.7836 36.8598C11.7836 36.8467 11.8134 36.8318 11.8731 36.815C11.9329 36.7982 12.0003 36.7774 12.0754 36.7527C12.1505 36.7281 12.224 36.6989 12.2968 36.6651C12.3689 36.6314 12.4171 36.5913 12.442 36.5445L9.93774 36.5198C9.87191 36.5681 9.7977 36.6157 9.71653 36.6625C9.63465 36.7092 9.52654 36.7513 9.39168 36.7886C9.25681 36.8259 9.08876 36.8562 8.88771 36.8796C8.68595 36.9028 8.43334 36.9153 8.12793 36.9167C7.89833 36.9178 7.67498 36.9092 7.45609 36.8906C7.2372 36.8721 7.04275 36.8444 6.87292 36.8075C6.70309 36.7706 6.56394 36.7249 6.45459 36.6705C6.34612 36.6161 6.28511 36.5536 6.27245 36.483L5.59294 36.476C5.533 36.4757 5.48002 36.4711 5.43239 36.462C5.38547 36.4529 5.36174 36.4409 5.36156 36.4257L5.36121 36.3578L6.29029 36.3667C6.33132 36.2952 6.41552 36.2327 6.54432 36.1796C6.67294 36.1264 6.83011 36.0791 7.01582 36.0377L7.32694 36.0804C7.42149 36.0936 7.4684 36.1091 7.4684 36.1269C7.4684 36.1366 7.44932 36.1485 7.41025 36.1628C7.37046 36.1771 7.32444 36.1942 7.27074 36.214C7.21794 36.2338 7.16585 36.2572 7.11607 36.2837C7.06559 36.3103 7.02813 36.3405 7.00297 36.3744L9.28625 36.397V36.3974ZM6.99423 36.49C7.01296 36.5346 7.05453 36.5729 7.11768 36.6052C7.18083 36.6375 7.25915 36.6641 7.3537 36.6849C7.44825 36.7058 7.55421 36.721 7.67177 36.7308C7.79005 36.7406 7.91368 36.7451 8.04266 36.7445C8.19322 36.7438 8.32434 36.7372 8.43637 36.7251C8.54769 36.7128 8.64581 36.6962 8.7309 36.6751C8.81528 36.6541 8.8895 36.6298 8.95247 36.602C9.01526 36.5742 9.0711 36.544 9.12177 36.5115L6.99423 36.4901V36.49ZM12.4462 36.4291C12.4276 36.384 12.3821 36.3444 12.3113 36.3103C12.2405 36.2764 12.1498 36.2477 12.0398 36.2247C11.9299 36.2015 11.8016 36.1844 11.655 36.1729C11.509 36.1617 11.3478 36.1565 11.1712 36.1573C11.0145 36.158 10.8788 36.1651 10.7658 36.1783C10.6531 36.1915 10.5548 36.2093 10.4713 36.2318C10.3885 36.2541 10.3172 36.2803 10.2597 36.31C10.2016 36.3398 10.1472 36.3717 10.0974 36.4056L12.446 36.4289L12.4462 36.4291Z" fill="#FFDB44"/>
<path d="M9.97983 35.4961C6.71164 35.4961 3.30858 35.7837 2.7643 36.3404C2.78553 36.3601 2.80533 36.3811 2.8237 36.4031C3.28253 36.0165 6.09243 35.6274 9.97983 35.6274C13.8672 35.6274 16.822 36.0368 17.1677 36.4328C17.1847 36.4111 17.2028 36.3904 17.2225 36.3708C16.7729 35.7944 13.306 35.4961 9.97965 35.4961H9.97983Z" fill="url(#paint16_linear_1_1002)"/>
<path d="M19.3936 37.4904L18.0688 38.4327C17.6407 38.7372 19.1959 41.6582 21.5423 44.9569C23.8888 48.2558 26.138 50.6831 26.5661 50.3785L27.8909 49.4363L19.3938 37.4902L19.3936 37.4904Z" fill="url(#paint17_linear_1_1002)"/>
<path d="M27.8908 49.4365C27.4626 49.741 25.2134 47.3136 22.867 44.0149C20.5206 40.716 18.9655 37.7952 19.3935 37.4906C19.8216 37.1861 22.0708 39.6135 24.4173 42.9122C26.7637 46.2111 28.3187 49.1321 27.8908 49.4365Z" fill="url(#paint18_linear_1_1002)"/>
<path d="M22.8137 44.053C20.7356 41.1314 18.8417 37.878 19.3799 37.4952C19.4095 37.4741 19.4689 37.4477 19.49 37.4773C19.5111 37.507 19.4613 37.523 19.4318 37.5441C19.0906 37.7869 20.4394 40.4885 22.9207 43.9768C25.402 47.4653 27.5115 49.6258 27.853 49.383C27.8826 49.362 27.9138 49.3474 27.9348 49.377C27.9559 49.4066 27.9113 49.4275 27.8819 49.4485C27.3436 49.8314 24.892 46.9745 22.8138 44.053H22.8137Z" fill="url(#paint19_linear_1_1002)"/>
<path d="M23.1976 42.9297C23.2799 42.9594 23.3643 42.9933 23.4511 43.0319C23.5377 43.0699 23.6345 43.1307 23.7407 43.2124C23.8472 43.2946 23.9665 43.4076 24.0985 43.5508C24.2307 43.6941 24.3815 43.8835 24.5499 44.1179C24.7152 44.3479 24.8619 44.5696 24.9903 44.7837C25.1184 44.9971 25.2217 45.1922 25.2998 45.3687C25.3776 45.5444 25.4278 45.6974 25.4504 45.8268C25.4723 45.9556 25.46 46.0505 25.4135 46.1115L25.885 46.7889C25.9194 46.8379 25.9462 46.8839 25.9647 46.9262C25.9838 46.9692 25.987 46.9944 25.9752 47.0028L25.9201 47.0424L25.3134 46.1718C25.224 46.1896 25.107 46.1566 24.9623 46.0724C24.8182 45.9889 24.6569 45.8655 24.4789 45.7024L24.2987 45.3564C24.283 45.3251 24.2719 45.298 24.2657 45.2752C24.2594 45.2523 24.2603 45.2384 24.2682 45.2327C24.2789 45.2251 24.3083 45.2408 24.3565 45.2798C24.4048 45.3187 24.4609 45.3617 24.5245 45.4086C24.5882 45.4555 24.6546 45.4985 24.7242 45.5383C24.7932 45.5776 24.854 45.5934 24.9067 45.5868L23.4752 43.5317C23.3976 43.5062 23.3159 43.4732 23.2308 43.4342C23.1452 43.3945 23.0483 43.3309 22.9397 43.2426C22.831 43.1543 22.709 43.0349 22.5734 42.8847C22.4375 42.7338 22.281 42.5352 22.1027 42.2871C21.9687 42.1007 21.8463 41.9135 21.7344 41.7244C21.6226 41.5353 21.5327 41.3609 21.4642 41.201C21.3959 41.0412 21.3523 40.9013 21.3332 40.7807C21.3147 40.6607 21.3302 40.5748 21.3805 40.5236L20.9923 39.966C20.9579 39.9169 20.931 39.8711 20.9108 39.827C20.891 39.7835 20.8871 39.7571 20.8992 39.7483L20.9543 39.7087L21.4856 40.4708C21.5678 40.4628 21.6674 40.4953 21.7853 40.5693C21.9032 40.6433 22.0329 40.744 22.1742 40.8713L22.3198 41.1496C22.3636 41.2344 22.3783 41.2815 22.3638 41.292C22.356 41.2975 22.3353 41.289 22.3008 41.2654C22.2661 41.2412 22.2256 41.2137 22.1783 41.1814C22.1314 41.1498 22.0823 41.1207 22.0317 41.0958C21.9806 41.0701 21.9342 41.057 21.8921 41.0562L23.1971 42.93L23.1976 42.9297ZM21.7937 41.1157C21.7682 41.1568 21.761 41.213 21.7714 41.2831C21.7815 41.3532 21.8054 41.4326 21.8433 41.5216C21.8811 41.6106 21.9301 41.7059 21.9903 41.8074C22.0509 41.9094 22.1187 42.0129 22.1942 42.1176C22.2819 42.2398 22.3633 42.3429 22.4382 42.4271C22.5128 42.5106 22.5831 42.5811 22.6496 42.6382C22.7156 42.6947 22.7786 42.7413 22.8376 42.7762C22.8967 42.8114 22.9536 42.8394 23.0094 42.8617L21.7939 41.1156L21.7937 41.1157ZM25.0034 45.5232C25.0294 45.4818 25.0353 45.4218 25.0219 45.3444C25.0085 45.267 24.9793 45.1765 24.9343 45.0736C24.8895 44.9707 24.8292 44.8561 24.7534 44.73C24.678 44.6046 24.5888 44.4701 24.4858 44.3267C24.3945 44.1995 24.3099 44.0928 24.2338 44.0086C24.1576 43.9244 24.0862 43.8546 24.0195 43.7995C23.9533 43.7449 23.8907 43.7021 23.8333 43.6725C23.7753 43.6423 23.7178 43.6165 23.6613 43.5956L25.0035 45.523L25.0034 45.5232Z" fill="#FFDB44"/>
<path d="M24.3341 42.9727C22.4397 40.3094 20.233 37.703 19.4637 37.5823C19.4602 37.611 19.4545 37.6394 19.4471 37.667C20.028 37.8169 21.9739 39.8811 24.2271 43.0488C26.5382 46.2979 27.8593 48.8616 27.737 49.3731C27.7644 49.3743 27.7919 49.377 27.8194 49.3818C28.0285 48.6813 26.262 45.6834 24.3341 42.9728V42.9727Z" fill="#FFDB44"/>
<defs>
<linearGradient id="paint0_linear_1_1002" x1="-4.72252" y1="91.5518" x2="25.3197" y2="34.1218" gradientUnits="userSpaceOnUse">
<stop stop-color="#AA80F9"/>
<stop offset="1" stop-color="#6165D7"/>
</linearGradient>
<linearGradient id="paint1_linear_1_1002" x1="12.6573" y1="29.3442" x2="32.9454" y2="1.53925" gradientUnits="userSpaceOnUse">
<stop stop-color="#FCB148"/>
<stop offset="0.05" stop-color="#FDB946"/>
<stop offset="0.14" stop-color="#FEC144"/>
<stop offset="0.32" stop-color="#FFC444"/>
<stop offset="0.48" stop-color="#FDB946"/>
<stop offset="0.78" stop-color="#F99C4C"/>
<stop offset="0.87" stop-color="#F8924F"/>
<stop offset="1" stop-color="#F8924F"/>
</linearGradient>
<linearGradient id="paint2_linear_1_1002" x1="29.1451" y1="15.9757" x2="36.6449" y2="5.69727" gradientUnits="userSpaceOnUse">
<stop stop-color="#FCB148"/>
<stop offset="0.05" stop-color="#FDB946"/>
<stop offset="0.14" stop-color="#FEC144"/>
<stop offset="0.32" stop-color="#FFC444"/>
<stop offset="0.48" stop-color="#FDB946"/>
<stop offset="0.78" stop-color="#F99C4C"/>
<stop offset="0.87" stop-color="#F8924F"/>
<stop offset="1" stop-color="#F8924F"/>
</linearGradient>
<linearGradient id="paint3_linear_1_1002" x1="2.58966" y1="49.7116" x2="19.4549" y2="49.7116" gradientUnits="userSpaceOnUse">
<stop stop-color="#FCB148"/>
<stop offset="0.05" stop-color="#FDB946"/>
<stop offset="0.14" stop-color="#FEC144"/>
<stop offset="0.32" stop-color="#FFC444"/>
<stop offset="0.48" stop-color="#FDB946"/>
<stop offset="0.78" stop-color="#F99C4C"/>
<stop offset="0.87" stop-color="#F8924F"/>
<stop offset="1" stop-color="#F8924F"/>
</linearGradient>
<linearGradient id="paint4_linear_1_1002" x1="11.0612" y1="47.4799" x2="11.3343" y2="49.7657" gradientUnits="userSpaceOnUse">
<stop stop-color="#FFDB44"/>
<stop offset="1" stop-color="#FEEF06"/>
</linearGradient>
<linearGradient id="paint5_linear_1_1002" x1="2.31028" y1="46.3011" x2="19.1754" y2="46.3011" gradientUnits="userSpaceOnUse">
<stop stop-color="#FCB148"/>
<stop offset="0.05" stop-color="#FDB946"/>
<stop offset="0.14" stop-color="#FEC144"/>
<stop offset="0.32" stop-color="#FFC444"/>
<stop offset="0.48" stop-color="#FDB946"/>
<stop offset="0.78" stop-color="#F99C4C"/>
<stop offset="0.87" stop-color="#F8924F"/>
<stop offset="1" stop-color="#F8924F"/>
</linearGradient>
<linearGradient id="paint6_linear_1_1002" x1="11.0384" y1="46.1156" x2="10.7664" y2="43.8377" gradientUnits="userSpaceOnUse">
<stop stop-color="#F36F56"/>
<stop offset="0.31" stop-color="#F99C4C"/>
<stop offset="0.55" stop-color="#FDB946"/>
<stop offset="0.68" stop-color="#FFC444"/>
<stop offset="0.8" stop-color="#FEC144"/>
<stop offset="0.87" stop-color="#FDB946"/>
<stop offset="0.92" stop-color="#FBAC49"/>
<stop offset="0.96" stop-color="#F8994D"/>
<stop offset="1" stop-color="#F57E53"/>
</linearGradient>
<linearGradient id="paint7_linear_1_1002" x1="11.8869" y1="42.6936" x2="12.776" y2="50.1368" gradientUnits="userSpaceOnUse">
<stop stop-color="#FFDB44"/>
<stop offset="1" stop-color="#FEEF06"/>
</linearGradient>
<linearGradient id="paint8_linear_1_1002" x1="11.8485" y1="42.3617" x2="12.1215" y2="44.6477" gradientUnits="userSpaceOnUse">
<stop stop-color="#FFDB44"/>
<stop offset="1" stop-color="#FEEF06"/>
</linearGradient>
<linearGradient id="paint9_linear_1_1002" x1="12.1052" y1="44.4081" x2="11.833" y2="42.1303" gradientUnits="userSpaceOnUse">
<stop stop-color="#F36F56"/>
<stop offset="0.31" stop-color="#F99C4C"/>
<stop offset="0.55" stop-color="#FDB946"/>
<stop offset="0.68" stop-color="#FFC444"/>
<stop offset="0.8" stop-color="#FEC144"/>
<stop offset="0.87" stop-color="#FDB946"/>
<stop offset="0.92" stop-color="#FBAC49"/>
<stop offset="0.96" stop-color="#F8994D"/>
<stop offset="1" stop-color="#F57E53"/>
</linearGradient>
<linearGradient id="paint10_linear_1_1002" x1="2.58966" y1="42.7509" x2="19.4549" y2="42.7509" gradientUnits="userSpaceOnUse">
<stop stop-color="#FCB148"/>
<stop offset="0.05" stop-color="#FDB946"/>
<stop offset="0.14" stop-color="#FEC144"/>
<stop offset="0.32" stop-color="#FFC444"/>
<stop offset="0.48" stop-color="#FDB946"/>
<stop offset="0.78" stop-color="#F99C4C"/>
<stop offset="0.87" stop-color="#F8924F"/>
<stop offset="1" stop-color="#F8924F"/>
</linearGradient>
<linearGradient id="paint11_linear_1_1002" x1="0.551969" y1="41.0432" x2="17.417" y2="41.0432" gradientUnits="userSpaceOnUse">
<stop stop-color="#FCB148"/>
<stop offset="0.05" stop-color="#FDB946"/>
<stop offset="0.14" stop-color="#FEC144"/>
<stop offset="0.32" stop-color="#FFC444"/>
<stop offset="0.48" stop-color="#FDB946"/>
<stop offset="0.78" stop-color="#F99C4C"/>
<stop offset="0.87" stop-color="#F8924F"/>
<stop offset="1" stop-color="#F8924F"/>
</linearGradient>
<linearGradient id="paint12_linear_1_1002" x1="9.28012" y1="40.858" x2="9.00807" y2="38.5801" gradientUnits="userSpaceOnUse">
<stop stop-color="#F36F56"/>
<stop offset="0.31" stop-color="#F99C4C"/>
<stop offset="0.55" stop-color="#FDB946"/>
<stop offset="0.68" stop-color="#FFC444"/>
<stop offset="0.8" stop-color="#FEC144"/>
<stop offset="0.87" stop-color="#FDB946"/>
<stop offset="0.92" stop-color="#FBAC49"/>
<stop offset="0.96" stop-color="#F8994D"/>
<stop offset="1" stop-color="#F57E53"/>
</linearGradient>
<linearGradient id="paint13_linear_1_1002" x1="10.8205" y1="37.4407" x2="11.7096" y2="44.884" gradientUnits="userSpaceOnUse">
<stop stop-color="#FFDB44"/>
<stop offset="1" stop-color="#FEEF06"/>
</linearGradient>
<linearGradient id="paint14_linear_1_1002" x1="11.0384" y1="39.1551" x2="10.7664" y2="36.8774" gradientUnits="userSpaceOnUse">
<stop stop-color="#F36F56"/>
<stop offset="0.31" stop-color="#F99C4C"/>
<stop offset="0.55" stop-color="#FDB946"/>
<stop offset="0.68" stop-color="#FFC444"/>
<stop offset="0.8" stop-color="#FEC144"/>
<stop offset="0.87" stop-color="#FDB946"/>
<stop offset="0.92" stop-color="#FBAC49"/>
<stop offset="0.96" stop-color="#F8994D"/>
<stop offset="1" stop-color="#F57E53"/>
</linearGradient>
<linearGradient id="paint15_linear_1_1002" x1="1.39565" y1="37.6328" x2="18.2609" y2="37.6328" gradientUnits="userSpaceOnUse">
<stop stop-color="#FCB148"/>
<stop offset="0.05" stop-color="#FDB946"/>
<stop offset="0.14" stop-color="#FEC144"/>
<stop offset="0.32" stop-color="#FFC444"/>
<stop offset="0.48" stop-color="#FDB946"/>
<stop offset="0.78" stop-color="#F99C4C"/>
<stop offset="0.87" stop-color="#F8924F"/>
<stop offset="1" stop-color="#F8924F"/>
</linearGradient>
<linearGradient id="paint16_linear_1_1002" x1="10.1238" y1="37.4476" x2="9.85174" y2="35.1696" gradientUnits="userSpaceOnUse">
<stop stop-color="#F36F56"/>
<stop offset="0.31" stop-color="#F99C4C"/>
<stop offset="0.55" stop-color="#FDB946"/>
<stop offset="0.68" stop-color="#FFC444"/>
<stop offset="0.8" stop-color="#FEC144"/>
<stop offset="0.87" stop-color="#FDB946"/>
<stop offset="0.92" stop-color="#FBAC49"/>
<stop offset="0.96" stop-color="#F8994D"/>
<stop offset="1" stop-color="#F57E53"/>
</linearGradient>
<linearGradient id="paint17_linear_1_1002" x1="17.6155" y1="37.2152" x2="27.39" y2="50.9591" gradientUnits="userSpaceOnUse">
<stop stop-color="#FCB148"/>
<stop offset="0.05" stop-color="#FDB946"/>
<stop offset="0.14" stop-color="#FEC144"/>
<stop offset="0.32" stop-color="#FFC444"/>
<stop offset="0.48" stop-color="#FDB946"/>
<stop offset="0.78" stop-color="#F99C4C"/>
<stop offset="0.87" stop-color="#F8924F"/>
<stop offset="1" stop-color="#F8924F"/>
</linearGradient>
<linearGradient id="paint18_linear_1_1002" x1="24.0957" y1="43.0495" x2="18.546" y2="48.0872" gradientUnits="userSpaceOnUse">
<stop stop-color="#FFDB44"/>
<stop offset="1" stop-color="#FEEF06"/>
</linearGradient>
<linearGradient id="paint19_linear_1_1002" x1="24.3437" y1="42.8257" x2="22.6393" y2="44.3728" gradientUnits="userSpaceOnUse">
<stop stop-color="#FFDB44"/>
<stop offset="1" stop-color="#FEEF06"/>
</linearGradient>
</defs>
</svg>
