<svg width="88" height="88" viewBox="0 0 88 88" fill="none" xmlns="http://www.w3.org/2000/svg">
<path d="M7.4252 58.9452L24.1653 48.4846L27.8219 67.7098L7.4252 58.9452Z" fill="#3B5998"/>
<path d="M64.1067 49.1787L80.6479 56.6954L70.0252 72.1064L64.1067 49.1787Z" fill="#3B5998"/>
<path d="M66 66C78.1503 53.8497 78.1503 34.1503 66 22C53.8497 9.84974 34.1503 9.84973 22 22C9.84974 34.1503 9.84974 53.8497 22 66C34.1503 78.1503 53.8497 78.1503 66 66Z" fill="url(#paint0_linear_1_54)"/>
<path d="M63.3851 63.3852C74.0913 52.679 74.0913 35.321 63.3851 24.6148C52.679 13.9087 35.3209 13.9087 24.6148 24.6148C13.9086 35.321 13.9086 52.679 24.6148 63.3852C35.3209 74.0913 52.679 74.0913 63.3851 63.3852Z" fill="url(#paint1_linear_1_54)"/>
<path d="M55.4722 51.1441C55.5945 53.7577 54.8635 55.9126 53.276 57.6071C51.6901 59.3031 49.5674 60.3767 46.911 60.8294L47.0945 64.7475L44.1108 64.8882L43.9288 61.0144C41.4268 60.9532 39.2567 60.3568 37.4184 59.222C35.5802 58.0888 34.2252 56.5013 33.3565 54.4597L38.5104 51.1395C39.5717 53.4702 41.283 54.7426 43.6443 54.9583L43.2819 47.255H43.2375L43.1458 47.2168C42.089 46.8803 41.2264 46.5775 40.5597 46.3114C39.8929 46.0453 39.1068 45.6507 38.206 45.1277C37.3037 44.6062 36.5941 44.0511 36.0757 43.4653C35.5572 42.8796 35.0892 42.121 34.6748 41.1882C34.2588 40.2568 34.0248 39.226 33.9713 38.0974C33.849 35.4853 34.6029 33.3534 36.2362 31.6987C37.8696 30.0455 39.9265 29.0407 42.4086 28.6859L42.2266 24.8121L45.2103 24.6714L45.3969 28.6339C49.4558 28.9183 52.4043 30.8789 54.2426 34.5111L49.2187 37.7823C48.4219 36.0358 47.2428 35.0051 45.6814 34.69L46.0316 42.1272C48.844 43.0952 50.7404 43.8859 51.7222 44.493C54.0851 46.0193 55.3345 48.2368 55.4706 51.1456L55.4722 51.1441ZM40.0764 37.8557C40.107 38.5088 40.341 39.07 40.7799 39.5411C41.2188 40.0106 41.9544 40.4755 42.9867 40.9312L42.6931 34.6977C41.8106 34.9179 41.1439 35.3064 40.6958 35.863C40.2446 36.4197 40.0397 37.0834 40.0749 37.8557H40.0764ZM46.6265 54.7304C48.5076 54.2257 49.4084 53.1414 49.3304 51.479C49.2952 50.7373 49.0367 50.124 48.5519 49.6408C48.0671 49.1575 47.3269 48.7171 46.3252 48.3164L46.6265 54.7289V54.7304Z" fill="#E07500"/>
<g style="mix-blend-mode:screen" opacity="0.48">
<path d="M47.642 16.832C46.0362 16.6179 44.3906 16.5369 42.7145 16.6164C40.3119 16.7296 37.9965 17.1501 35.8035 17.8368L17.1839 38.2931C16.7067 40.5412 16.5048 42.8857 16.618 45.2883C16.696 46.9644 16.9315 48.5947 17.2955 50.1745L47.6435 16.8336L47.642 16.832Z" fill="url(#paint2_linear_1_54)"/>
<path d="M52.5757 17.9636L18.8846 54.978C20.6969 59.1149 23.4894 62.7088 26.9656 65.4692L63.7781 25.0261C60.7041 21.8237 56.864 19.3798 52.5757 17.9636Z" fill="url(#paint3_linear_1_54)"/>
</g>
<path d="M78.4564 55.989L8.57823 58.9467C6.25824 59.0446 4.42763 60.9548 4.42763 63.2763V75.855C4.42763 78.6996 6.67421 81.0364 9.5157 81.148L78.4671 83.8565C80.625 83.9406 82.4189 82.2155 82.4189 80.0561V59.7894C82.4189 57.6254 80.6158 55.8988 78.4549 55.9906L78.4564 55.989Z" fill="#3B5998"/>
<path d="M16.6669 73.9204C15.3853 73.9204 14.327 73.4952 13.492 72.6434C12.6569 71.7916 12.2394 70.7409 12.2394 69.4914C12.2394 68.242 12.6569 67.1822 13.492 66.3334C14.327 65.4861 15.3853 65.0625 16.6669 65.0625C17.4376 65.0625 18.1488 65.243 18.8018 65.6039C19.4548 65.9648 19.9641 66.4542 20.3281 67.0705L18.8798 67.9101C18.6688 67.5293 18.369 67.2311 17.979 67.0154C17.589 66.7998 17.1517 66.6928 16.6653 66.6928C15.838 66.6928 15.1712 66.9528 14.6634 67.4712C14.1572 67.9912 13.9034 68.6641 13.9034 69.4914C13.9034 70.3188 14.1572 70.9795 14.6634 71.4994C15.1696 72.0179 15.838 72.2779 16.6653 72.2779C17.1517 72.2779 17.5921 72.1708 17.9851 71.9552C18.3782 71.7411 18.6764 71.4459 18.8798 71.0728L20.3281 71.9124C19.9626 72.5287 19.4564 73.0181 18.8079 73.379C18.1595 73.7399 17.4453 73.9204 16.6669 73.9204Z" fill="white"/>
<path d="M26.8018 73.7507L26.291 72.2183H22.8959L22.3851 73.7507H20.5728L23.5535 65.2339H25.6334L28.6263 73.7507H26.8018ZM23.4311 70.6477H25.768L24.5995 67.1685L23.4311 70.6477Z" fill="white"/>
<path d="M32.1682 73.9203C31.3241 73.9203 30.6144 73.7322 30.0394 73.3545C29.4629 72.9783 29.0576 72.4644 28.8221 71.816L30.2581 70.9764C30.59 71.8435 31.243 72.2778 32.2172 72.2778C32.6882 72.2778 33.0323 72.1922 33.251 72.0224C33.4697 71.8527 33.5798 71.637 33.5798 71.3786C33.5798 71.0788 33.4468 70.8448 33.1776 70.6781C32.91 70.5114 32.4313 70.331 31.7416 70.1368C31.3608 70.0236 31.0381 69.9104 30.775 69.7957C30.512 69.6825 30.2474 69.5296 29.9844 69.34C29.7213 69.1488 29.5194 68.9087 29.3818 68.6166C29.2442 68.3245 29.1753 67.9835 29.1753 67.595C29.1753 66.8242 29.4491 66.211 29.9966 65.7522C30.5441 65.2934 31.2032 65.064 31.974 65.064C32.6637 65.064 33.2694 65.2322 33.7924 65.5687C34.3154 65.9051 34.7238 66.3731 35.0159 66.9741L33.6043 67.7892C33.2632 67.0597 32.7203 66.6942 31.974 66.6942C31.6253 66.6942 31.3516 66.7738 31.1528 66.9313C30.954 67.0888 30.8545 67.2937 30.8545 67.5461C30.8545 67.8137 30.9662 68.0309 31.1895 68.1976C31.4128 68.3643 31.841 68.5447 32.4726 68.739C32.7326 68.82 32.9283 68.8827 33.0629 68.9271C33.1959 68.9714 33.3795 69.0402 33.6104 69.1335C33.8413 69.2268 34.0203 69.314 34.1457 69.395C34.2711 69.4761 34.4148 69.5862 34.5769 69.7238C34.739 69.8615 34.8629 70.0037 34.9486 70.1505C35.0342 70.2958 35.1061 70.4732 35.1673 70.6797C35.2284 70.8861 35.259 71.1125 35.259 71.3556C35.259 72.1432 34.973 72.7672 34.4011 73.2291C33.8291 73.6909 33.0843 73.9234 32.1682 73.9234V73.9203Z" fill="white"/>
<path d="M41.1347 65.2339H42.8017V73.7507H41.1347V70.2226H37.972V73.7507H36.2928V65.2339H37.972V68.6168H41.1347V65.2339Z" fill="white"/>
<path d="M49.5292 69.334C50.2755 69.7638 50.6486 70.4137 50.6486 71.2809C50.6486 72.0027 50.3932 72.5945 49.8824 73.0564C49.3716 73.5183 48.7431 73.7507 47.9968 73.7507H44.383V65.2339H47.7414C48.4709 65.2339 49.0856 65.4587 49.5842 65.9083C50.0828 66.3579 50.3321 66.933 50.3321 67.6303C50.3321 68.3277 50.0644 68.9043 49.5292 69.334ZM47.7398 66.803H46.0606V68.6764H47.7398C47.9998 68.6764 48.217 68.5877 48.3913 68.4088C48.5657 68.2298 48.6529 68.0066 48.6529 67.7389C48.6529 67.4713 48.5672 67.248 48.3975 67.0706C48.2277 66.8917 48.009 66.803 47.7398 66.803ZM47.9952 72.1801C48.2797 72.1801 48.5137 72.0853 48.7003 71.8941C48.8868 71.7045 48.9801 71.4629 48.9801 71.1707C48.9801 70.8786 48.8868 70.6492 48.7003 70.4596C48.5137 70.27 48.2782 70.1736 47.9952 70.1736H46.0606V72.1816H47.9952V72.1801Z" fill="white"/>
<path d="M57.2186 73.7507L56.7078 72.2183H53.3127L52.8019 73.7507H50.9897L53.9703 65.2339H56.0502L59.0431 73.7507H57.2186ZM53.848 70.6477H56.1833L55.0149 67.1685L53.8465 70.6477H53.848Z" fill="white"/>
<path d="M63.6067 73.9204C62.3251 73.9204 61.2668 73.4952 60.4318 72.6434C59.5968 71.7916 59.1777 70.7409 59.1777 69.4914C59.1777 68.242 59.5952 67.1822 60.4318 66.3334C61.2668 65.4861 62.3251 65.0625 63.6067 65.0625C64.3774 65.0625 65.0886 65.243 65.7416 65.6039C66.3946 65.9648 66.9039 66.4542 67.2679 67.0705L65.8196 67.9101C65.6086 67.5293 65.3088 67.2311 64.9188 67.0154C64.5289 66.7998 64.0915 66.6928 63.6051 66.6928C62.7778 66.6928 62.111 66.9528 61.6032 67.4712C61.0955 67.9912 60.8432 68.6641 60.8432 69.4914C60.8432 70.3188 61.097 70.9795 61.6032 71.4994C62.1095 72.0179 62.7778 72.2779 63.6051 72.2779C64.0915 72.2779 64.5319 72.1708 64.9249 71.9552C65.318 71.7411 65.6162 71.4459 65.8196 71.0728L67.2679 71.9124C66.9024 72.5287 66.3962 73.0181 65.7477 73.379C65.0993 73.7399 64.3851 73.9204 63.6067 73.9204Z" fill="white"/>
<path d="M74.9588 73.7507H73.0243L69.9824 69.7607V73.7507H68.3032V65.2339H69.9824V68.993L72.9019 65.2339H74.8365L71.6846 69.3707L74.9573 73.7507H74.9588Z" fill="white"/>
<defs>
<linearGradient id="paint0_linear_1_54" x1="22.8183" y1="3.91519" x2="69.8167" y2="92.8271" gradientUnits="userSpaceOnUse">
<stop stop-color="#F3C531"/>
<stop offset="1" stop-color="#E07500"/>
</linearGradient>
<linearGradient id="paint1_linear_1_54" x1="36.4764" y1="33.6657" x2="84.6965" y2="99.829" gradientUnits="userSpaceOnUse">
<stop stop-color="#F3C531"/>
<stop offset="0.65" stop-color="#E07500"/>
</linearGradient>
<linearGradient id="paint2_linear_1_54" x1="48.6453" y1="11.7382" x2="10.6542" y2="50.018" gradientUnits="userSpaceOnUse">
<stop stop-color="#FFDA8F"/>
<stop offset="1" stop-color="#FFDA8F"/>
</linearGradient>
<linearGradient id="paint3_linear_1_54" x1="59.164" y1="22.1754" x2="21.1714" y2="60.4568" gradientUnits="userSpaceOnUse">
<stop stop-color="#FFDA8F"/>
<stop offset="1" stop-color="#FFDA8F"/>
</linearGradient>
</defs>
</svg>
