<svg width="85" height="94" viewBox="0 0 85 94" fill="none" xmlns="http://www.w3.org/2000/svg">
<g clip-path="url(#clip0_1_42)">
<path d="M85 51.4042C85 74.9292 65.9729 94.0001 42.5 94.0001C19.0271 94.0001 0 74.9292 0 51.4042C0 27.8793 19.0291 8.8064 42.5 8.8064C65.9709 8.8064 85 27.8773 85 51.4042Z" fill="#F5F6F7"/>
<g style="mix-blend-mode:multiply" opacity="0.3">
<path d="M4.0968 12.1052C4.0968 12.1052 4.11506 12.0889 4.12318 12.0808C4.11506 12.0889 4.10492 12.0991 4.0968 12.1052Z" fill="#C8C8C8"/>
</g>
<path d="M51.5986 52.2726C51.1603 56.9239 47.2563 60.5644 42.5 60.5644C37.4515 60.5644 33.3608 56.4622 33.3608 51.4042C33.3608 46.3461 37.4536 42.244 42.5 42.244C44.3343 42.244 46.0408 42.787 47.4714 43.7185L58.4875 24.5927C53.786 21.8592 48.3236 20.2932 42.498 20.2932C24.8791 20.2932 10.592 34.6111 10.592 52.2726C10.592 69.9341 24.8791 84.254 42.498 84.254C60.1169 84.254 74.4059 69.9382 74.4059 52.2746H51.5986V52.2726Z" fill="#42B72A"/>
<path d="M63.0104 8.70459V8.71069C58.0228 6.33522 52.5685 4.79157 46.822 4.26685C46.8687 4.36243 46.9113 4.46209 46.9519 4.56175C57.9254 5.60102 67.8336 10.3682 75.3941 17.5841C75.5382 17.5862 75.6843 17.5963 75.8284 17.6126C72.2328 14.1328 68.0994 11.2082 63.5684 8.97712" fill="#42B72A"/>
<path d="M60.8514 2.97138C56.7161 1.43586 52.3311 0.416928 47.7757 0C47.8244 0.103724 47.8711 0.207447 47.9137 0.315238C52.4123 0.742335 56.7424 1.7572 60.8291 3.28255C60.8331 3.17882 60.8413 3.0751 60.8514 2.97138Z" fill="#42B72A"/>
<path d="M68.9517 6.81934C68.8806 6.89459 68.8076 6.9678 68.7325 7.03899C72.1739 9.05448 75.3596 11.4584 78.2288 14.1979C78.383 14.2 78.5372 14.2101 78.6915 14.2285C75.7594 11.3893 72.4905 8.89991 68.9537 6.82137L68.9517 6.81934Z" fill="#42B72A"/>
</g>
<defs>
<clipPath id="clip0_1_42">
<rect width="85" height="94" fill="white"/>
</clipPath>
</defs>
</svg>
