<svg width="51" height="47" viewBox="0 0 51 47" fill="none" xmlns="http://www.w3.org/2000/svg">
<path d="M25.2247 39.8752C25.044 40.0393 10.2724 36.6593 7.98229 36.6739C7.78449 36.6725 7.75308 36.606 7.84901 36.4305C9.0585 34.1869 11.9076 26.3509 12.6759 24.2391C12.795 23.9213 12.8013 23.5384 13.0987 23.3021C13.2527 23.4447 15.7565 27.2256 15.7697 27.2493C16.6696 28.601 17.7237 27.8352 17.4576 26.9944C17.2671 26.3852 14.9872 23.2113 13.4605 21.5783C12.944 21.0224 12.2821 21.118 11.9555 21.8046C11.1912 23.398 6.92112 34.746 6.81918 36.2708C6.80004 36.5551 6.85371 36.8061 7.1571 36.9223C7.49906 37.0553 7.08332 37.5615 7.86171 37.8498C9.88544 38.5941 24.8857 41.5316 26.8432 41.47C27.5048 41.4493 27.9182 40.8075 27.621 40.2065C26.8415 38.6183 25.9308 37.4805 24.8292 35.7063C24.3259 34.895 23.6935 34.1863 23.1572 33.4042C22.3986 32.3005 21.147 32.9899 21.5967 33.9313C21.767 34.2873 21.9279 34.6594 22.1329 34.9925C24.1193 38.1633 25.3787 39.7386 25.22 39.8832L25.2247 39.8752Z" fill="#A8A8A8"/>
<path d="M43.7908 9.70761C43.591 9.39358 43.3464 9.2685 43.0699 9.32897C41.5812 9.66662 44.2043 12.5715 40.6953 19.0118C35.0158 29.4441 21.8369 31.9067 24.3382 32.5026C25.6914 32.8275 39.1334 28.2727 43.2318 17.1478C44.0187 15.0037 44.3659 12.7937 44.026 10.5091C43.9846 10.2275 43.9542 9.93612 43.7908 9.70761Z" fill="#A8A8A8"/>
<path d="M28.6284 19.5019C31.6546 15.655 34.1442 10.3387 34.8825 6.53996C35.0278 5.78631 35.6449 3.03425 35.5724 2.23003C35.5102 1.56599 34.6707 1.53226 34.4325 2.06579C34.0667 2.88535 33.6452 13.8624 23.6037 22.8767C20.6184 25.5554 20.7229 25.1326 20.0765 25.7687C19.8616 25.9828 19.5801 26.1263 19.2821 26.2334C18.2771 26.598 18.4049 27.2785 18.8551 27.2055C19.4483 27.1078 20.0216 26.961 20.5363 26.6461C23.8993 24.615 26.6653 21.9815 28.625 19.4892L28.6284 19.5019Z" fill="#A8A8A8"/>
<path d="M34.204 14.6521C35.2511 15.0795 36.4566 15.1581 39.0854 15.468C39.5073 15.5183 39.924 15.4475 40.3394 15.3974C40.5241 15.3752 40.6888 15.3038 40.7444 15.1051C40.9013 14.573 40.3632 14.3428 39.8467 14.168C38.7514 13.8149 35.3831 12.8795 34.5364 12.7932C33.6544 12.7028 32.7713 14.0558 34.2086 14.6441L34.204 14.6521Z" fill="#A8A8A8"/>
<path d="M10.2448 34.55C10.9721 35.029 18.618 36.5335 18.8048 36.5448C19.2233 36.5824 19.5095 36.1517 19.1051 35.8108C18.1881 35.0559 11.9873 33.5589 11.021 33.3822C10.7571 33.3372 9.56232 34.0862 10.2494 34.5419L10.2448 34.55Z" fill="#A8A8A8"/>
<path d="M26.9183 23.9422C27.1049 24.1305 27.3355 24.2797 27.5825 24.3633C30.1663 25.2162 30.1263 25.118 32.391 25.4913C33.4738 25.6709 33.8098 25.0703 33.4374 24.646C32.9675 24.1116 28.7632 22.8761 27.7325 22.6622C27.0411 22.5207 26.3047 23.3034 26.9246 23.9405L26.9183 23.9422Z" fill="#A8A8A8"/>
<path d="M32.1177 20.0509C33.6098 20.3863 35.773 20.889 37.3258 20.9426C37.7311 20.9565 38.1259 21.0073 38.2326 20.6179C38.2883 20.4192 38.2267 20.2655 37.9978 20.1227C37.8109 20.0094 37.6176 19.8978 37.4075 19.8248C34.2326 18.7219 31.8785 17.964 31.294 18.6788C30.833 19.2448 31.4644 19.8992 32.116 20.0446L32.1177 20.0509Z" fill="#A8A8A8"/>
<path d="M36.9575 8.99938C38.1938 9.39646 40.4029 9.96856 41.683 9.74128C42.3397 9.62656 42.4302 8.74464 41.5704 8.45766C40.4447 8.09222 37.7773 7.10518 36.8092 7.20121C35.9669 7.28396 35.6457 8.57487 36.9575 8.99938Z" fill="#A8A8A8"/>
<path d="M12.4805 31.2075C12.637 31.4106 12.8463 31.5315 13.0773 31.6058C14.0908 31.9333 17.4499 32.9868 18.5058 32.9898C18.8806 32.9915 19.0638 32.5067 18.7078 32.2958C17.8508 31.7902 15.4892 30.7757 13.2095 30.2702C12.6668 30.1502 12.0579 30.6468 12.4805 31.2075Z" fill="#A8A8A8"/>
<path d="M22.4353 27.56C23.1699 28.0915 26.0973 28.7026 26.8654 28.8507C27.4174 28.9547 28.0925 28.9848 28.1245 28.4181C28.1427 28.0796 27.9465 27.9825 27.4664 27.7912C26.3778 27.3613 25.2723 26.97 24.158 26.6219C23.8021 26.5131 23.4246 26.4508 23.0565 26.3725C22.213 26.1969 21.8702 27.1532 22.4289 27.5617L22.4353 27.56Z" fill="#A8A8A8"/>
</svg>
