<svg width="53" height="29" viewBox="0 0 53 29" fill="none" xmlns="http://www.w3.org/2000/svg">
<path d="M19.9285 5.04054C21.1229 5.00453 22.2873 5.26262 23.4638 5.43068C27.7073 6.05491 32.395 8.36577 32.9412 9.17006C33.1333 9.45817 32.8752 9.72826 32.6351 9.66824C31.4767 9.36813 30.1382 8.41979 25.9547 7.22535C22.0052 6.09694 20.3906 6.34302 19.1962 6.11494C18.776 6.03691 18.4639 6.24698 17.9357 6.10893C17.8157 6.07892 17.6776 6.07293 17.5576 6.09693C16.9814 6.21698 11.1592 6.15094 6.33946 9.70425C4.19067 11.2888 2.61809 13.4016 2.13792 14.41C1.94585 14.8061 1.75978 15.0342 2.16793 15.2023C3.66848 15.8265 6.69959 16.6008 8.28418 16.9249C9.4366 17.165 9.7247 17.111 9.82074 17.5851C9.88676 17.9093 9.59866 18.2214 9.26253 18.2034C7.94805 18.1253 3.05025 16.9729 1.51969 16.0426C0.841441 15.6284 0.523324 15.0762 0.871452 14.35C3.86055 8.11368 10.8051 5.14858 17.9777 5.00453C18.638 4.99252 19.2862 5.06454 19.9405 5.05254L19.9285 5.04054Z" fill="#A8A8A8"/>
<path d="M9.38255 18.7136C9.61063 18.1374 10.1688 18.1254 10.2229 18.8457C10.2229 18.8877 10.2349 18.9297 10.2229 18.9717C10.1148 19.4159 10.1989 19.854 10.2049 20.2982C10.2469 23.2273 11.5133 26.0303 12.8818 27.4048C13.0499 27.5729 13.1219 27.5609 13.194 27.3568C13.4641 26.5945 14.3884 21.8708 18.806 17.6992C22.9475 13.7858 28.5176 12.6094 31.6087 13.3717C31.7768 13.4137 31.9388 13.4437 32.0829 13.5457C32.269 13.6778 32.251 13.9719 32.0469 14.0739C31.8068 14.194 30.8464 14.254 30.6664 14.26C22.8755 14.5121 16.039 20.3942 14.4184 27.6569C14.3524 27.945 14.2383 28.2211 14.0943 28.4852C13.8422 28.9414 13.5181 29.0674 13.0319 28.8753C10.9731 28.071 9.59863 24.7098 9.19648 22.357C8.9864 21.1325 8.92638 19.8721 9.37655 18.7256L9.38255 18.7136Z" fill="#A8A8A8"/>
<path d="M31.2667 21.3906C32.155 18.4495 33.4575 14.6681 33.8716 13.8158C34.0697 13.4076 34.3518 13.0535 34.778 13.2036C35.2401 13.3716 35.2161 13.8938 35.0601 14.368C33.6555 18.7196 34.3938 16.5468 32.9473 20.5683C32.8993 20.7063 32.8512 20.8504 32.8152 20.9944C32.8032 21.0605 32.8512 21.1325 32.9293 21.1085C33.0673 21.0664 33.2054 21.0064 33.3374 20.9404C51.7942 11.9071 52.5025 11.685 52.7065 12.1652C52.8866 12.5853 52.0823 12.9755 46.7524 15.7005C39.4537 19.4339 37.641 20.2922 32.8512 22.603C32.203 22.9151 31.8249 23.1372 31.4647 22.7171C31.2847 22.507 31.0506 22.1108 31.2667 21.4026V21.3906Z" fill="#A8A8A8"/>
<path d="M31.8308 0.166865C32.0348 -0.0852281 32.359 -0.0132001 32.6531 0.130853C35.3601 1.43933 46.7342 7.45354 52.2323 10.7007C53.0126 11.1629 52.6884 11.541 52.4363 11.505C50.9898 11.3069 33.1633 1.70942 33.0792 1.84747C32.9892 1.99753 33.1873 2.23162 34.2977 5.77292C34.4477 6.24109 35.138 8.56395 35.222 9.08014C35.3 9.58433 34.7778 10.0645 34.3457 9.72238C33.9916 9.44628 33.9135 9.17618 33.7095 8.57596C32.9592 6.40916 32.2749 4.23036 31.6687 2.02154C31.3086 0.719065 31.4826 0.605031 31.8368 0.172873L31.8308 0.166865Z" fill="#A8A8A8"/>
<path d="M22.3053 8.51599C23.2176 8.75007 22.9955 9.23624 22.4313 9.14621C21.3869 8.97215 18.902 8.95415 17.7436 9.11621C13.7161 9.67441 10.673 11.6851 9.37653 13.4678C9.31651 13.5518 9.26249 13.6479 9.18446 13.7199C8.71029 14.2121 8.15208 13.6119 8.36216 13.2217C10.0488 10.1186 13.9142 8.564 17.3895 8.17386C19.4302 7.94577 20.8467 8.13785 22.2993 8.51599H22.3053Z" fill="#A8A8A8"/>
</svg>
