<svg width="53" height="30" viewBox="0 0 53 30" fill="none" xmlns="http://www.w3.org/2000/svg">
<path d="M19.8238 5.1841C21.0183 5.14808 22.1827 5.40617 23.3591 5.57424C27.6027 6.19846 32.2904 8.50932 32.8366 9.31362C33.0287 9.60172 32.7706 9.87181 32.5305 9.81179C31.3721 9.51168 30.0336 8.56335 25.85 7.36891C21.9006 6.24049 20.286 6.48658 19.0916 6.2585C18.6714 6.18047 18.3593 6.39054 17.8311 6.25249C17.7111 6.22248 17.573 6.21648 17.453 6.24049C16.8767 6.36053 11.0546 6.2945 6.23484 9.8478C4.08605 11.4324 2.51347 13.5452 2.03329 14.5535C1.84122 14.9497 1.65516 15.1778 2.06331 15.3458C3.56386 15.9701 6.59497 16.7444 8.17955 17.0685C9.33198 17.3086 9.62008 17.2545 9.71612 17.7287C9.78214 18.0528 9.49404 18.3649 9.15791 18.3469C7.84343 18.2689 2.94563 17.1165 1.41507 16.1861C0.736819 15.772 0.418702 15.2198 0.76683 14.4935C3.75593 8.25723 10.7005 5.29214 17.8731 5.14808C18.5334 5.13608 19.1816 5.2081 19.8358 5.19609L19.8238 5.1841Z" fill="#3B5998"/>
<path d="M9.27793 18.8572C9.50601 18.281 10.0642 18.269 10.1182 18.9892C10.1182 19.0312 10.1302 19.0732 10.1182 19.1153C10.0102 19.5594 10.0942 19.9976 10.1002 20.4418C10.1422 23.3708 11.4087 26.1739 12.7772 27.5484C12.9453 27.7164 13.0173 27.7044 13.0893 27.5003C13.3594 26.7381 14.2838 22.0143 18.7014 17.8428C22.8429 13.9294 28.413 12.7529 31.5041 13.5152C31.6722 13.5572 31.8342 13.5872 31.9783 13.6893C32.1643 13.8213 32.1463 14.1154 31.9423 14.2175C31.7022 14.3375 30.7418 14.3975 30.5617 14.4035C22.7709 14.6556 15.9344 20.5378 14.3138 27.8005C14.2478 28.0886 14.1337 28.3647 13.9897 28.6288C13.7376 29.0849 13.4134 29.211 12.9273 29.0189C10.8685 28.2146 9.49401 24.8534 9.09186 22.5005C8.88178 21.2761 8.82176 20.0156 9.27193 18.8692L9.27793 18.8572Z" fill="#3B5998"/>
<path d="M31.162 21.5341C32.0504 18.593 33.3528 14.8117 33.767 13.9593C33.9651 13.5512 34.2472 13.1971 34.6733 13.3471C35.1355 13.5152 35.1115 14.0374 34.9554 14.5116C33.5509 18.8632 34.2892 16.6903 32.8427 20.7118C32.7946 20.8499 32.7466 20.9939 32.7106 21.138C32.6986 21.204 32.7466 21.276 32.8247 21.252C32.9627 21.21 33.1008 21.15 33.2328 21.084C51.6896 12.0506 52.3978 11.8286 52.6019 12.3087C52.782 12.7289 51.9777 13.119 46.6477 15.844C39.349 19.5774 37.5364 20.4357 32.7466 22.7466C32.0984 23.0587 31.7202 23.2808 31.3601 22.8606C31.18 22.6505 30.946 22.2544 31.162 21.5461V21.5341Z" fill="#3B5998"/>
<path d="M31.7261 0.310419C31.9302 0.0583266 32.2543 0.130355 32.5484 0.274407C35.2554 1.58289 46.6296 7.59709 52.1276 10.8443C52.9079 11.3065 52.5838 11.6846 52.3317 11.6486C50.8852 11.4505 33.0586 1.85298 32.9746 1.99103C32.8846 2.14108 33.0826 2.37518 34.1931 5.91648C34.3431 6.38465 35.0334 8.70751 35.1174 9.2237C35.1954 9.72788 34.6732 10.2081 34.2411 9.86594C33.8869 9.58984 33.8089 9.31974 33.6048 8.71952C32.8546 6.55272 32.1703 4.37391 31.5641 2.1651C31.204 0.86262 31.378 0.748586 31.7321 0.316427L31.7261 0.310419Z" fill="#3B5998"/>
<path d="M22.2007 8.65954C23.113 8.89363 22.8909 9.3798 22.3267 9.28976C21.2823 9.1157 18.7974 9.0977 17.639 9.25976C13.6115 9.81797 10.5684 11.8287 9.27191 13.6114C9.21189 13.6954 9.15787 13.7914 9.07984 13.8634C8.60567 14.3556 8.04746 13.7554 8.25754 13.3653C9.94416 10.2621 13.8096 8.70755 17.2849 8.31741C19.3256 8.08933 20.7421 8.2814 22.1947 8.65954H22.2007Z" fill="#3B5998"/>
</svg>
