<svg width="76" height="94" viewBox="0 0 76 94" fill="none" xmlns="http://www.w3.org/2000/svg">
<g clip-path="url(#clip0_1_22)">
<path d="M53.447 74.3205C53.879 74.0776 54.2995 73.8246 54.7157 73.5616L54.9773 73.3963C55.3385 73.162 55.6969 72.9205 56.0524 72.6719L56.3905 72.4333C56.7142 72.199 57.0307 71.9575 57.3457 71.7117C57.4671 71.6154 57.5928 71.522 57.7157 71.4229C58.022 71.1742 58.324 70.9169 58.6232 70.6553L58.9628 70.3636C59.363 70.0042 59.7561 69.6363 60.1376 69.2568C65.808 63.6111 69.3036 55.8482 69.3079 47.2373C69.3036 38.6278 65.808 30.8634 60.1376 25.2191C54.7071 19.8235 47.3242 16.4142 39.1149 16.1267V69.609L48.5251 76.5684L48.7014 76.5095L48.6942 76.5037C50.3054 75.9202 51.8574 75.2087 53.3357 74.3823L53.4484 74.3162L53.447 74.3205ZM48.1696 56.2118C47.2462 55.5564 46.4977 54.7472 45.9254 53.7914C45.3517 52.8341 44.9385 51.7475 44.6856 50.533H42.5397C42.3171 50.533 42.1365 50.4151 42.0035 50.1794C41.8677 49.9451 41.8012 49.5484 41.8012 48.998C41.8012 48.7206 41.8157 48.4848 41.8388 48.2937C41.859 48.1011 41.8952 47.9459 41.9472 47.8323L42.1495 47.5808C42.2319 47.5262 42.3301 47.4988 42.4515 47.4988H44.4385C44.4385 47.3177 44.437 47.1309 44.4283 46.9297C44.4211 46.7313 44.4182 46.5359 44.4182 46.3433C44.4182 46.1032 44.4197 45.8646 44.4283 45.6303C44.4356 45.3946 44.4385 45.1704 44.4385 44.9534H42.4515C42.2261 44.9534 42.0628 44.8413 41.9602 44.6185C41.8561 44.3957 41.8012 43.999 41.8012 43.4341C41.8012 43.1467 41.8186 42.9052 41.8576 42.7112C41.8952 42.52 41.9457 42.3691 42.0165 42.2527L42.2506 42.0055L42.5397 41.935H44.8402C45.1364 40.7809 45.5728 39.723 46.1465 38.7658C46.7202 37.8085 47.4586 36.9835 48.3604 36.2922C49.2577 35.5994 50.3386 35.0618 51.5987 34.6838C52.8559 34.3044 54.3284 34.1161 56.0105 34.1161C56.785 34.1161 57.5336 34.1606 58.2561 34.2512C58.9786 34.3417 59.6289 34.461 60.2098 34.6019C60.7936 34.7456 61.2734 34.8951 61.652 35.0446C62.0306 35.194 62.3023 35.3234 62.4699 35.4326C62.6332 35.5433 62.7503 35.654 62.8268 35.7675C62.8991 35.8825 62.9583 36.0234 63.006 36.193C63.0494 36.3611 63.0869 36.5739 63.1159 36.834C63.1448 37.0927 63.1606 37.4075 63.1606 37.7812C63.1606 38.1046 63.1448 38.3705 63.1159 38.5746C63.0869 38.7816 63.0393 38.9469 62.9728 39.0719C62.9034 39.1984 62.8211 39.2861 62.7271 39.3335C62.6274 39.3809 62.5234 39.4068 62.4005 39.4068C62.1621 39.4068 61.8832 39.3206 61.5639 39.1538C61.2431 38.9842 60.8486 38.7988 60.3789 38.6033C59.9093 38.4021 59.3471 38.2225 58.6925 38.06C58.0365 37.8962 57.2706 37.8171 56.392 37.8171C55.5134 37.8171 54.8284 37.9091 54.2027 38.096C53.5756 38.2828 53.038 38.5588 52.5799 38.9167C52.1276 39.2789 51.7591 39.7115 51.4773 40.2189C51.1927 40.7248 50.9759 41.2969 50.8285 41.9336H56.9469L57.2518 42.004L57.483 42.2512C57.5466 42.3662 57.5928 42.5186 57.629 42.7097C57.668 42.9052 57.6853 43.1452 57.6853 43.4327C57.6853 43.9976 57.616 44.3943 57.483 44.617C57.3515 44.8398 57.1723 44.9519 56.9469 44.9519H50.3805C50.3647 45.1431 50.3545 45.34 50.3473 45.5369C50.3401 45.7367 50.3372 45.9566 50.3372 46.1966C50.3372 46.4151 50.3386 46.6264 50.3473 46.8377C50.3545 47.0475 50.3647 47.266 50.3805 47.4974H56.9469L57.2518 47.5793L57.483 47.8309C57.5466 47.9459 57.5928 48.0996 57.629 48.2922C57.668 48.4834 57.6853 48.7191 57.6853 48.9965C57.6853 49.5485 57.616 49.9437 57.483 50.178C57.3515 50.4137 57.1723 50.5316 56.9469 50.5316H50.8054C50.9253 51.1439 51.1276 51.6944 51.4109 52.183C51.6912 52.6703 52.0669 53.0828 52.5366 53.4191C53.0062 53.7569 53.5799 54.0156 54.2576 54.1967C54.9354 54.3764 55.7432 54.4655 56.681 54.4655C57.5596 54.4655 58.3255 54.3821 58.9714 54.214C59.6203 54.0444 60.1795 53.8589 60.6592 53.6534C61.1347 53.4493 61.5335 53.2625 61.8514 53.0943C62.1737 52.9247 62.4367 52.8399 62.6477 52.8399C62.7633 52.8399 62.8731 52.8658 62.9713 52.9132C63.0653 52.9635 63.1505 53.0555 63.217 53.192C63.282 53.3314 63.3312 53.5226 63.363 53.7727C63.3904 54.017 63.4063 54.3448 63.4063 54.7558C63.4063 55.2848 63.3471 55.703 63.2271 56.012C63.1086 56.3182 62.9424 56.5568 62.7358 56.7249C62.5277 56.8931 62.2243 57.0656 61.8326 57.2395C61.4353 57.412 60.9512 57.5758 60.3789 57.7267C59.8067 57.8762 59.1506 58.0013 58.4122 58.0976C57.6781 58.1953 56.8602 58.2427 55.9671 58.2427C54.2836 58.2427 52.7923 58.0674 51.4976 57.7181C50.2028 57.3688 49.0944 56.8672 48.1696 56.2104V56.2118Z" fill="#FDAD10"/>
<path d="M53.4311 81.5831L39.1149 70.9944V79.4889H37.9993C29.3434 79.4861 21.2019 76.1328 15.0734 70.0429C8.9507 63.9473 5.57937 55.8495 5.57937 47.24C5.57937 38.6306 8.95359 30.5328 15.0734 24.4371C18.4635 21.0695 22.4692 18.5442 26.8333 16.9545L21.9028 13.3095L21.7163 13.0881C17.7627 14.9566 14.1804 17.4762 11.1298 20.5161C4.26003 27.3434 0 36.8138 0 47.24C0 57.6663 4.26003 67.1367 11.1298 73.9654C17.7569 80.5626 26.8622 84.7294 36.9126 85.0096C37.2276 85.0197 37.5397 85.0326 37.8562 85.0326L37.8244 92.8933L38.0007 92.7639V92.8933L53.4311 81.5831Z" fill="#3B5998"/>
<path d="M27.9214 17.7593C23.3334 19.3101 19.2251 21.8815 15.8624 25.2203C10.192 30.8661 6.69352 38.6304 6.69207 47.2385C6.69352 55.8494 10.192 63.6123 15.8624 69.258C21.5372 74.898 29.3434 78.3763 38.0007 78.3778V24.8581L37.9169 24.8768C37.6814 24.8768 37.4473 24.8035 37.2507 24.6584L27.9214 17.7593ZM30.5168 56.0521C29.1743 56.9303 27.5891 57.4966 25.7712 57.7668V59.8638C25.7712 60.5451 25.2148 61.0956 24.5328 61.0956H22.2597C21.5762 61.0956 21.0213 60.5451 21.0213 59.8638V57.7696C18.9635 57.4434 17.1167 56.6629 15.478 55.411C14.4665 54.6435 13.6573 53.8415 13.0532 53.005C12.8769 52.8095 12.7873 52.5925 12.7815 52.3496C12.7743 51.9759 12.968 51.674 13.3654 51.4455L15.6803 50.093L15.6861 50.0901C15.6861 50.0901 16.1355 49.8932 16.3653 49.8932C16.7844 49.8932 17.1196 50.057 17.3696 50.3819C18.517 51.6165 19.7337 52.4588 21.0198 52.913V47.6036C18.0416 47.1465 15.8855 46.0369 14.5575 44.2647C13.7671 43.2226 13.3596 42.0254 13.3336 40.6743C13.283 37.9276 14.7815 35.855 17.8349 34.4709C18.7814 34.0411 19.845 33.745 21.0198 33.5812V31.2513C21.0198 30.57 21.5733 30.0181 22.2582 30.0181H24.5313C25.2134 30.0181 25.7697 30.57 25.7697 31.2513V33.6459C28.2726 34.0785 30.3188 35.1924 31.904 36.989C32.1323 37.1946 32.2436 37.4317 32.2378 37.7048C32.232 38.044 32.0558 38.3229 31.7075 38.5428L29.1613 40.1281L29.1541 40.131C29.1541 40.131 28.7075 40.3581 28.3795 40.3581C27.9792 40.3552 27.6223 40.2273 27.3203 39.9758C26.8232 39.5474 26.3059 39.2125 25.7697 38.9625V43.2169C28.813 43.638 31.0529 44.7045 32.4893 46.4063C33.3751 47.4713 33.7999 48.7707 33.7681 50.2985C33.719 52.7477 32.6323 54.6622 30.5139 56.0535L30.5168 56.0521Z" fill="#42B72A"/>
<path d="M19.5256 40.6874C19.5314 41.5957 20.03 42.2368 21.0227 42.6148V38.8447L20.8479 38.9137C19.9592 39.3348 19.5199 39.927 19.5256 40.6874Z" fill="#42B72A"/>
<path d="M25.7712 52.8282C25.9446 52.7506 26.1151 52.6672 26.2683 52.5681C27.1541 52.0348 27.6021 51.2831 27.6107 50.31C27.6165 49.2637 26.9995 48.5537 25.7712 48.1685V52.8282Z" fill="#42B72A"/>
<path d="M36.9126 85.0082L36.8851 92.8861C36.8837 93.3058 37.1192 93.6881 37.4964 93.8793C37.6539 93.9612 37.8288 93.9986 38.0007 93.9986C38.2319 93.9986 38.466 93.9267 38.6626 93.783L54.0929 82.4742C54.3761 82.2658 54.5452 81.9338 54.5452 81.5816C54.5467 81.2295 54.3805 80.8989 54.0958 80.6891L48.5251 76.5697L39.1149 69.6103V16.1295C38.7825 16.118 38.4472 16.105 38.1105 16.1036L38.0845 23.7673L37.9155 23.6437V23.7673L22.566 12.4169L38.0007 1.1096V1.23177L38.1655 1.1096L38.1366 9.44887C38.453 9.44887 38.7695 9.46468 39.0831 9.47187L39.1149 1.11391C39.1163 0.69422 38.8793 0.309021 38.5036 0.120734C38.3446 0.0402446 38.1712 0 38.0007 0C37.7652 0 37.5325 0.0733027 37.336 0.215596L21.9057 11.5243C21.621 11.7328 21.4533 12.0633 21.4533 12.4155C21.4533 12.667 21.5617 12.8927 21.7149 13.0867L21.9013 13.308L26.8319 16.9531C22.4678 18.5442 18.4621 21.0695 15.072 24.4357C8.95214 30.5313 5.57793 38.6291 5.57793 47.2386C5.57793 55.8481 8.94925 63.9473 15.072 70.0415C21.2005 76.1314 29.3434 79.4846 37.9978 79.4875H39.1134V70.993L53.4296 81.5816L37.9993 92.8918V92.7625L37.823 92.8918L37.8548 85.0312C37.5383 85.0312 37.2262 85.0183 36.9111 85.0082H36.9126ZM38.0007 78.3779C29.3434 78.3764 21.5372 74.8982 15.8624 69.2582C10.192 63.6124 6.69351 55.8495 6.69207 47.2386C6.69351 38.6291 10.192 30.8648 15.8624 25.2205C19.2251 21.8816 23.3334 19.3088 27.9214 17.7594L37.2507 24.6585C37.4473 24.8036 37.6814 24.8769 37.9169 24.8769L38.0007 24.8583V78.3793V78.3779Z" fill="white"/>
<path d="M22.2597 61.0972H24.5328C25.2148 61.0972 25.7712 60.5468 25.7712 59.8655V57.7684C27.5891 57.4982 29.1743 56.9319 30.5168 56.0537C32.6352 54.6624 33.7219 52.7479 33.771 50.2987C33.8028 48.7723 33.378 47.4716 32.4922 46.4065C31.0558 44.7033 28.8159 43.6368 25.7726 43.2171V38.9627C26.3087 39.2128 26.8261 39.5477 27.3232 39.976C27.6252 40.2275 27.9821 40.3554 28.3824 40.3583C28.7104 40.3583 29.157 40.1312 29.157 40.1312L29.1642 40.1283L31.7104 38.543C32.0586 38.3231 32.2349 38.0442 32.2407 37.705C32.2465 37.4319 32.1352 37.1948 31.9069 36.9893C30.3217 35.1926 28.2755 34.0787 25.7726 33.6461V31.2515C25.7726 30.5702 25.2163 30.0183 24.5342 30.0183H22.2611C21.5776 30.0183 21.0227 30.5702 21.0227 31.2515V33.5814C19.8479 33.7453 18.7843 34.0413 17.8378 34.4711C14.7844 35.8538 13.2844 37.9278 13.3364 40.6745C13.3625 42.0256 13.77 43.2229 14.5604 44.2649C15.8884 46.0371 18.0445 47.1467 21.0227 47.6038V52.9132C19.7352 52.459 18.5199 51.6182 17.3725 50.3821C17.1225 50.0573 16.7872 49.8934 16.3682 49.8934C16.1384 49.8934 15.689 50.0903 15.689 50.0903L15.6832 50.0932L13.3682 51.4457C12.9708 51.6742 12.7772 51.9761 12.7844 52.3498C12.7902 52.5927 12.8784 52.8112 13.0561 53.0052C13.6587 53.8417 14.4694 54.6437 15.4809 55.4112C17.1196 56.6631 18.9664 57.4436 21.0242 57.7699V59.864C21.0242 60.5453 21.5776 61.0958 22.2626 61.0958L22.2597 61.0972ZM25.7712 48.1686C26.9995 48.5538 27.6165 49.2624 27.6107 50.3102C27.6035 51.2833 27.1556 52.035 26.2683 52.5682C26.1151 52.6674 25.9446 52.7508 25.7712 52.8284V48.1686ZM19.5242 40.6875C19.5184 39.9271 19.9592 39.3349 20.8464 38.9138L21.0213 38.8448V42.6149C20.0285 42.2354 19.53 41.5944 19.5242 40.6875Z" fill="white"/>
<path d="M42.1495 47.5807L41.9472 47.8322C41.8966 47.9472 41.859 48.101 41.8388 48.2936C41.8157 48.4848 41.8012 48.7205 41.8012 48.9979C41.8012 49.5498 41.8677 49.9451 42.0035 50.1794C42.1365 50.4151 42.3186 50.5329 42.5397 50.5329H44.6856C44.9385 51.7475 45.3517 52.8355 45.9254 53.7913C46.4977 54.7471 47.2462 55.5549 48.1696 56.2117C49.0944 56.8686 50.2028 57.3702 51.4976 57.7195C52.7923 58.0687 54.2836 58.2441 55.9671 58.2441C56.8587 58.2441 57.6766 58.1967 58.4122 58.0989C59.1506 58.0026 59.8067 57.8776 60.3789 57.7281C60.9511 57.5772 61.4367 57.4133 61.8326 57.2409C62.2257 57.0669 62.5277 56.8945 62.7358 56.7263C62.9424 56.5581 63.1086 56.3195 63.2271 56.0134C63.3471 55.7058 63.4063 55.2876 63.4063 54.7572C63.4063 54.3461 63.3904 54.0184 63.363 53.7741C63.3312 53.5254 63.282 53.3343 63.217 53.1934C63.1505 53.0554 63.0653 52.9649 62.9713 52.9146C62.8731 52.8671 62.7633 52.8413 62.6477 52.8413C62.4381 52.8413 62.1737 52.9275 61.8514 53.0957C61.5335 53.2638 61.1347 53.4492 60.6592 53.6548C60.1795 53.8603 59.6203 54.0472 58.9714 54.2153C58.3255 54.3835 57.5582 54.4669 56.681 54.4669C55.7432 54.4669 54.9368 54.3777 54.2576 54.1981C53.5799 54.017 53.0062 53.7568 52.5366 53.4205C52.0669 53.0842 51.6912 52.6717 51.4109 52.1844C51.1276 51.6957 50.9253 51.1452 50.8054 50.5329H56.9469C57.1723 50.5329 57.3515 50.4151 57.483 50.1794C57.6174 49.9451 57.6853 49.5484 57.6853 48.9979C57.6853 48.7205 57.668 48.4848 57.629 48.2936C57.5928 48.101 57.5466 47.9458 57.483 47.8322L57.2518 47.5807L56.9469 47.4988H50.3805C50.3646 47.2674 50.3545 47.0489 50.3473 46.8391C50.3401 46.6278 50.3372 46.415 50.3372 46.198C50.3372 45.9565 50.3386 45.7381 50.3473 45.5383C50.3545 45.3414 50.3646 45.1445 50.3805 44.9533H56.9469C57.1723 44.9533 57.3515 44.8412 57.483 44.6184C57.6174 44.3956 57.6853 43.9989 57.6853 43.4341C57.6853 43.1466 57.668 42.9051 57.629 42.7111C57.5928 42.5199 57.5466 42.369 57.483 42.2526L57.2518 42.0054L56.9469 41.935H50.8285C50.9759 41.2968 51.1927 40.7247 51.4773 40.2202C51.7577 39.7143 52.1276 39.2802 52.5799 38.918C53.038 38.5587 53.5756 38.2842 54.2027 38.0973C54.827 37.9105 55.5567 37.8185 56.392 37.8185C57.2706 37.8185 58.0365 37.8976 58.6925 38.0614C59.3471 38.2238 59.9093 38.4035 60.3789 38.6047C60.8486 38.8002 61.2431 38.9856 61.5639 39.1552C61.8847 39.3219 62.1636 39.4082 62.4005 39.4082C62.5219 39.4082 62.626 39.3823 62.7271 39.3349C62.8211 39.2874 62.9034 39.1998 62.9728 39.0733C63.0393 38.9482 63.0869 38.7815 63.1158 38.576C63.1448 38.3719 63.1606 38.106 63.1606 37.7826C63.1606 37.4089 63.1448 37.0941 63.1158 36.8354C63.0869 36.5752 63.0494 36.3625 63.006 36.1943C62.9583 36.0262 62.9005 35.8839 62.8268 35.7689C62.7502 35.6554 62.6318 35.5447 62.4699 35.434C62.3023 35.3262 62.0321 35.1969 61.652 35.0459C61.2734 34.8965 60.7936 34.747 60.2098 34.6032C59.6304 34.4609 58.9801 34.3417 58.2561 34.2525C57.5336 34.162 56.785 34.1174 56.0105 34.1174C54.3284 34.1174 52.8574 34.3057 51.5987 34.6852C50.3386 35.0632 49.2592 35.6007 48.3604 36.2935C47.4586 36.9849 46.7202 37.8084 46.1465 38.7671C45.5728 39.7258 45.1364 40.7822 44.8402 41.9364H42.5397L42.2506 42.0068L42.0165 42.254C41.9457 42.369 41.8952 42.5214 41.8576 42.7125C41.8186 42.908 41.8012 43.148 41.8012 43.4355C41.8012 44.0004 41.8561 44.3971 41.9602 44.6198C42.0628 44.8426 42.2261 44.9547 42.4515 44.9547H44.4385C44.4385 45.1718 44.437 45.396 44.4283 45.6317C44.4211 45.8646 44.4182 46.1046 44.4182 46.3446C44.4182 46.5372 44.4197 46.7327 44.4283 46.931C44.4356 47.1323 44.4385 47.3206 44.4385 47.5002H42.4515C42.3301 47.5002 42.2319 47.5275 42.1495 47.5821V47.5807Z" fill="white"/>
<path d="M58.9628 70.365L58.6232 70.6567C58.324 70.9183 58.022 71.1756 57.7157 71.4243C57.5943 71.522 57.4686 71.6154 57.3457 71.7132C57.0307 71.9589 56.7157 72.2004 56.3905 72.4347L56.0524 72.6733C55.6969 72.9219 55.3385 73.1634 54.9773 73.3977L54.7157 73.563C54.2995 73.826 53.879 74.079 53.447 74.3219L53.3342 74.388C51.8574 75.213 50.304 75.9245 48.6927 76.5095L48.6999 76.5152L54.8761 81.1045C58.5943 79.2691 61.9699 76.853 64.8658 73.9669C71.7371 67.1382 75.9986 57.6692 75.9986 47.2415C75.9986 36.8139 71.7371 27.3463 64.8658 20.5177C58.2402 13.9204 49.1363 9.75509 39.0831 9.47481C38.768 9.46619 38.453 9.45182 38.1366 9.45182L38.1655 1.11255L37.9978 1.23472V1.11255L22.566 12.4199L37.9155 23.7703V23.6467L38.0845 23.7703L38.1106 16.1066C38.4472 16.108 38.7825 16.1209 39.1149 16.1324C47.3242 16.4199 54.7056 19.8277 60.1376 25.2248C65.808 30.8706 69.3036 38.6349 69.3079 47.243C69.3036 55.8539 65.808 63.6168 60.1376 69.2625C59.7561 69.6406 59.363 70.0099 58.9628 70.3693V70.365Z" fill="#3B5998"/>
</g>
<defs>
<clipPath id="clip0_1_22">
<rect width="76" height="94" fill="white"/>
</clipPath>
</defs>
</svg>
